<?xml version="1.0" encoding="UTF-8" standalone="no"?>
<!-- Generator: Adobe Illustrator 16.0.0, SVG Export Plug-In . SVG Version: 6.00 Build 0)  -->

<svg
   xmlns:dc="http://purl.org/dc/elements/1.1/"
   xmlns:cc="http://creativecommons.org/ns#"
   xmlns:rdf="http://www.w3.org/1999/02/22-rdf-syntax-ns#"
   xmlns:svg="http://www.w3.org/2000/svg"
   xmlns="http://www.w3.org/2000/svg"
   xmlns:xlink="http://www.w3.org/1999/xlink"
   xmlns:sodipodi="http://sodipodi.sourceforge.net/DTD/sodipodi-0.dtd"
   xmlns:inkscape="http://www.inkscape.org/namespaces/inkscape"
   version="1.1"
   x="0px"
   y="0px"
   width="15.997066"
   height="16"
   viewBox="0 0 15.997066 16.000001"
   enable-background="new 0 0 256 256"
   xml:space="preserve"
   id="svg2"
   inkscape:version="0.48.5 r10040"
   sodipodi:docname="easytag.svg"><metadata
     id="metadata164"><rdf:RDF><cc:Work
         rdf:about=""><dc:format>image/svg+xml</dc:format><dc:type
           rdf:resource="http://purl.org/dc/dcmitype/StillImage" /><dc:title></dc:title></cc:Work></rdf:RDF></metadata><defs
     id="defs162"><defs
       id="defs20"><path
         d="M 245.46,129.523 147.569,32.625 c -5.556,-5.502 -16.222,-11.873 -23.7,-14.16 L 84.351,6.382 C 76.872,4.096 66.255,6.773 60.752,12.33 L 47.311,25.908 c -5.5,5.559 -14.502,14.653 -20.005,20.21 l -13.44,13.579 c -5.5,5.558 -8.07,16.206 -5.706,23.658 l 12.483,39.391 c 2.363,7.456 8.843,18.056 14.399,23.556 l 97.89,96.898 c 5.558,5.502 14.605,5.455 20.105,-0.101 l 36.26,-36.63 c 5.504,-5.559 14.503,-14.651 20.005,-20.209 l 36.259,-36.629 c 5.502,-5.56 5.455,-14.606 -0.101,-20.108 z M 67.375,78.783 c -7.198,0 -13.033,-5.835 -13.033,-13.033 0,-7.197 5.835,-13.033 13.033,-13.033 7.197,0 13.033,5.835 13.033,13.033 -0.001,7.198 -5.836,13.033 -13.033,13.033 z"
         id="SVGID_3_"
         inkscape:connector-curvature="0" /></defs><defs
       id="defs23"><path
         d="M 245.46,129.523 147.569,32.625 c -5.556,-5.502 -16.222,-11.873 -23.7,-14.16 L 84.351,6.382 C 76.872,4.096 66.255,6.773 60.752,12.33 L 47.311,25.908 c -5.5,5.559 -14.502,14.653 -20.005,20.21 l -13.44,13.579 c -5.5,5.558 -8.07,16.206 -5.706,23.658 l 12.483,39.391 c 2.363,7.456 8.843,18.056 14.399,23.556 l 97.89,96.898 c 5.558,5.502 14.605,5.455 20.105,-0.101 l 36.26,-36.63 c 5.504,-5.559 14.503,-14.651 20.005,-20.209 l 36.259,-36.629 c 5.502,-5.56 5.455,-14.606 -0.101,-20.108 z M 67.375,78.783 c -7.198,0 -13.033,-5.835 -13.033,-13.033 0,-7.197 5.835,-13.033 13.033,-13.033 7.197,0 13.033,5.835 13.033,13.033 -0.001,7.198 -5.836,13.033 -13.033,13.033 z"
         id="SVGID_4_"
         inkscape:connector-curvature="0" /></defs><clipPath
       id="SVGID_5_"><use
         id="use27"
         overflow="visible"
         xlink:href="#SVGID_3_"
         style="overflow:visible"
         x="0"
         y="0"
         width="256"
         height="256" /></clipPath><clipPath
       clip-path="url(#SVGID_5_)"
       id="SVGID_6_"><use
         id="use30"
         overflow="visible"
         xlink:href="#SVGID_4_"
         style="overflow:visible"
         x="0"
         y="0"
         width="256"
         height="256" /></clipPath><linearGradient
       y2="39.945801"
       x2="136.6797"
       y1="229.4668"
       x1="136.6797"
       gradientUnits="userSpaceOnUse"
       id="SVGID_9_"><stop
         id="stop63"
         style="stop-color:#E6E7E8"
         offset="0" /><stop
         id="stop65"
         style="stop-color:#FFFFFF"
         offset="1" /></linearGradient><linearGradient
       id="SVGID_7_"
       gradientUnits="userSpaceOnUse"
       x1="128.46919"
       y1="247.29691"
       x2="128.46919"
       y2="5.5654001"><stop
         offset="0"
         style="stop-color:#39B54A"
         id="stop37" /><stop
         offset="0.0817"
         style="stop-color:#45B748"
         id="stop39" /><stop
         offset="0.329"
         style="stop-color:#64BE44"
         id="stop41" /><stop
         offset="0.5693"
         style="stop-color:#7BC241"
         id="stop43" /><stop
         offset="0.7973"
         style="stop-color:#88C540"
         id="stop45" /><stop
         offset="1"
         style="stop-color:#8DC63F"
         id="stop47" /></linearGradient></defs><sodipodi:namedview
     pagecolor="#ffffff"
     bordercolor="#666666"
     borderopacity="1"
     objecttolerance="10"
     gridtolerance="10"
     guidetolerance="10"
     inkscape:pageopacity="0"
     inkscape:pageshadow="2"
     inkscape:window-width="1024"
     inkscape:window-height="534"
     id="namedview160"
     showgrid="false"
     fit-margin-top="0"
     fit-margin-left="0"
     fit-margin-right="0"
     fit-margin-bottom="0"
     borderlayer="true"
     inkscape:showpageshadow="false"
     inkscape:zoom="21.9375"
     inkscape:cx="7.986079"
     inkscape:cy="7.8646783"
     inkscape:window-x="0"
     inkscape:window-y="27"
     inkscape:window-maximized="1"
     inkscape:current-layer="svg2" /><path
     inkscape:connector-curvature="0"
     style="fill:none;stroke:#babdb6;stroke-width:1.00000012;stroke-linejoin:round;stroke-miterlimit:4;stroke-dasharray:none"
     d="M 15.30033,8.3236919 9.2183565,2.422105 C 8.8731697,2.0870077 8.2104856,1.6989785 7.7458821,1.5596935 L 5.2906287,0.82377618 C 4.8259593,0.68454758 4.1663247,0.84758808 3.8244226,1.186036 L 2.9893334,2.0130122 C 2.6476196,2.3515825 2.0883241,2.9054475 1.746422,3.2439048 L 0.91139877,4.0709281 C 0.56967554,4.4094419 0.41000455,5.0579612 0.55688492,5.5118259 l 0.77556898,2.399112 c 0.1468051,0.454109 0.5494132,1.099702 0.8946094,1.434677 L 8.3089612,15.2472 c 0.3453185,0.335098 0.9074094,0.332236 1.2491235,-0.0066 l 2.2528343,-2.230949 c 0.341968,-0.33857 0.901075,-0.892322 1.242911,-1.230827 l 2.252768,-2.2308941 c 0.341846,-0.338636 0.338919,-0.889583 -0.0066,-1.22468 z M 4.235906,5.2333687 c -0.4472105,0 -0.8097338,-0.3553797 -0.8097338,-0.7937808 0,-0.4383353 0.3625233,-0.7937715 0.8097338,-0.7937715 0.4471541,0 0.8097433,0.3553797 0.8097433,0.7937715 C 5.0455834,4.877989 4.6830601,5.2333687 4.235906,5.2333687 z"
     id="path49" /><path
     id="path67"
     d="m 119.142,160.18 c 0.84,7.224 1.71,13.293 2.208,19.39 0.512,6.339 3.038,8.335 9.523,6.429 22.587,-6.635 45.307,-12.838 67.97,-19.206 2.67,-0.75 5.341,-1.501 9.025,-2.535 0.833,12.349 1.615,23.891 2.412,35.654 -1.142,0.599 -1.95,1.211 -2.854,1.465 -31.292,8.807 -62.574,17.621 -93.895,26.293 -3.664,1.014 -7.543,1.427 -11.355,1.697 C 90.384,230.227 82.548,225.62 79.808,214.074 76.516,200.198 74.52,185.987 72.551,171.832 69.208,147.797 65.861,123.745 63.399,99.604 61.398,80.011 68.687,68.89 87.52,63.106 c 25.428,-7.81 51.072,-15.024 76.851,-21.607 18.449,-4.705 27.947,1.101 31.71,19.9 3.24,16.215 5.159,32.819 6.165,49.337 1.003,16.504 -5.839,25.949 -21.635,31.218 -17.217,5.745 -34.78,10.464 -52.195,15.617 -2.9,0.856 -5.822,1.64 -9.274,2.609 z m -4.598,-31.437 c 13.178,-3.704 25.534,-6.922 37.661,-10.851 1.854,-0.599 3.891,-4.542 3.736,-6.795 -0.588,-8.65 -2.093,-17.234 -3.128,-25.862 -0.501,-4.16 -2.669,-5.014 -6.397,-3.938 -10.324,2.989 -20.794,5.54 -30.96,8.994 -2.189,0.75 -4.88,4.648 -4.722,6.915 0.702,10.166 2.353,20.269 3.81,31.537 z"
     clip-rule="evenodd"
     clip-path="url(#SVGID_6_)"
     style="fill:#babdb6;fill-rule:evenodd;stroke-width:15.30011368;stroke-miterlimit:4;stroke-dasharray:none"
     inkscape:connector-curvature="0"
     transform="matrix(0.06212998,0,0,0.06090512,0.0499001,0.43507875)" /><path
     style="fill:none;stroke:#babdb6;stroke-width:1.00000012;stroke-linecap:round;stroke-linejoin:miter;stroke-miterlimit:4;stroke-opacity:1;stroke-dasharray:none"
     d="M 3.8576651,5.1666203 C -2.506483,10.131 2.0647852,17.109304 3.8147473,11.087199"
     id="path4203"
     inkscape:connector-curvature="0"
     sodipodi:nodetypes="cc" /></svg>