<?xml version="1.0" encoding="utf-8"?>
<!-- Generator: Adobe Illustrator 16.0.0, SVG Export Plug-In . SVG Version: 6.00 Build 0)  -->
<!DOCTYPE svg PUBLIC "-//W3C//DTD SVG 1.1//EN" "http://www.w3.org/Graphics/SVG/1.1/DTD/svg11.dtd">
<svg version="1.1" xmlns="http://www.w3.org/2000/svg" xmlns:xlink="http://www.w3.org/1999/xlink" x="0px" y="0px" width="256px"
	 height="256px" viewBox="0 0 256 256" enable-background="new 0 0 256 256" xml:space="preserve">
<g id="Layer_3">

		<radialGradient id="SVGID_1_" cx="162.0371" cy="741.3701" r="62.8662" gradientTransform="matrix(0.8931 0 0 0.0554 -1.5962 206.0522)" gradientUnits="userSpaceOnUse">
		<stop  offset="0.2151" style="stop-color:#231F20"/>
		<stop  offset="1" style="stop-color:#231F20;stop-opacity:0"/>
	</radialGradient>
	<path fill="url(#SVGID_1_)" fill-opacity="0.7" d="M202.354,247.297c0,3.048-39.807,5.519-88.905,5.519
		c-49.102,0-88.906-2.471-88.906-5.519c0-3.046,39.804-5.518,88.906-5.518C162.547,241.779,202.354,244.251,202.354,247.297z"/>

		<radialGradient id="SVGID_2_" cx="129.2041" cy="749.3945" r="88.6598" fx="179.2036" fy="736.8307" gradientTransform="matrix(0.8931 0 0 0.0554 -1.5962 206.0522)" gradientUnits="userSpaceOnUse">
		<stop  offset="0.2151" style="stop-color:#231F20"/>
		<stop  offset="1" style="stop-color:#231F20;stop-opacity:0"/>
	</radialGradient>
	<path fill="url(#SVGID_2_)" fill-opacity="0.4" d="M202.354,247.297c0,3.048-39.807,5.519-88.905,5.519
		c-49.102,0-88.906-2.471-88.906-5.519c0-3.046,39.804-5.518,88.906-5.518C162.547,241.779,202.354,244.251,202.354,247.297z"/>
</g>
<g id="Layer_1">
	<defs>
		<path id="SVGID_3_" d="M245.46,129.523l-97.891-96.898c-5.556-5.502-16.222-11.873-23.7-14.16L84.351,6.382
			c-7.479-2.286-18.096,0.391-23.599,5.948L47.311,25.908c-5.5,5.559-14.502,14.653-20.005,20.21l-13.44,13.579
			c-5.5,5.558-8.07,16.206-5.706,23.658l12.483,39.391c2.363,7.456,8.843,18.056,14.399,23.556l97.89,96.898
			c5.558,5.502,14.605,5.455,20.105-0.101l36.26-36.63c5.504-5.559,14.503-14.651,20.005-20.209l36.259-36.629
			C251.063,144.071,251.016,135.025,245.46,129.523z M67.375,78.783c-7.198,0-13.033-5.835-13.033-13.033
			c0-7.197,5.835-13.033,13.033-13.033c7.197,0,13.033,5.835,13.033,13.033C80.407,72.948,74.572,78.783,67.375,78.783z"/>
	</defs>
	<defs>
		<path id="SVGID_4_" d="M245.46,129.523l-97.891-96.898c-5.556-5.502-16.222-11.873-23.7-14.16L84.351,6.382
			c-7.479-2.286-18.096,0.391-23.599,5.948L47.311,25.908c-5.5,5.559-14.502,14.653-20.005,20.21l-13.44,13.579
			c-5.5,5.558-8.07,16.206-5.706,23.658l12.483,39.391c2.363,7.456,8.843,18.056,14.399,23.556l97.89,96.898
			c5.558,5.502,14.605,5.455,20.105-0.101l36.26-36.63c5.504-5.559,14.503-14.651,20.005-20.209l36.259-36.629
			C251.063,144.071,251.016,135.025,245.46,129.523z M67.375,78.783c-7.198,0-13.033-5.835-13.033-13.033
			c0-7.197,5.835-13.033,13.033-13.033c7.197,0,13.033,5.835,13.033,13.033C80.407,72.948,74.572,78.783,67.375,78.783z"/>
	</defs>
	<clipPath id="SVGID_5_">
		<use xlink:href="#SVGID_3_"  overflow="visible"/>
	</clipPath>
	<clipPath id="SVGID_6_" clip-path="url(#SVGID_5_)">
		<use xlink:href="#SVGID_4_"  overflow="visible"/>
	</clipPath>
	<g clip-path="url(#SVGID_6_)">
		<path fill="#39B54A" d="M245.46,129.523l-97.891-96.898c-5.556-5.502-16.222-11.873-23.7-14.16L84.351,6.382
			c-7.479-2.286-18.096,0.391-23.599,5.948L47.311,25.908c-5.5,5.559-14.502,14.653-20.005,20.21l-13.44,13.579
			c-5.5,5.558-8.07,16.206-5.706,23.658l12.483,39.391c2.363,7.456,8.843,18.056,14.399,23.556l97.89,96.898
			c5.558,5.502,14.605,5.455,20.105-0.101l36.26-36.63c5.504-5.559,14.503-14.651,20.005-20.209l36.259-36.629
			C251.063,144.071,251.016,135.025,245.46,129.523z M67.375,78.783c-7.198,0-13.033-5.835-13.033-13.033
			c0-7.197,5.835-13.033,13.033-13.033c7.197,0,13.033,5.835,13.033,13.033C80.407,72.948,74.572,78.783,67.375,78.783z"/>
		<linearGradient id="SVGID_7_" gradientUnits="userSpaceOnUse" x1="128.4692" y1="247.2969" x2="128.4692" y2="5.5654">
			<stop  offset="0" style="stop-color:#39B54A"/>
			<stop  offset="0.0817" style="stop-color:#45B748"/>
			<stop  offset="0.329" style="stop-color:#64BE44"/>
			<stop  offset="0.5693" style="stop-color:#7BC241"/>
			<stop  offset="0.7973" style="stop-color:#88C540"/>
			<stop  offset="1" style="stop-color:#8DC63F"/>
		</linearGradient>
		<path fill="url(#SVGID_7_)" d="M245.46,129.523l-97.891-96.898c-5.556-5.502-16.222-11.873-23.7-14.16L84.351,6.382
			c-7.479-2.286-18.096,0.391-23.599,5.948L47.311,25.908c-5.5,5.559-14.502,14.653-20.005,20.21l-13.44,13.579
			c-5.5,5.558-8.07,16.206-5.706,23.658l12.483,39.391c2.363,7.456,8.843,18.056,14.399,23.556l97.89,96.898
			c5.558,5.502,14.605,5.455,20.105-0.101l36.26-36.63c5.504-5.559,14.503-14.651,20.005-20.209l36.259-36.629
			C251.063,144.071,251.016,135.025,245.46,129.523z M67.375,78.783c-7.198,0-13.033-5.835-13.033-13.033
			c0-7.197,5.835-13.033,13.033-13.033c7.197,0,13.033,5.835,13.033,13.033C80.407,72.948,74.572,78.783,67.375,78.783z"/>
		<g opacity="0">
			<linearGradient id="SVGID_8_" gradientUnits="userSpaceOnUse" x1="128.4692" y1="247.2969" x2="128.4692" y2="5.5654">
				<stop  offset="0" style="stop-color:#006838"/>
				<stop  offset="0.0357" style="stop-color:#006838;stop-opacity:0.8587"/>
				<stop  offset="0.2527" style="stop-color:#006838;stop-opacity:0"/>
			</linearGradient>
			<path fill="url(#SVGID_8_)" d="M245.46,129.523l-97.891-96.898c-5.556-5.502-16.222-11.873-23.7-14.16L84.351,6.382
				c-7.479-2.286-18.096,0.391-23.599,5.948L47.311,25.908c-5.5,5.559-14.502,14.653-20.005,20.21l-13.44,13.579
				c-5.5,5.558-8.07,16.206-5.706,23.658l12.483,39.391c2.363,7.456,8.843,18.056,14.399,23.556l97.89,96.898
				c5.558,5.502,14.605,5.455,20.105-0.101l36.26-36.63c5.504-5.559,14.503-14.651,20.005-20.209l36.259-36.629
				C251.063,144.071,251.016,135.025,245.46,129.523z M67.375,78.783c-7.198,0-13.033-5.835-13.033-13.033
				c0-7.197,5.835-13.033,13.033-13.033c7.197,0,13.033,5.835,13.033,13.033C80.407,72.948,74.572,78.783,67.375,78.783z"/>
		</g>
	</g>
	<linearGradient id="SVGID_9_" gradientUnits="userSpaceOnUse" x1="136.6797" y1="229.4668" x2="136.6797" y2="39.9458">
		<stop  offset="0" style="stop-color:#E6E7E8"/>
		<stop  offset="1" style="stop-color:#FFFFFF"/>
	</linearGradient>
	<path clip-path="url(#SVGID_6_)" fill-rule="evenodd" clip-rule="evenodd" fill="url(#SVGID_9_)" d="M119.142,160.18
		c0.84,7.224,1.71,13.293,2.208,19.39c0.512,6.339,3.038,8.335,9.523,6.429c22.587-6.635,45.307-12.838,67.97-19.206
		c2.67-0.75,5.341-1.501,9.025-2.535c0.833,12.349,1.615,23.891,2.412,35.654c-1.142,0.599-1.95,1.211-2.854,1.465
		c-31.292,8.807-62.574,17.621-93.895,26.293c-3.664,1.014-7.543,1.427-11.355,1.697c-11.792,0.86-19.628-3.747-22.368-15.293
		c-3.292-13.876-5.288-28.087-7.257-42.242c-3.343-24.035-6.69-48.087-9.152-72.228c-2.001-19.593,5.288-30.714,24.121-36.498
		c25.428-7.81,51.072-15.024,76.851-21.607c18.449-4.705,27.947,1.101,31.71,19.9c3.24,16.215,5.159,32.819,6.165,49.337
		c1.003,16.504-5.839,25.949-21.635,31.218c-17.217,5.745-34.78,10.464-52.195,15.617
		C125.516,158.427,122.594,159.211,119.142,160.18z M114.544,128.743c13.178-3.704,25.534-6.922,37.661-10.851
		c1.854-0.599,3.891-4.542,3.736-6.795c-0.588-8.65-2.093-17.234-3.128-25.862c-0.501-4.16-2.669-5.014-6.397-3.938
		c-10.324,2.989-20.794,5.54-30.96,8.994c-2.189,0.75-4.88,4.648-4.722,6.915C111.436,107.372,113.087,117.475,114.544,128.743z"/>
	<g clip-path="url(#SVGID_6_)">
		<g opacity="0.1">
			<path fill="#231F20" d="M78.47,10.897c1.6,0,3.054,0.197,4.322,0.584l39.518,12.083c6.692,2.047,16.542,7.932,21.509,12.851
				l97.89,96.897c3.481,3.448,3.51,9.087,0.064,12.569l-36.259,36.629l-8.021,8.104l-11.983,12.105l-36.26,36.63
				c-1.67,1.688-3.913,2.616-6.315,2.616c-2.366,0-4.586-0.907-6.25-2.554l-97.89-96.898c-4.97-4.92-10.954-14.709-13.068-21.377
				L13.242,81.743c-1.771-5.582,0.292-14.131,4.413-18.295L31.095,49.87C36.598,44.312,45.6,35.218,51.1,29.659l13.44-13.577
				C67.563,13.029,73.292,10.897,78.47,10.897 M67.375,84.115c10.126,0,18.365-8.238,18.365-18.364s-8.238-18.365-18.365-18.365
				c-10.126,0-18.364,8.239-18.364,18.365S57.249,84.115,67.375,84.115 M78.47,5.565c-6.45,0-13.55,2.556-17.718,6.765
				L47.311,25.908c-5.5,5.559-14.502,14.653-20.005,20.21l-13.44,13.579c-5.5,5.558-8.07,16.206-5.706,23.658l12.483,39.391
				c2.363,7.456,8.843,18.056,14.399,23.556l97.89,96.898c2.76,2.732,6.382,4.097,10.001,4.097c3.669,0,7.336-1.4,10.104-4.197
				l36.26-36.63c5.504-5.559,14.503-14.651,20.005-20.209l36.259-36.629c5.501-5.561,5.454-14.606-0.102-20.108l-97.891-96.898
				c-5.556-5.502-16.222-11.873-23.7-14.16L84.351,6.382C82.537,5.828,80.536,5.565,78.47,5.565L78.47,5.565z M67.375,78.783
				c-7.198,0-13.033-5.835-13.033-13.033c0-7.197,5.835-13.033,13.033-13.033c7.197,0,13.033,5.835,13.033,13.033
				C80.407,72.948,74.572,78.783,67.375,78.783L67.375,78.783z"/>
		</g>
	</g>
	<g opacity="0.4" clip-path="url(#SVGID_6_)">
		<g>
			<path fill="#231F20" d="M67.375,47.386c-7.198,0-13.033,5.835-13.033,13.033c0,0.914,0.096,1.805,0.275,2.666
				c1.23-5.918,6.474-10.367,12.758-10.367s11.527,4.448,12.757,10.367c0.179-0.861,0.275-1.752,0.275-2.666
				C80.407,53.221,74.572,47.386,67.375,47.386z"/>
			<path opacity="0.1" fill="#231F20" d="M67.375,47.386c-7.198,0-13.033,5.835-13.033,13.033c0,0.914,0.096,1.805,0.275,2.666
				c1.23-5.918,6.474-10.367,12.758-10.367s11.527,4.448,12.757,10.367c0.179-0.861,0.275-1.752,0.275-2.666
				C80.407,53.221,74.572,47.386,67.375,47.386L67.375,47.386z"/>
		</g>
		<g>
			<path fill="#231F20" d="M245.562,144.301l-36.259,36.628c-5.502,5.558-14.501,14.65-20.005,20.209l-36.26,36.63
				c-5.5,5.556-14.548,5.603-20.105,0.102l-97.89-96.899c-5.556-5.5-12.036-16.099-14.399-23.556L8.16,78.023
				c-0.353-1.114-0.583-2.305-0.723-3.534c-0.328,3.11-0.124,6.193,0.723,8.866l12.483,39.391
				c2.363,7.456,8.843,18.056,14.399,23.556l97.89,96.898c5.558,5.502,14.605,5.455,20.105-0.101l36.26-36.63
				c5.504-5.559,14.503-14.651,20.005-20.209l36.259-36.629c3.403-3.439,4.677-8.212,3.844-12.657
				C248.896,139.659,247.616,142.223,245.562,144.301z"/>
			<path opacity="0.1" fill="#231F20" d="M7.437,74.489c-0.328,3.11-0.124,6.193,0.723,8.866l12.483,39.391
				c2.363,7.456,8.843,18.056,14.399,23.556l97.89,96.898c2.76,2.732,6.382,4.097,10.001,4.097c3.669,0,7.336-1.4,10.104-4.197
				l36.26-36.63c5.504-5.559,14.503-14.651,20.005-20.209l36.259-36.629c3.403-3.439,4.677-8.212,3.844-12.657
				c-0.509,2.685-1.789,5.248-3.844,7.326l-36.259,36.628c-5.502,5.558-14.501,14.65-20.005,20.209l-36.26,36.63
				c-2.769,2.796-6.437,4.197-10.104,4.197c-3.62,0-7.24-1.363-10.001-4.096l-97.89-96.899c-5.556-5.5-12.036-16.099-14.399-23.556
				L8.16,78.023C7.807,76.909,7.577,75.718,7.437,74.489L7.437,74.489z"/>
		</g>
	</g>
	<g clip-path="url(#SVGID_6_)">
		<path opacity="0.8" fill="#FFFFFF" d="M187.261,80.769c0,0-2.227-2.024-6.124-5.567c-3.88-3.561-9.403-8.667-15.961-14.864
			c-3.283-3.094-6.841-6.447-10.566-10.028c-3.734-3.574-7.686-7.33-11.722-11.266l-0.381-0.369l-0.146-0.138l-0.198-0.176
			l-0.795-0.707c-0.531-0.463-1.062-0.977-1.604-1.361c-0.538-0.414-1.077-0.829-1.619-1.245c-0.546-0.414-1.152-0.799-1.728-1.203
			c-2.324-1.609-4.821-3.044-7.361-4.411c-2.562-1.325-5.219-2.501-7.914-3.372c-2.868-0.866-5.746-1.735-8.625-2.604
			c-5.745-1.777-11.49-3.555-17.146-5.305c-2.83-0.869-5.631-1.748-8.395-2.631c-2.888-0.998-5.16-1.534-7.877-1.421
			c-5.245,0.162-10.465,1.958-14.076,5.054c-3.704,3.57-7.206,6.944-10.439,10.06c-6.494,6.264-11.967,11.424-15.81,15.024
			c-3.862,3.582-6.068,5.628-6.068,5.628c0,0,8.036-8.969,20.428-22.088c1.548-1.641,3.161-3.35,4.83-5.119
			c0.838-0.88,1.691-1.775,2.558-2.685c0.434-0.454,0.871-0.911,1.311-1.371c0.432-0.458,0.878-0.924,1.407-1.414
			c4.141-3.769,9.767-5.913,15.754-6.218c1.517-0.067,2.999-0.02,4.612,0.262c0.886,0.13,1.404,0.294,2.258,0.51
			c0.691,0.204,1.385,0.408,2.081,0.613c2.786,0.813,5.6,1.651,8.431,2.514c5.667,1.712,11.424,3.451,17.181,5.19
			c2.873,0.889,5.745,1.778,8.606,2.664c3.003,0.99,5.803,2.264,8.49,3.675c2.669,1.44,5.243,2.988,7.652,4.738
			c0.604,0.441,1.212,0.846,1.805,1.314c0.591,0.476,1.18,0.95,1.767,1.422c0.612,0.467,1.097,0.961,1.626,1.442l0.78,0.723
			l0.194,0.18l0.234,0.229l0.372,0.376c3.978,3.997,7.773,7.909,11.386,11.606c3.619,3.689,7.008,7.212,10.136,10.463
			c6.265,6.494,11.426,11.965,15.026,15.808C185.214,78.563,187.261,80.769,187.261,80.769z"/>
	</g>
	<g clip-path="url(#SVGID_6_)">
		<path opacity="0.2" fill="#FFFFFF" d="M54.342,142.385c0,0,0.719,0.587,2.066,1.688c1.33,1.118,3.317,2.721,5.772,4.835
			c2.465,2.104,5.479,4.64,8.858,7.625c3.398,2.967,7.234,6.313,11.361,10.021c8.267,7.402,17.797,16.154,27.872,25.669
			c2.512,2.386,5.065,4.812,7.649,7.267c2.581,2.46,5.188,4.954,7.793,7.492c2.607,2.535,5.236,5.09,7.875,7.655l1.97,1.937
			l0.986,0.969l0.247,0.243c0.167,0.157-0.159-0.147-0.102-0.096l0.064,0.058l0.13,0.115l0.518,0.459l0.129,0.115
			c0.035,0.028,0.048,0.027,0.071,0.043l0.125,0.074c0.085,0.053,0.15,0.108,0.241,0.172c0.255,0.122,0.479,0.301,0.744,0.403
			c0.509,0.243,1.048,0.432,1.606,0.543c2.236,0.501,4.697-0.133,6.343-1.687c2.571-2.542,5.132-5.074,7.673-7.587
			c2.58-2.563,5.155-5.09,7.715-7.572c2.559-2.482,5.087-4.935,7.573-7.347c9.977-9.618,19.419-18.466,27.61-25.95
			c4.091-3.748,7.891-7.134,11.261-10.133c3.351-3.019,6.338-5.585,8.783-7.712c2.436-2.138,4.406-3.761,5.726-4.892
			c1.337-1.113,2.05-1.707,2.05-1.707s-0.587,0.719-1.687,2.066c-1.117,1.331-2.72,3.318-4.832,5.775
			c-2.103,2.468-4.639,5.48-7.623,8.861c-2.964,3.401-6.312,7.235-10.018,11.363c-7.402,8.269-16.153,17.8-25.669,27.872
			c-2.387,2.511-4.813,5.063-7.269,7.647c-2.457,2.584-4.958,5.186-7.494,7.791c-1.266,1.306-2.536,2.617-3.81,3.933l-1.917,1.973
			l-0.966,0.982c-0.327,0.33-0.594,0.621-1.121,1.098c-3.715,3.527-9.209,5.008-14.193,3.909c-1.249-0.267-2.466-0.693-3.617-1.256
			c-0.585-0.262-1.122-0.62-1.676-0.94c-0.291-0.194-0.593-0.419-0.884-0.635l-0.436-0.332l-0.206-0.163l-0.129-0.115l-0.514-0.464
			l-0.419-0.387l-0.245-0.244l-0.979-0.977l-1.956-1.95c-2.592-2.612-5.174-5.215-7.735-7.797c-2.564-2.579-5.085-5.16-7.57-7.716
			c-2.482-2.56-4.933-5.088-7.345-7.575c-9.617-9.978-18.464-19.419-25.95-27.61c-3.75-4.089-7.134-7.891-10.135-11.259
			c-3.02-3.349-5.586-6.336-7.715-8.78c-2.139-2.434-3.761-4.405-4.893-5.723C54.936,143.098,54.342,142.385,54.342,142.385z"/>
	</g>
	<g clip-path="url(#SVGID_6_)">
		<g opacity="0.1">
			<path d="M67.375,52.718c7.197,0,13.033,5.835,13.033,13.033c0,7.198-5.835,13.033-13.033,13.033
				c-7.198,0-13.033-5.835-13.033-13.033C54.342,58.553,60.177,52.718,67.375,52.718 M67.375,42.054
				c-13.066,0-23.696,10.63-23.696,23.696s10.63,23.696,23.696,23.696s23.696-10.63,23.696-23.696S80.441,42.054,67.375,42.054
				L67.375,42.054z"/>
		</g>
	</g>
	<g clip-path="url(#SVGID_6_)">
		<g>
			<g opacity="0.3">
				<path d="M67.375,58.049c7.197,0,13.033,5.835,13.033,13.033c0,7.198-5.835,13.033-13.033,13.033
					c-7.198,0-13.033-5.835-13.033-13.033C54.342,63.885,60.177,58.049,67.375,58.049 M67.375,49.163
					c-12.086,0-21.919,9.833-21.919,21.919c0,12.085,9.833,21.919,21.919,21.919s21.919-9.834,21.919-21.919
					C89.293,58.996,79.46,49.163,67.375,49.163L67.375,49.163z"/>
			</g>
			<linearGradient id="SVGID_10_" gradientUnits="userSpaceOnUse" x1="67.3745" y1="87.6694" x2="67.3745" y2="43.8315">
				<stop  offset="0" style="stop-color:#777777"/>
				<stop  offset="0.2068" style="stop-color:#7C7C7C"/>
				<stop  offset="0.4394" style="stop-color:#898989"/>
				<stop  offset="0.6845" style="stop-color:#A0A0A0"/>
				<stop  offset="0.9368" style="stop-color:#BFBFBF"/>
				<stop  offset="1" style="stop-color:#C8C8C8"/>
			</linearGradient>
			<path fill="url(#SVGID_10_)" d="M67.375,52.718c7.197,0,13.033,5.835,13.033,13.033c0,7.198-5.835,13.033-13.033,13.033
				c-7.198,0-13.033-5.835-13.033-13.033C54.342,58.553,60.177,52.718,67.375,52.718 M67.375,43.832
				c-12.086,0-21.919,9.833-21.919,21.919c0,12.085,9.833,21.919,21.919,21.919s21.919-9.834,21.919-21.919
				C89.293,53.665,79.46,43.832,67.375,43.832L67.375,43.832z"/>
		</g>
	</g>
	<g clip-path="url(#SVGID_6_)">
		<path fill="#E9E6DD" d="M67.375,55.888c5.447,0,9.862,4.416,9.862,9.862s-4.415,9.863-9.862,9.863s-9.863-4.417-9.863-9.863
			S61.927,55.888,67.375,55.888 M67.375,49.164c-9.146,0-16.587,7.441-16.587,16.587c0,9.145,7.441,16.587,16.587,16.587
			c9.146,0,16.587-7.442,16.587-16.587C83.961,56.605,76.52,49.164,67.375,49.164L67.375,49.164z"/>
		<g>
			<linearGradient id="SVGID_11_" gradientUnits="userSpaceOnUse" x1="67.3745" y1="82.3379" x2="67.3745" y2="49.1636">
				<stop  offset="0" style="stop-color:#C8C8C8"/>
				<stop  offset="0.0632" style="stop-color:#BFBFBF"/>
				<stop  offset="0.3155" style="stop-color:#A0A0A0"/>
				<stop  offset="0.5606" style="stop-color:#898989"/>
				<stop  offset="0.7932" style="stop-color:#7C7C7C"/>
				<stop  offset="1" style="stop-color:#777777"/>
			</linearGradient>
			<path fill="url(#SVGID_11_)" d="M67.375,55.888c5.447,0,9.862,4.416,9.862,9.862s-4.415,9.863-9.862,9.863
				s-9.863-4.417-9.863-9.863S61.927,55.888,67.375,55.888 M67.375,49.164c-9.146,0-16.587,7.441-16.587,16.587
				c0,9.145,7.441,16.587,16.587,16.587c9.146,0,16.587-7.442,16.587-16.587C83.961,56.605,76.52,49.164,67.375,49.164
				L67.375,49.164z"/>
		</g>
	</g>

		<path clip-path="url(#SVGID_6_)" fill="none" stroke="#231F20" stroke-width="5.3318" stroke-linecap="round" stroke-opacity="0.3" d="
		M69.43,72.868c-49.763,33.546-41.451,138.446-6.351,143.035"/>
	<g clip-path="url(#SVGID_6_)">
		<g opacity="0.6">
			<path fill="#FFFFFF" d="M83.961,65.75c0,0-0.027-0.202-0.078-0.582c-0.067-0.375-0.085-0.948-0.265-1.63
				c-0.079-0.341-0.165-0.719-0.26-1.13c-0.13-0.402-0.27-0.836-0.42-1.301c-0.158-0.459-0.39-0.925-0.597-1.425
				c-0.223-0.494-0.52-0.983-0.792-1.507c-0.633-1.001-1.37-2.05-2.313-3.012c-0.902-0.999-2.045-1.852-3.253-2.651
				c-1.227-0.79-2.628-1.351-4.069-1.818c-1.44-0.427-3.045-0.614-4.496-0.645c-1.691,0.037-3.095,0.218-4.585,0.646
				c-1.44,0.47-2.842,1.028-4.068,1.819c-1.209,0.799-2.351,1.652-3.253,2.65c-0.942,0.961-1.678,2.011-2.312,3.011
				c-0.272,0.524-0.569,1.013-0.792,1.507c-0.207,0.5-0.439,0.965-0.598,1.424c-0.15,0.464-0.291,0.899-0.42,1.301
				c-0.095,0.413-0.182,0.792-0.261,1.135c-0.18,0.688-0.198,1.247-0.266,1.624c-0.051,0.38-0.078,0.583-0.078,0.583
				s-0.006-0.204-0.019-0.586c0.01-0.381-0.083-0.953,0.011-1.667c0.032-0.36,0.068-0.759,0.107-1.193
				c0.084-0.429,0.175-0.894,0.273-1.39c0.11-0.495,0.294-1.003,0.454-1.553c0.176-0.544,0.449-1.083,0.688-1.666
				c0.293-0.555,0.598-1.141,0.959-1.718c0.393-0.555,0.768-1.16,1.262-1.694c0.909-1.139,2.08-2.163,3.387-3.077
				c1.318-0.905,2.824-1.631,4.427-2.151c1.585-0.495,3.428-0.738,4.992-0.777c1.804,0.046,3.447,0.283,5.082,0.777
				c1.602,0.523,3.108,1.247,4.426,2.152c1.307,0.914,2.477,1.939,3.386,3.077c0.494,0.535,0.87,1.139,1.262,1.695
				c0.361,0.577,0.666,1.163,0.959,1.717c0.239,0.583,0.513,1.121,0.688,1.666c0.16,0.55,0.344,1.058,0.454,1.553
				c0.098,0.496,0.188,0.96,0.273,1.39c0.04,0.436,0.076,0.837,0.108,1.199c0.094,0.719,0.001,1.277,0.011,1.661
				C83.968,65.546,83.961,65.75,83.961,65.75z"/>
		</g>
	</g>
</g>
<g id="Layer_2">
	<g>
		<path fill="#231F20" d="M63.255,174.228c-0.938,10.178-4.014,26.452-13.949,35.368c-4.674,4.193-10.322,6.308-16.834,6.308
			c-1.382,0-2.804-0.096-4.263-0.287c-8.968-1.171-15.126-7.805-17.808-19.182C2.383,162.438,26.194,96.403,64.386,70.658
			c1.222-0.823,2.878-0.499,3.7,0.721c0.824,1.22,0.501,2.878-0.72,3.701c-38.153,25.718-58.625,91.091-51.776,120.131
			c2.16,9.16,6.638,14.246,13.309,15.119c6.806,0.889,12.32-0.647,16.839-4.696c10.111-9.065,12.113-28.142,12.498-36.373"/>
	</g>
</g>
</svg>
