/* XPM */
static char *easytag[] = {
/* columns rows colors chars-per-pixel */
"32 32 171 2",
"   c #22A322A30D4D",
".  c #2C2C2C2C10D1",
"X  c #3C523B66152B",
"o  c #42823EFF13D4",
"O  c #458542D81657",
"+  c #42634263195A",
"@  c #47C846C719DA",
"#  c #51D24E8E19DA",
"$  c #515151511F1F",
"%  c #594456161C47",
"&  c #5EDF5A9A1C9D",
"*  c #60205CDD1EDF",
"=  c #4CCD498924A5",
"-  c #553554F42080",
";  c #5C9C58D92D2D",
":  c #549452123535",
">  c #60205E9E22A3",
",  c #65C564A424C5",
"<  c #6BEC67A723E4",
"1  c #6B6B6A2A2626",
"2  c #6BEC6BAB28A9",
"3  c #71316DEE24E5",
"4  c #74B472322747",
"5  c #7AFB75B62545",
"6  c #75E674742A7A",
"7  c #79B973732DEE",
"8  c #6BEC682830F1",
"9  c #77B773333777",
"0  c #7ABB75F53C3C",
"q  c #64E561A14444",
"w  c #6E2E6A2A4404",
"e  c #7A3A75754141",
"r  c #82977E932AAA",
"t  c #8A0A7DFE27A8",
"y  c #850582E32ECF",
"u  c #8C0C86062A80",
"i  c #8FCF8B4B2D6D",
"p  c #903B8A4A2BD6",
"a  c #9BAB92422C0C",
"s  c #90108DCD3232",
"d  c #9ABA96E733C4",
"f  c #90D0911138B9",
"g  c #9DDD9B5B3939",
"h  c #A262979729AA",
"j  c #A7679E5E2F6F",
"k  c #A9E99F9F2D2D",
"l  c #A3239CFD33B3",
"z  c #B0509D9E3313",
"x  c #AE2EA1612BAC",
"c  c #A707A12034D5",
"v  c #AD4DA6863596",
"b  c #A5C5A2823959",
"n  c #ABC1A9543D3D",
"m  c #B131A7E735B6",
"M  c #BE0DA1513586",
"N  c #BFFFA1E13979",
"B  c #B070AC6C3BFC",
"V  c #BD1DB37336D7",
"C  c #B5F5B2073DD3",
"Z  c #BA59B5953DDE",
"A  c #C242B5753333",
"S  c #C282B8B836F7",
"D  c #C9C9B7373EFF",
"F  c #C491BBFB3B3B",
"G  c #CB0AB8B83D7D",
"H  c #CFCFC1813575",
"J  c #D9D9C7873777",
"K  c #D817CACA3A7A",
"L  c #DB1ACC8C3939",
"P  c #DF3FD0F03BBC",
"I  c #F373E1613CBD",
"U  c #874781414404",
"Y  c #96968FCF4D0D",
"T  c #9B5B8FCF4D0D",
"R  c #93138D0D5616",
"E  c #9C5C94D45595",
"W  c #A52595154343",
"Q  c #A3029B5B4EAF",
"!  c #A2229B1B5A9A",
"~  c #A868A1214101",
"^  c #AB4AAB0A40A0",
"/  c #A9E9A2374D22",
"(  c #AF6FAF6F4808",
")  c #BA3AB6F640C1",
"_  c #BC7CBA3A44C5",
"`  c #B4B4AC6C5B1B",
"'  c #B9B9B0F054D5",
"]  c #B8B8B0705B9B",
"[  c #BF7FBFFF5CDD",
"{  c #C181B1F14ACB",
"}  c #C040BDFD4888",
"|  c #C7C7BE7E61E2",
" . c #8000E2A25F1F",
".. c #BEFEE0E05717",
"X. c #CCECC5243FE0",
"o. c #C545C4444949",
"O. c #C9C9C1C147C8",
"+. c #DC9CD2524141",
"@. c #D656D4134CED",
"#. c #DAFAD4344828",
"$. c #CA4AC0C05191",
"%. c #CDCDC4035B1B",
"&. c #D9D9CECE5C9C",
"*. c #D00FD0D05191",
"=. c #DF1EDF1E5454",
"-. c #E0E0C6464141",
";. c #E1E1D6C14197",
":. c #E464DADA4646",
">. c #E363D8174949",
",. c #FFFFD7974747",
"<. c #F676D8D84545",
"1. c #FF8ADC5146BC",
"2. c #FFEDD74448AD",
"3. c #F555DABA4868",
"4. c #FEB7DC3D4AC4",
"5. c #E767DB5B5B1B",
"6. c #F5F5DF9F5B1B",
"7. c #EE4EE1A142E3",
"8. c #EF6FE3024A2A",
"9. c #F7F7E3A34787",
"0. c #FD2DE22144D4",
"q. c #FD64EDD244AC",
"w. c #F373E4134B6B",
"e. c #FE68E52F4C57",
"r. c #F55FEA954BB6",
"t. c #FD38EDF64A86",
"y. c #FC79F18F4C95",
"u. c #E868E7265595",
"i. c #ED2CEB405681",
"p. c #E363E4235898",
"a. c #EECEEECE5B3B",
"s. c #F308E3CE53D4",
"d. c #FE48E51A5292",
"f. c #F525ED4D5232",
"g. c #FCFCE9695555",
"h. c #F5F5E1A15D1D",
"j. c #FEBEE6865C7C",
"k. c #FBE6EF995BB1",
"l. c #FB8FF409534D",
"z. c #F635F5B55E1E",
"x. c #FB3AF5C75A1D",
"c. c #FA0CF8C15D5D",
"v. c #D454CA4A6424",
"b. c #D918CE0D66E7",
"n. c #E01FD4946525",
"m. c #DEDEDF1E7474",
"M. c #EA6ADE1D69A9",
"N. c #FDCAE4F164E5",
"B. c #FDE8EC3663EE",
"V. c #F433E6666CAC",
"C. c #F5F5EA096B8C",
"Z. c #FD7DEE4E6C0C",
"A. c #FBA1F64F6431",
"S. c #FA29FA296242",
"D. c #F6F6F4746AAA",
"F. c #FD13F2A06B5A",
"G. c #FBFBF8F86D83",
"H. c #F635E8E870B0",
"J. c #FC3BEDAD7535",
"K. c #F676F0B07131",
"L. c #FDFDF1B171F2",
"P. c #FB1AF9F97515",
"I. c #FAFAFA497CBC",
"U. c #FD3CEFEF81C1",
"Y. c #FAFAF77783C3",
"T. c #FB0FFB018375",
"R. c #FC3BF6358ACA",
"E. c #FBABFC068C41",
"W. c #FBC8FC95945B",
"Q. c #FB5AFC9C9898",
"!. c None",
/* pixels */
"!.!.!.!.!.!.!.!.!.!.!.!.!.!.!.!.!.!.!.!.!.!.!.!.!.!.!.!.!.!.!.!.",
"!.!.!.!.!.!.!.!.!.!.!.!.!.!.!.!.!.!.!.!.!.!.!.!.!.!.!.!.!.!.!.!.",
"!.!.!.!.!.!.!.!.!.!.!.!.!.!.!.!.!.!.!.!.!.!.!.!.!.!.!.!.!.!.!.!.",
"!.!.!.!.!.!.!.!.!.!.!.!.!.!.!.!.!.!.!.!.!.!.!.!.!.!.!.!.!.!.!.!.",
"!.!.!.!.!.!.!.!.!.!.!.!.!.!.!.!.!.!.!.!.!.!.!.!.!.!.!.!.!.!.!.!.",
"!.!.!.!.!.!.!.!.!.!.!.!.!.!.!.!.!.!.!.!.!.!.!.!.!.!.!.!.!.!.!.!.",
"!.!.!.!.!.!.!.!.!.!.!.!.!.!.!.!.!.!.!.!.!.!.,.,.1.1.1.1.,.!.!.!.",
"!.!.!.!.!.!.!.!.!.M 2.4.4.4.e.e.e.e.3.e.t.t.t.y.q.q.q.q.1.!.!.!.",
"!.!.2.j.B.Z.F.F.N.F.G.A.A.x.l.l.l.l.w.t.y.y.y.t.t.q.q.q.0.!.!.!.",
"!.!.4.E.W.E.E.T.V.L.G.A.A.x.l.l.l.l.w.e.y.y.y.t.q.q.q.q.q.,.!.!.",
"!.!.d.Q.W.E.T.T.V.Z.G.A.x.l.l.l.l.l.r.e.y.y.y.t.q.q.q.q.q.0.!.!.",
"!.!.J.Q.W.E.T.I.K.F.A.x.x.l.f.l.l.l.y.y.;.+.r.7.;.7.P A H J M !.",
"!.N W.W.E.E.T.I.P.D.g s b Z r l.F F l m l V F u p a k a h x 1.!.",
"!.N.Q.W.E.T.T.I.P.k.l d b Z d f.c d l a z F ;.S F K P L q.I 0.!.",
"!.U.Q.W.E.T.I.P.S.f.D @.f.l.l.l.l.y.y.y.<.t.t.t.q.q.q.8.s.k.d.!.",
"!.R.W.E.E.T.P.S.c.x.3.l.l.l.l.l.l.X.c a t 9.V j t.s.e Q q M.j.!.",
"!.Y.E.m.[ ( ^ c.c.x.w.e.l.l.l.l.l.# p & u M 5 = k./ Q F.n.b.d.!.",
"!.x.S.f + ^ - @.x.i.x.-.d C 4 Z % l X.% y.9.7 9 $.U ' F.` ! 4.!.",
"!.g.S.*.- 6 a.u., , n < B r u l 5 y.:.O y.>.; 0 0 / Y F.| E ,.!.",
"!.2.c.p.. $ u.i.n 1 y ) X X #.O r y.8.o y.~ { B.: &.w ] R T !.!.",
"!.!.g.a.+ =.o.4 @ n 4 6 G % r.* v y.v + O.8 W 5./ %.C.v.H. .!.!.",
"!.!.4.}   2 X _ > y 6 C z #.l.p w.y.l.l.x.x.6.B.A.F.F.L.L...!.!.",
"!.!.!.s.z.c.c.c.x.x.x.l.3.l.3 i y.l.l.l.x.x.h.B.B.B.N.N.N.4.!.!.",
"!.!.!.4.c.c.c.x.x.x.l.l.3.e.e.e.e.e.4.4.4.2.M !.!.!.!.!.!.!.!.!.",
"!.!.!.2.d.d.e.4.4.2.2.!.!.!.!.!.!.!.!.!.!.!.!.!.!.!.!.!.!.!.!.!.",
"!.!.!.!.!.!.!.!.!.!.!.!.!.!.!.!.!.!.!.!.!.!.!.!.!.!.!.!.!.!.!.!.",
"!.!.!.!.!.!.!.!.!.!.!.!.!.!.!.!.!.!.!.!.!.!.!.!.!.!.!.!.!.!.!.!.",
"!.!.!.!.!.!.!.!.!.!.!.!.!.!.!.!.!.!.!.!.!.!.!.!.!.!.!.!.!.!.!.!.",
"!.!.!.!.!.!.!.!.!.!.!.!.!.!.!.!.!.!.!.!.!.!.!.!.!.!.!.!.!.!.!.!.",
"!.!.!.!.!.!.!.!.!.!.!.!.!.!.!.!.!.!.!.!.!.!.!.!.!.!.!.!.!.!.!.!.",
"!.!.!.!.!.!.!.!.!.!.!.!.!.!.!.!.!.!.!.!.!.!.!.!.!.!.!.!.!.!.!.!.",
"!.!.!.!.!.!.!.!.!.!.!.!.!.!.!.!.!.!.!.!.!.!.!.!.!.!.!.!.!.!.!.!."
};
