/* XPM */
static char * easytag_32x32_xpm[] = {
"32 32 325 2",
"  	c #FFFFFF",
". 	c #FFFFFE",
"+ 	c #FFFDF4",
"@ 	c #FFFBE9",
"# 	c #FFF8DD",
"$ 	c #FFF6D1",
"% 	c #FFF4C6",
"& 	c #FFF1BA",
"* 	c #FFEEA6",
"= 	c #FFF6D0",
"- 	c #FFFEFC",
"; 	c #FFFCEF",
"> 	c #FFF9E2",
", 	c #FFF7D7",
"' 	c #FFF5CB",
") 	c #FFF2BF",
"! 	c #FFF0B0",
"~ 	c #FEED9E",
"{ 	c #FEEA8E",
"] 	c #FEE87F",
"^ 	c #FEE674",
"/ 	c #FEE369",
"( 	c #FEE161",
"_ 	c #FDE15D",
": 	c #FEE25F",
"< 	c #FDE15B",
"[ 	c #FEE35B",
"} 	c #FEE45A",
"| 	c #FDE557",
"1 	c #FDE652",
"2 	c #FEE64D",
"3 	c #FDE547",
"4 	c #FEE745",
"5 	c #FEE676",
"6 	c #FFF8DA",
"7 	c #FDE465",
"8 	c #FEE463",
"9 	c #FDE360",
"0 	c #FEE45E",
"a 	c #FDE660",
"b 	c #FCE256",
"c 	c #FCE558",
"d 	c #FCEB59",
"e 	c #FCEB53",
"f 	c #FCED52",
"g 	c #FCEE52",
"h 	c #FCF052",
"i 	c #FCF152",
"j 	c #FBF251",
"k 	c #FCF350",
"l 	c #FDEC4D",
"m 	c #FDE74C",
"n 	c #FCF14D",
"o 	c #FCF14B",
"p 	c #FDF04A",
"q 	c #FDF049",
"r 	c #FDEF48",
"s 	c #FDEF46",
"t 	c #FDEE45",
"u 	c #FEED44",
"v 	c #FEED43",
"w 	c #FEE15C",
"x 	c #FFF2BC",
"y 	c #FAEE5C",
"z 	c #F9FB62",
"A 	c #F9FA61",
"B 	c #F9FA60",
"C 	c #FAF95F",
"D 	c #FAF85D",
"E 	c #FCED55",
"F 	c #FCED54",
"G 	c #FAF75A",
"H 	c #FBF658",
"I 	c #FBF657",
"J 	c #FBF556",
"K 	c #FBF555",
"L 	c #FBF453",
"M 	c #FBF452",
"N 	c #FCF351",
"O 	c #FCEF4E",
"P 	c #FEE44B",
"Q 	c #FCF14C",
"R 	c #FDEF47",
"S 	c #FEE551",
"T 	c #FFF4C7",
"U 	c #FEED99",
"V 	c #FAF35D",
"W 	c #FBF258",
"X 	c #FDE851",
"Y 	c #FCF24F",
"Z 	c #FEE54B",
"` 	c #FEEA43",
" .	c #FFE46D",
"..	c #FEE469",
"+.	c #F9FA63",
"@.	c #F9FB63",
"#.	c #FAF85E",
"$.	c #FAF85C",
"%.	c #FBF056",
"&.	c #FBF659",
"*.	c #FBF454",
"=.	c #FCF250",
"-.	c #FCF14E",
";.	c #FDF04B",
">.	c #FDEF49",
",.	c #FDEE46",
"'.	c #FEED45",
").	c #FEEC42",
"!.	c #FEE258",
"~.	c #FFFBEA",
"{.	c #FDE561",
"].	c #F9FB64",
"^.	c #FAF75B",
"/.	c #FAF559",
"(.	c #FCF14F",
"_.	c #F9E944",
":.	c #FDE546",
"<.	c #FFF0B2",
"[.	c #FFF3C4",
"}.	c #FBED5D",
"|.	c #FDE54F",
"1.	c #E8E250",
"2.	c #C7C343",
"3.	c #C7C143",
"4.	c #CAC443",
"5.	c #E5DD4A",
"6.	c #D1C842",
"7.	c #D2CA42",
"8.	c #DAC13F",
"9.	c #A39A31",
"0.	c #FAED4A",
"a.	c #A9A132",
"b.	c #CEC23C",
"c.	c #A39A2E",
"d.	c #A89E2E",
"e.	c #A79C2E",
"f.	c #DBCC3B",
"g.	c #FEE942",
"h.	c #FEE884",
"i.	c #FEEEA4",
"j.	c #FBF35D",
"k.	c #FCF256",
"l.	c #EBE550",
"m.	c #B8B33E",
"n.	c #BBB63F",
"o.	c #CDC744",
"p.	c #DED647",
"q.	c #C9C140",
"r.	c #C4BC3D",
"s.	c #DACF43",
"t.	c #CFB83C",
"u.	c #F5E948",
"v.	c #DCD140",
"w.	c #E5D842",
"x.	c #EEE142",
"y.	c #DED13E",
"z.	c #ECDD40",
"A.	c #FEE943",
"B.	c #FEEA8F",
"C.	c #FEEC96",
"D.	c #FAF55F",
"E.	c #FEE34E",
"F.	c #EFE94F",
"G.	c #989231",
"H.	c #85802A",
"I.	c #E8DE48",
"J.	c #ECD445",
"K.	c #67601F",
"L.	c #F3E546",
"M.	c #766F21",
"N.	c #C5B936",
"O.	c #625B1B",
"P.	c #FEE546",
"Q.	c #FFF0B1",
"R.	c #FFF3BF",
"S.	c #FBEE5F",
"T.	c #F9FB65",
"U.	c #D7D956",
"V.	c #7A7B30",
"W.	c #9D9E3D",
"X.	c #77772E",
"Y.	c #F0EE5A",
"Z.	c #F6F45B",
"`.	c #F0ED58",
" +	c #E7D349",
".+	c #C1BB42",
"++	c #C7C244",
"@+	c #AFAB3C",
"#+	c #C5C042",
"$+	c #9E9935",
"%+	c #ADA738",
"&+	c #7A7627",
"*+	c #D3CB42",
"=+	c #DAD144",
"-+	c #9B932F",
";+	c #9C942E",
">+	c #C1B738",
",+	c #BDB337",
"'+	c #B3A933",
")+	c #E5D73F",
"!+	c #827923",
"~+	c #BBAE32",
"{+	c #FEEC43",
"]+	c #FEE357",
"^+	c #FFFAE7",
"/+	c #FFFCF0",
"(+	c #808132",
"_+	c #A0A13E",
":+	c #9B9A3B",
"<+	c #E5E356",
"[+	c #71702A",
"}+	c #6D6C28",
"|+	c #EEEB57",
"1+	c #79772B",
"2+	c #B5B13F",
"3+	c #CAC546",
"4+	c #817E2C",
"5+	c #BFB940",
"6+	c #CCC643",
"7+	c #FCF352",
"8+	c #7B7627",
"9+	c #6F6A22",
"0+	c #B0A534",
"a+	c #716B21",
"b+	c #E1D441",
"c+	c #837C25",
"d+	c #887F25",
"e+	c #D6C739",
"f+	c #FEE15F",
"g+	c #FEE778",
"h+	c #FAF762",
"i+	c #8B8C37",
"j+	c #D0D151",
"k+	c #B1B044",
"l+	c #BCBB48",
"m+	c #8D8C34",
"n+	c #78782C",
"o+	c #ACAA3F",
"p+	c #A2A03A",
"q+	c #B4A63A",
"r+	c #939033",
"s+	c #D3CD48",
"t+	c #56531D",
"u+	c #D5CD45",
"v+	c #57541C",
"w+	c #B1AA38",
"x+	c #B9B13A",
"y+	c #D2BF3E",
"z+	c #7F7525",
"A+	c #B6AD35",
"B+	c #C4B938",
"C+	c #9E952C",
"D+	c #BFB335",
"E+	c #EBDC40",
"F+	c #FEEA44",
"G+	c #FCEA60",
"H+	c #E8EB5D",
"I+	c #6E6F2B",
"J+	c #9A9B3C",
"K+	c #96963A",
"L+	c #C0C049",
"M+	c #949437",
"N+	c #A2A03B",
"O+	c #9F9E3A",
"P+	c #B1AE3F",
"Q+	c #A99B35",
"R+	c #B6AE3D",
"S+	c #B3AF3D",
"T+	c #9D9935",
"U+	c #FBF554",
"V+	c #FBF352",
"W+	c #FCF24D",
"X+	c #FEEB4B",
"Y+	c #FEE74A",
"Z+	c #FDF048",
"`+	c #FEEE46",
" @	c #FEEE45",
".@	c #FEE845",
"+@	c #FFEEA7",
"@@	c #FEE260",
"#@	c #F9FC64",
"$@	c #F9FB61",
"%@	c #FAF95D",
"&@	c #FAF85B",
"*@	c #FCEC52",
"=@	c #F5E650",
"-@	c #D2CE48",
";@	c #FBF353",
">@	c #FBF151",
",@	c #FCEE4F",
"'@	c #FCED4E",
")@	c #FDEB4D",
"!@	c #FCE84C",
"~@	c #FDE550",
"{@	c #FDE151",
"]@	c #FDE559",
"^@	c #FDE35A",
"/@	c #FEE25B",
"(@	c #FEE15B",
"_@	c #FEE160",
":@	c #FFF5CC",
"<@	c #FEE983",
"[@	c #FBF15B",
"}@	c #FBF25B",
"|@	c #FBF059",
"1@	c #FBED5B",
"2@	c #FBE95D",
"3@	c #FCE95F",
"4@	c #FCE760",
"5@	c #FEE55E",
"6@	c #FDE25E",
"7@	c #FEE15D",
"8@	c #FEE366",
"9@	c #FEE673",
"0@	c #FEED9D",
"a@	c #FFEFAE",
"b@	c #FFF7D6",
"c@	c #FFFCEE",
"d@	c #FFFEFB",
"e@	c #FFF6D2",
"f@	c #FEEC97",
"g@	c #FFEFA7",
"h@	c #FFF1B9",
"i@	c #FFF4C5",
"j@	c #FFFAE8",
"                                                                ",
"                                                                ",
"                                                                ",
"                                                                ",
"                                                                ",
"                                                                ",
"                                                                ",
"                                          . + @ # $ % & * =     ",
"            - ; > , ' ) ! ~ { ] ^ / ( _ : < [ } | 1 2 3 4 5     ",
"  6 / 7 8 9 0 a b c d e f g h i j k l m n o p q r s t u v w .   ",
"  x y z A B C D E F G H I J K L M N O P n Q p q r R t u v S T   ",
"  U V z A B C D W X G H I J K L M N Y Z n Q p q r R t u v `  .  ",
"  ..+.@.A B C #.$.%.G &.I J K *.L N =.Y -.Q ;.p >.R ,.'.u ).!.~.",
"+ {.].@.A B C #.$.^./.&.I J K *.L N =.(.Z Q ;.p >.R ,._.u ).:.<.",
"[.}.].@.A B C #.$.W |.&.I 1.2.3.4.5.6.7.8.9.0.a.b.c.d.e.f.).g.h.",
"i.j.].@.A B C #.$.^.|.k.I l.m.n.o.p.q.r.s.t.u.v.w.x.y.z.u ).A.B.",
"C.D.].@.A B C #.$.^./.E.I J K *.F.G.H.H.I.J.K.p L.M.N.O.u ).P.Q.",
"R.S.T.U.V.W.X.Y.Z.`.^. +.+++@+#+$+%+&+*+=+-+;+>+,+'+)+!+~+{+]+^+",
"/+{.T.@.(+_+:+<+[+}+|+1+2+3+4+5+6+7+8+Y -.9+0+a+b+c+,.d+e+{+f+  ",
"  g+h+].i+j+k+l+m+n+o+p+q+r+s+t+*.u+v+w+x+9+y+z+A+B+C+D+E+F+h.  ",
"  = G+H+I+J+K+L+M+N+O+P+Q+R+S+T+U+V+N k Y W+X+Y+p Z+R `+ @.@+@  ",
"    @@#@z $@B C %@$.&@G *@=@-@K ;@>@,@'@)@!@~@{@]@^@/@(@f+_@:@  ",
"    <@[@}@|@1@2@3@4@5@6@/@7@8@/ 9@] { 0@a@) ' b@> c@d@          ",
"    e@f@g@h@i@$ # j@+ .                                         ",
"                                                                ",
"                                                                ",
"                                                                ",
"                                                                ",
"                                                                ",
"                                                                ",
"                                                                ",
"                                                                "};
