/* XPM */
static char * add_xpm[] = {
"20 20 189 2",
"  	c None",
". 	c #000000",
"+ 	c #222221",
"@ 	c #28261D",
"# 	c #272419",
"$ 	c #251F10",
"% 	c #0C0A05",
"& 	c #020202",
"* 	c #CCC9B9",
"= 	c #F1DF9F",
"- 	c #EACF82",
"; 	c #DBAC44",
"> 	c #493916",
", 	c #CABF95",
"' 	c #EED680",
") 	c #E4C059",
"! 	c #D1940C",
"~ 	c #463104",
"{ 	c #514F44",
"] 	c #A39D83",
"^ 	c #E5DDBA",
"/ 	c #A37309",
"( 	c #6C4C05",
"_ 	c #23221D",
": 	c #AEA88C",
"< 	c #EFDC96",
"[ 	c #AC7909",
"} 	c #2F2102",
"| 	c #151515",
"1 	c #A9A181",
"2 	c #EED888",
"3 	c #E1BE59",
"4 	c #A2730A",
"5 	c #302509",
"6 	c #4B4E4B",
"7 	c #5F655F",
"8 	c #192A19",
"9 	c #AAA17C",
"0 	c #B69E54",
"a 	c #574D27",
"b 	c #556355",
"c 	c #2D3E2D",
"d 	c #5F625F",
"e 	c #646A64",
"f 	c #708270",
"g 	c #4F5E4F",
"h 	c #142D14",
"i 	c #10300A",
"j 	c #5E5B45",
"k 	c #818F81",
"l 	c #96AA96",
"m 	c #6A846A",
"n 	c #546654",
"o 	c #334433",
"p 	c #343634",
"q 	c #797E79",
"r 	c #848F84",
"s 	c #557255",
"t 	c #1A431A",
"u 	c #042304",
"v 	c #001C00",
"w 	c #135813",
"x 	c #859485",
"y 	c #ACBEAC",
"z 	c #A0B4A0",
"A 	c #8BA28B",
"B 	c #748C74",
"C 	c #657D65",
"D 	c #344134",
"E 	c #7B7E7B",
"F 	c #BFCABF",
"G 	c #A9B6A9",
"H 	c #687F68",
"I 	c #3A5E3A",
"J 	c #2F582F",
"K 	c #2C572C",
"L 	c #426E42",
"M 	c #98AF98",
"N 	c #94AC94",
"O 	c #87A087",
"P 	c #779477",
"Q 	c #799479",
"R 	c #758D75",
"S 	c #293B29",
"T 	c #696D69",
"U 	c #BAC2BA",
"V 	c #E5EBE5",
"W 	c #E1E9E1",
"X 	c #C9D3C9",
"Y 	c #9DAD9D",
"Z 	c #758E75",
"` 	c #5E7B5E",
" .	c #5A7A5A",
"..	c #7F997F",
"+.	c #809A80",
"@.	c #819A81",
"#.	c #869D86",
"$.	c #859A85",
"%.	c #6E866E",
"&.	c #546B54",
"*.	c #2A3A2A",
"=.	c #6C766C",
"-.	c #D0DBD0",
";.	c #E6EDE6",
">.	c #DEE7DE",
",.	c #CDDACD",
"'.	c #B6C6B6",
").	c #95A995",
"!.	c #648064",
"~.	c #879F87",
"{.	c #90A690",
"].	c #8EA48E",
"^.	c #7F977F",
"/.	c #6F886F",
"(.	c #647F64",
"_.	c #4D714D",
":.	c #164216",
"<.	c #000C00",
"[.	c #768076",
"}.	c #B0BBB0",
"|.	c #D4DCD4",
"1.	c #D6E0D6",
"2.	c #D0DED0",
"3.	c #C7D4C7",
"4.	c #9CAE9C",
"5.	c #647E64",
"6.	c #8C9F8C",
"7.	c #91A691",
"8.	c #859D85",
"9.	c #779177",
"0.	c #446044",
"a.	c #1B381B",
"b.	c #001700",
"c.	c #4F594E",
"d.	c #668266",
"e.	c #9DAC9D",
"f.	c #B5C3B5",
"g.	c #94A694",
"h.	c #4D6C4D",
"i.	c #698369",
"j.	c #506D50",
"k.	c #778C77",
"l.	c #789078",
"m.	c #4B6F4B",
"n.	c #1E281E",
"o.	c #0A140A",
"p.	c #1E221D",
"q.	c #6C856C",
"r.	c #5A765A",
"s.	c #5E795E",
"t.	c #2B5E2B",
"u.	c #496C49",
"v.	c #748E74",
"w.	c #3A5F3A",
"x.	c #4A654A",
"y.	c #295229",
"z.	c #091709",
"A.	c #001600",
"B.	c #010101",
"C.	c #7B8D79",
"D.	c #829881",
"E.	c #6A866A",
"F.	c #627F62",
"G.	c #6E886E",
"H.	c #839B83",
"I.	c #486A48",
"J.	c #255725",
"K.	c #063306",
"L.	c #042B04",
"M.	c #032F03",
"N.	c #0E320E",
"O.	c #0E100E",
"P.	c #536152",
"Q.	c #6B7C6A",
"R.	c #819781",
"S.	c #8EA78E",
"T.	c #567556",
"U.	c #456945",
"V.	c #214421",
"W.	c #113A11",
"X.	c #262D26",
"Y.	c #455145",
"Z.	c #6B7C6B",
"`.	c #93AA92",
" +	c #4C654C",
".+	c #2B3E2B",
"++	c #111B11",
"@+	c #374036",
"#+	c #202B20",
"                . + @ # $ %             ",
"                & * = - ; >             ",
"            . . . , ' ) ! ~ . .         ",
"            . { ] ^ ' ) ! / ( .         ",
"              _ : < ' ) ! [ }           ",
"                | 1 2 3 4 5             ",
"              6 7 8 9 0 a b c           ",
"          d e f g h i j k l m n o       ",
"      p q r s t u v w x y z A B C D .   ",
"      E F G H I J K L M N O P Q R S     ",
"    T U V W X Y Z `  ...+.@.#.$.%.&.*.  ",
"    =.-.;.;.>.,.'.).!.~.{.].^./.(._.:.<.",
"      [.}.|.1.2.3.4.5.6.7.8.9.(.0.a.b.  ",
"        c.d.e.f.g.h.i.j.k.l.m.n.o..     ",
"        p.q.r.s.t.u.v.w.x.y.z.A.v       ",
"        B.C.D.E.F.G.H.I.J.K.L.M.N.      ",
"          O.P.Q.R.8.S.T.U.V.W..         ",
"              X.Y.Z.`. +.+++            ",
"                    @+#+                ",
"                                        "};
