/* XPM */
static char * add_folder_xpm[] = {
"16 16 138 2",
"  	c None",
". 	c #1D1D1D",
"+ 	c #000000",
"@ 	c #FDECCD",
"# 	c #FCDB9D",
"$ 	c #FCDB9E",
"% 	c #FCDA9D",
"& 	c #CBAF7E",
"* 	c #2B2B2B",
"= 	c #FCEBCD",
"- 	c #F8D69A",
"; 	c #F6D499",
"> 	c #F4D297",
", 	c #F2D096",
"' 	c #685940",
") 	c #3B3224",
"! 	c #3A3224",
"~ 	c #3A3123",
"{ 	c #393023",
"] 	c #1C1A16",
"^ 	c #3A3A3A",
"/ 	c #F8E7C9",
"( 	c #F1CE94",
"_ 	c #EFCC93",
": 	c #EDCA92",
"< 	c #ECC991",
"[ 	c #EAC78F",
"} 	c #E9C58E",
"| 	c #E7C48D",
"1 	c #E6C28C",
"2 	c #E5C18B",
"3 	c #E4C08A",
"4 	c #C6A778",
"5 	c #FAF1E0",
"6 	c #D0AF71",
"7 	c #BA9B5F",
"8 	c #C4AB76",
"9 	c #C4AA76",
"0 	c #9A8E5D",
"a 	c #336429",
"b 	c #336329",
"c 	c #94885A",
"d 	c #46433E",
"e 	c #2F2C28",
"f 	c #656565",
"g 	c #F8EFDE",
"h 	c #B29357",
"i 	c #FCF1DB",
"j 	c #FAE8C8",
"k 	c #F9E8C8",
"l 	c #F8E2BC",
"m 	c #F6DCAF",
"n 	c #E7CEA4",
"o 	c #37712E",
"p 	c #74CF77",
"q 	c #44B444",
"r 	c #2E6D26",
"s 	c #E4CBA2",
"t 	c #E0C69A",
"u 	c #EFE6D3",
"v 	c #C7B491",
"w 	c #F1D2A0",
"x 	c #EECC93",
"y 	c #E5C38C",
"z 	c #C4A778",
"A 	c #30792F",
"B 	c #A2EBAA",
"C 	c #68C96B",
"D 	c #176B15",
"E 	c #C0A275",
"F 	c #877353",
"G 	c #DFCFB1",
"H 	c #D2C2A9",
"I 	c #E4C18B",
"J 	c #B39E6D",
"K 	c #558341",
"L 	c #317A31",
"M 	c #4CA94D",
"N 	c #A3ECAC",
"O 	c #74D078",
"P 	c #389E37",
"Q 	c #2E782D",
"R 	c #255D21",
"S 	c #D4C2A2",
"T 	c #DBCAAF",
"U 	c #E1BD88",
"V 	c #3A6A32",
"W 	c #8DDF93",
"X 	c #A2ECAB",
"Y 	c #A8EFB1",
"Z 	c #A5EDAE",
"` 	c #A1EBA9",
" .	c #4EBA4E",
"..	c #286026",
"+.	c #B3A07F",
"@.	c #F3E4CA",
"#.	c #DFBB85",
"$.	c #DEBA85",
"%.	c #DDB984",
"&.	c #316629",
"*.	c #57BF58",
"=.	c #75CF77",
"-.	c #A6EDAD",
";.	c #89DD8F",
">.	c #66C869",
",.	c #32A92F",
"'.	c #246022",
").	c #3F3F3C",
"!.	c #C0B19A",
"~.	c #EBD8B8",
"{.	c #D7B37D",
"].	c #D6B27C",
"^.	c #D5B17A",
"/.	c #A79461",
"(.	c #286A1E",
"_.	c #1F8F1C",
":.	c #20651E",
"<.	c #1E1D1D",
"[.	c #F4F0E3",
"}.	c #D7BC8F",
"|.	c #CAA66E",
"1.	c #C8A46C",
"2.	c #C6A26A",
"3.	c #C4A068",
"4.	c #B69560",
"5.	c #A18253",
"6.	c #307A30",
"7.	c #42341F",
"8.	c #878787",
"9.	c #0E0E0E",
"0.	c #010101",
"a.	c #236522",
"b.	c #7BD580",
"c.	c #4BB94B",
"d.	c #196017",
"e.	c #292929",
"f.	c #195F17",
"g.	c #185D16",
"                                ",
"                                ",
"  . + + + .                     ",
"+ @ # $ % & *                   ",
". = - ; > , ' ) ! ~ ~ { ]       ",
"^ / ( _ : < [ } | 1 2 3 4 .     ",
"^ 5 6 7 8 8 8 8 9 0 a b c d e f ",
"* g h i j k l m n o p q r s t ^ ",
"+ u v w x : < y z A B C D E F f ",
"* G H 1 2 I J K L M N O P Q R   ",
"^ S T U U U V W X N Y Z X `  ...",
". +.@.#.$.%.&.*.C =.-.;.C >.,.'.",
").!.~.{.].^./.(.D P X C _.D :.  ",
"<.[.}.|.1.2.3.4.5.6.X C D 7.8.  ",
"  9.+ + + + + + 0.a.b.c.d.e.    ",
"                    f.g.        "};
