/* XPM */
static char * album_xpm[] = {
"24 24 262 2",
"  	c None",
". 	c #7CAE7E",
"+ 	c #70A872",
"@ 	c #549757",
"# 	c #57975A",
"$ 	c #629E65",
"% 	c #70A973",
"& 	c #81B682",
"* 	c #73A975",
"= 	c #448847",
"- 	c #3F8042",
"; 	c #3C7B40",
"> 	c #3E7C41",
", 	c #427E45",
"' 	c #468149",
") 	c #4B834D",
"! 	c #528B55",
"~ 	c #639F67",
"{ 	c #93BE95",
"] 	c #659F68",
"^ 	c #3F8143",
"/ 	c #408043",
"( 	c #448348",
"_ 	c #4A864C",
": 	c #4E8951",
"< 	c #538D56",
"[ 	c #58905B",
"} 	c #5E9460",
"| 	c #629765",
"1 	c #679A6A",
"2 	c #70A574",
"3 	c #89BB8C",
"4 	c #AFCEB0",
"5 	c #5EA163",
"6 	c #4C8F4E",
"7 	c #509254",
"8 	c #559659",
"9 	c #5A995E",
"0 	c #609C63",
"a 	c #66A169",
"b 	c #6BA56E",
"c 	c #70A874",
"d 	c #76AC79",
"e 	c #7BB07E",
"f 	c #81B484",
"g 	c #87B889",
"h 	c #8DBB8F",
"i 	c #97C39A",
"j 	c #7CAF7F",
"k 	c #5DA360",
"l 	c #63A666",
"m 	c #68AA6C",
"n 	c #6DAD71",
"o 	c #73B076",
"p 	c #78B37B",
"q 	c #7DB680",
"r 	c #83B985",
"s 	c #88BC8B",
"t 	c #8DBF90",
"u 	c #92C295",
"v 	c #98C59A",
"w 	c #9DC89F",
"x 	c #A2CBA5",
"y 	c #A7CFAA",
"z 	c #B2D5B4",
"A 	c #6AAB6E",
"B 	c #6EAD71",
"C 	c #7DB681",
"D 	c #83B986",
"E 	c #93C295",
"F 	c #9DC9A0",
"G 	c #A2CCA5",
"H 	c #A8CFAA",
"I 	c #ADD2AF",
"J 	c #B8D8B9",
"K 	c #BDDBBF",
"L 	c #C7E1C9",
"M 	c #90B993",
"N 	c #79B37C",
"O 	c #7EB681",
"P 	c #89BD8B",
"Q 	c #8EC091",
"R 	c #93C396",
"S 	c #98C69B",
"T 	c #9EC9A0",
"U 	c #A3CCA5",
"V 	c #ADD2B0",
"W 	c #B3D5B5",
"X 	c #B8D8BA",
"Y 	c #C3DEC4",
"Z 	c #C8E1C9",
"` 	c #CDE4CF",
" .	c #D2E7D4",
"..	c #DAE6DB",
"+.	c #86BB88",
"@.	c #89BD8C",
"#.	c #99C69B",
"$.	c #A3CCA6",
"%.	c #A8CFAB",
"&.	c #ACBEAC",
"*.	c #AFB2AF",
"=.	c #B5B6B5",
"-.	c #BBC2BB",
";.	c #C6DBC7",
">.	c #C8E1CA",
",.	c #CDE5CF",
"'.	c #D3E8D4",
").	c #D8EBD9",
"!.	c #DDEEDE",
"~.	c #E2F1E4",
"{.	c #E8F3E9",
"].	c #94C396",
"^.	c #9EC9A1",
"/.	c #A9CFAB",
"(.	c #AED2B0",
"_.	c #B4C2B4",
":.	c #C8C8C8",
"<.	c #DDDDDD",
"[.	c #E2E2E2",
"}.	c #D9D9D9",
"|.	c #C7C7C7",
"1.	c #D9E8DA",
"2.	c #DDEEDF",
"3.	c #E3F1E4",
"4.	c #E8F4E9",
"5.	c #3B793E",
"6.	c #437F46",
"7.	c #4C854F",
"8.	c #A4CCA6",
"9.	c #A9D0AB",
"0.	c #AED3B1",
"a.	c #B4D6B6",
"b.	c #B9D9BB",
"c.	c #BEDCC0",
"d.	c #C4DFC5",
"e.	c #BCBFBC",
"f.	c #E5E5E5",
"g.	c #E1E1E1",
"h.	c #DDE0DD",
"i.	c #3C793F",
"j.	c #448047",
"k.	c #4D8650",
"l.	c #558C58",
"m.	c #5E9360",
"n.	c #669969",
"o.	c #96B397",
"p.	c #7E897E",
"q.	c #BFDCC0",
"r.	c #C4DFC6",
"s.	c #C9E2CB",
"t.	c #CEE5D0",
"u.	c #D4E8D5",
"v.	c #CBCDCB",
"w.	c #EAEAEA",
"x.	c #637565",
"y.	c #568D58",
"z.	c #5E9361",
"A.	c #679969",
"B.	c #6FA072",
"C.	c #78A67A",
"D.	c #80AC83",
"E.	c #A1BDA2",
"F.	c #CAE2CB",
"G.	c #CFE5D0",
"H.	c #D4E9D6",
"I.	c #D9ECDB",
"J.	c #DFEFE0",
"K.	c #E4F2E5",
"L.	c #D6D9D6",
"M.	c #819182",
"N.	c #70A072",
"O.	c #78A67B",
"P.	c #81AC83",
"Q.	c #89B38B",
"R.	c #92B994",
"S.	c #9BBF9C",
"T.	c #AEC4B0",
"U.	c #D6E9D8",
"V.	c #DAECDB",
"W.	c #E9F5EB",
"X.	c #3D7B40",
"Y.	c #568A59",
"Z.	c #A0B7A1",
"`.	c #8AB38C",
" +	c #93BA95",
".+	c #9BC09D",
"++	c #A4C6A6",
"@+	c #ACCDAE",
"#+	c #B5D3B6",
"$+	c #BCCBBC",
"%+	c #C9D1CA",
"&+	c #EAF5EB",
"*+	c #3E7B41",
"=+	c #4F8852",
"-+	c #578E5A",
";+	c #609462",
">+	c #689A6B",
",+	c #77A279",
"'+	c #8CA28D",
")+	c #849384",
"!+	c #869486",
"~+	c #A2B7A3",
"{+	c #9CC09D",
"]+	c #A4C7A6",
"^+	c #ADCDAE",
"/+	c #B5D3B7",
"(+	c #BEDABF",
"_+	c #C6E0C8",
":+	c #CFE6D0",
"<+	c #C5D1C5",
"[+	c #425243",
"}+	c #508852",
"|+	c #588E5B",
"1+	c #619563",
"2+	c #699B6C",
"3+	c #72A174",
"4+	c #7AA87D",
"5+	c #83AE85",
"6+	c #8BB48D",
"7+	c #94BB96",
"8+	c #9DC19E",
"9+	c #A5C7A7",
"0+	c #AECEAF",
"a+	c #B6D4B8",
"b+	c #BFDAC0",
"c+	c #C7E0C8",
"d+	c #D0E7D1",
"e+	c #D3E9D4",
"f+	c #D4E9D5",
"g+	c #80A482",
"h+	c #72A275",
"i+	c #7BA87D",
"j+	c #8CB58E",
"k+	c #9DC19F",
"l+	c #A6C8A7",
"m+	c #AECEB0",
"n+	c #B7D4B8",
"o+	c #C9D8CA",
"p+	c #98BA9A",
"q+	c #95BB97",
"r+	c #9DC29F",
"s+	c #A6C8A8",
"t+	c #C0DBC1",
"u+	c #D1E7D2",
"v+	c #424942",
"w+	c #B4D2B5",
"x+	c #B8D5B9",
"y+	c #C0DBC2",
"z+	c #C9E2CA",
"A+	c #D1E8D2",
"B+	c #BECBBE",
"C+	c #737D73",
"D+	c #D3E8D5",
"E+	c #D4E9D4",
"F+	c #A7B3A7",
"G+	c #B1BFB3",
"H+	c #D5E9D6",
"I+	c #808981",
"J+	c #BBC9BC",
"K+	c #CFE1D0",
"L+	c #C3D2C4",
"M+	c #8F9B8F",
"                                                ",
"                . + @ # $ % &                   ",
"            * = - ; > , ' ) ! ~ {               ",
"          ] ^ / ( _ : < [ } | 1 2 3 4           ",
"        5 6 7 8 9 0 a b c d e f g h i           ",
"      j k l m n o p q r s t u v w x y z         ",
"      A B o p C D s t E v F G H I z J K L       ",
"    M N O D P Q R S T U H V W X K Y Z `  ...    ",
"    +.@.Q R #.T $.%.&.*.=.-.;.>.,.'.).!.~.{.    ",
"    ].#.^.$./.(.W _.:.<.[.}.|.1.2.3.4.5.6.7.    ",
"    8.9.0.a.b.c.d.e.f.g.    g.h.i.j.k.l.m.n.o.  ",
"  p.a.b.q.r.s.t.u.v.w.        x.y.z.A.B.C.D.E.  ",
"    r.F.G.H.I.J.K.L.          M.N.O.P.Q.R.S.T.  ",
"    U.V.J.K.W.X.' Y.          Z.`. +.+++@+#+$+  ",
"    %+&+*+' =+-+;+>+,+'+)+!+~+{+]+^+/+(+_+:+<+  ",
"    [+}+|+1+2+3+4+5+6+7+8+9+0+a+b+c+d+e+e+f+    ",
"      g+h+i+5+j+7+k+l+m+n+b+Z d+e+e+e+e+e+o+    ",
"        p+q+r+s+m+n+t+Z u+e+e+e+e+e+e+e+f+      ",
"        v+w+x+y+z+A+e+e+e+e+e+e+e+e+e+e+B+      ",
"          C+D+e+e+e+e+e+e+e+e+e+e+e+E+F+        ",
"              G+f+e+e+e+e+e+e+e+e+H+I+          ",
"                  J+K+'.e+e+D+L+M+              ",
"                                                ",
"                                                "};
