/* XPM */
static char * artist_album_xpm[] = {
"24 24 321 2",
"  	c None",
". 	c #292201",
"+ 	c #362D00",
"@ 	c #2A2300",
"# 	c #272000",
"$ 	c #28230A",
"% 	c #9C892E",
"& 	c #ECCD37",
"* 	c #F7D636",
"= 	c #F7D42C",
"- 	c #E1C01B",
"; 	c #977E05",
"> 	c #211C00",
", 	c #2C260B",
"' 	c #C7B24A",
") 	c #F9DF62",
"! 	c #F9E16D",
"~ 	c #F9E16B",
"{ 	c #F9DE5C",
"] 	c #F8D945",
"^ 	c #F7D329",
"/ 	c #CBAA0A",
"( 	c #282100",
"_ 	c #786C31",
": 	c #F9E16C",
"< 	c #FAE78B",
"[ 	c #FBECA2",
"} 	c #FBEB9D",
"| 	c #FAE682",
"1 	c #F8D840",
"2 	c #F6D11D",
"3 	c #AD8F00",
"4 	c #1E1900",
"5 	c #D2BA47",
"6 	c #F9E271",
"7 	c #FBE992",
"8 	c #FCEEAE",
"9 	c #FCEDA7",
"0 	c #FAE788",
"a 	c #F9E066",
"b 	c #EECE35",
"c 	c #D1B111",
"d 	c #F2C900",
"e 	c #2B2300",
"f 	c #E6C734",
"g 	c #D6B82B",
"h 	c #EACE43",
"i 	c #FAE47B",
"j 	c #FAE479",
"k 	c #F9E068",
"l 	c #F8DB4F",
"m 	c #C1A521",
"n 	c #251F05",
"o 	c #F5CB00",
"p 	c #3B3100",
"q 	c #8E770A",
"r 	c #302813",
"s 	c #393016",
"t 	c #BD9F0E",
"u 	c #F5D32E",
"v 	c #F7D531",
"w 	c #F7D327",
"x 	c #AB9009",
"y 	c #0F0D08",
"z 	c #D3AF00",
"A 	c #201B09",
"B 	c #937E70",
"C 	c #A18A7B",
"D 	c #6A5A49",
"E 	c #453B1F",
"F 	c #4E4117",
"G 	c #4F4317",
"H 	c #3A3111",
"I 	c #67594E",
"J 	c #211C06",
"K 	c #3E4826",
"L 	c #6FA572",
"M 	c #569659",
"N 	c #519255",
"O 	c #5F9D63",
"P 	c #71A974",
"Q 	c #89B98C",
"R 	c #302A25",
"S 	c #F0CFB7",
"T 	c #EDCCB5",
"U 	c #EACAB3",
"V 	c #E8C7B1",
"W 	c #E5C5AE",
"X 	c #E3C3AD",
"Y 	c #E0C1AB",
"Z 	c #DDBEA8",
"` 	c #3B3B30",
" .	c #3C7A3E",
"..	c #3D7B40",
"+.	c #427E45",
"@.	c #48814B",
"#.	c #4C8550",
"$.	c #538855",
"%.	c #5A905E",
"&.	c #76AA7A",
"*.	c #9EC3A0",
"=.	c #25201D",
"-.	c #DBBDA7",
";.	c #F4D2BA",
">.	c #EECDB6",
",.	c #313A2A",
"'.	c #509154",
").	c #57955A",
"!.	c #5D9961",
"~.	c #659E67",
"{.	c #6AA26D",
"].	c #71A775",
"^.	c #78AB7B",
"/.	c #7FB081",
"(.	c #88B88B",
"_.	c #A7CAAA",
":.	c #342C28",
"<.	c #F1CFB8",
"[.	c #5E584A",
"}.	c #548555",
"|.	c #6FAE72",
"1.	c #76B279",
"2.	c #7CB57F",
"3.	c #83B985",
"4.	c #89BD8C",
"5.	c #90C192",
"6.	c #96C498",
"7.	c #9CC89F",
"8.	c #A3CCA5",
"9.	c #A9D0AB",
"0.	c #BFD8C0",
"a.	c #11293F",
"b.	c #101B26",
"c.	c #88776C",
"d.	c #F2D0B9",
"e.	c #CCAF9B",
"f.	c #3E3931",
"g.	c #0C1519",
"h.	c #628D65",
"i.	c #84BA87",
"j.	c #8BBE8D",
"k.	c #91C294",
"l.	c #98C59A",
"m.	c #9EC9A0",
"n.	c #A4CDA7",
"o.	c #ABD1AD",
"p.	c #B1D4B3",
"q.	c #B8D8BA",
"r.	c #BEDCC0",
"s.	c #C5DFC6",
"t.	c #D3E1D4",
"u.	c #0A1D2D",
"v.	c #76B0E5",
"w.	c #6AA8E1",
"x.	c #285278",
"y.	c #0F171E",
"z.	c #302B28",
"A.	c #3F3E3A",
"B.	c #5F5F60",
"C.	c #205381",
"D.	c #1C3035",
"E.	c #97C49A",
"F.	c #A0CAA2",
"G.	c #A4CCA6",
"H.	c #B0C5B1",
"I.	c #BACBBC",
"J.	c #B8D4BA",
"K.	c #C0DDC2",
"L.	c #C6E0C8",
"M.	c #CDE4CE",
"N.	c #D3E8D5",
"O.	c #DAECDB",
"P.	c #E2EFE3",
"Q.	c #3D6E9C",
"R.	c #A7CDEF",
"S.	c #ADD0F0",
"T.	c #9CC7ED",
"U.	c #5382AD",
"V.	c #2D353B",
"W.	c #FFFFFF",
"X.	c #2F383F",
"Y.	c #2C79BF",
"Z.	c #23527B",
"`.	c #7F9981",
" +	c #B2D3B5",
".+	c #B2B5B2",
"++	c #D5D5D5",
"@+	c #DADADA",
"#+	c #CBCBCB",
"$+	c #D6E2D6",
"%+	c #DBEDDC",
"&+	c #E2F0E3",
"*+	c #E8F4E9",
"=+	c #3D7A40",
"-+	c #48824A",
";+	c #081623",
">+	c #7BB1E2",
",+	c #BAD8F3",
"'+	c #C8E0F5",
")+	c #ABCFF0",
"!+	c #8CBDEA",
"~+	c #3A658B",
"{+	c #172027",
"]+	c #142B3E",
"^+	c #328ADA",
"/+	c #2C7AC1",
"(+	c #4A5C5B",
"_+	c #C2D2C3",
":+	c #DEDEDE",
"<+	c #EDEDED",
"[+	c #D2D4D3",
"}+	c #417E44",
"|+	c #4A844D",
"1+	c #558C57",
"2+	c #5F9361",
"3+	c #699B6C",
"4+	c #96B597",
"5+	c #0A1C2C",
"6+	c #85B9E9",
"7+	c #A3CBEE",
"8+	c #A9CEEF",
"9+	c #9BC6ED",
"0+	c #82B8E9",
"a+	c #66A8E3",
"b+	c #3E89CC",
"c+	c #3188D7",
"d+	c #3289D8",
"e+	c #3F4E53",
"f+	c #D5E0D7",
"g+	c #E8E8E8",
"h+	c #639465",
"i+	c #6C9D6E",
"j+	c #76A579",
"k+	c #81AC83",
"l+	c #8BB48D",
"m+	c #A9C2AA",
"n+	c #0C2134",
"o+	c #72AFE6",
"p+	c #86BAE9",
"q+	c #7EB5E8",
"r+	c #6CABE4",
"s+	c #569FE1",
"t+	c #3C90DC",
"u+	c #193331",
"v+	c #458048",
"w+	c #7E987F",
"x+	c #95A395",
"y+	c #83AE85",
"z+	c #8EB690",
"A+	c #98BE9A",
"B+	c #A3C5A4",
"C+	c #ADCDAF",
"D+	c #BBCEBC",
"E+	c #0B1D2E",
"F+	c #559EE0",
"G+	c #60A4E2",
"H+	c #62A6E3",
"I+	c #5DA2E2",
"J+	c #509BDF",
"K+	c #3E91DC",
"L+	c #2E80CB",
"M+	c #203A34",
"N+	c #669969",
"O+	c #739F75",
"P+	c #8BA98D",
"Q+	c #8D9F8E",
"R+	c #98AF99",
"S+	c #9BBE9D",
"T+	c #A5C7A7",
"U+	c #B0CFB1",
"V+	c #BAD7BC",
"W+	c #C4DEC6",
"X+	c #CFE6D0",
"Y+	c #C8D5C9",
"Z+	c #07131E",
"`+	c #245E94",
" @	c #3F91DC",
".@	c #3A8FDB",
"+@	c #1D4769",
"@@	c #57775B",
"#@	c #89B28B",
"$@	c #93BA95",
"%@	c #9DC29F",
"&@	c #A8C9AA",
"*@	c #B2D1B4",
"=@	c #BDD9BE",
"-@	c #C7E0C8",
";@	c #D1E8D2",
">@	c #D3E9D4",
",@	c #D4EAD5",
"'@	c #07121C",
")@	c #0E283F",
"!@	c #1D5180",
"~@	c #2A75B9",
"{@	c #276BA9",
"]@	c #1B394D",
"^@	c #4E675A",
"/@	c #A0C3A1",
"(@	c #AACBAC",
"_@	c #B5D3B6",
":@	c #BFDAC0",
"<@	c #CAE2CB",
"[@	c #C6D3C7",
"}@	c #091927",
"|@	c #0A1B2B",
"1@	c #091825",
"2@	c #0C161C",
"3@	c #9CB39D",
"4@	c #B7D5B9",
"5@	c #C2DDC3",
"6@	c #CCE4CD",
"7@	c #D5E8D6",
"8@	c #CBDBCC",
"9@	c #CDDDCE",
"0@	c #676E67",
"a@	c #CCDCCD",
"b@	c #D4E9D5",
"c@	c #D0E2D1",
"d@	c #AEBBAF",
"e@	c #7C857C",
"f@	c #8C968C",
"        . + @ #                                 ",
"    $ % & * = - ; >                             ",
"  , ' ) ! ~ { ] ^ / (                           ",
"  _ : < [ } | ) 1 2 3                           ",
"4 5 6 7 8 9 0 a b c d e                         ",
"# f g h i j k l m n o p                         ",
"  q r s t u v w x y z @                         ",
"  A B C D E F G H I J K L M N O P Q             ",
"  R S T U V W X Y Z `  ...+.@.#.$.%.&.*.        ",
"  =.-.;.;.;.;.;.;.>.,.'.).!.~.{.].^./.(._.      ",
"    :.<.;.;.;.;.;.[.}.|.1.2.3.4.5.6.7.8.9.0.    ",
"    a.b.c.S d.e.f.g.h.i.j.k.l.m.n.o.p.q.r.s.t.  ",
"  u.v.w.x.y.z.A.B.C.D.E.F.G.H.I.J.K.L.M.N.O.P.  ",
"  Q.R.S.T.U.V.W.X.Y.Z.`. +.+++@+#+$+%+&+*+=+-+  ",
";+>+,+'+)+!+~+{+]+^+/+(+_+:+    <+[+}+|+1+2+3+4+",
"5+6+7+8+9+0+a+b+c+^+d+e+f+g+        h+i+j+k+l+m+",
"n+o+0+p+q+r+s+t+^+^+^+u+v+w+      x+y+z+A+B+C+D+",
"E+F+G+H+I+J+K+^+^+^+L+M+N+O+P+Q+R+S+T+U+V+W+X+Y+",
"Z+`+t+ @.@^+^+^+^+^++@@@#@$@%@&@*@=@-@;@>@>@,@  ",
"  '@)@!@~@^+^+^+{@]@^@/@(@_@:@<@>@>@>@>@>@>@[@  ",
"        Z+}@|@1@2@3@4@5@6@>@>@>@>@>@>@>@>@7@    ",
"                    8@>@>@>@>@>@>@>@>@>@9@      ",
"                      0@a@>@>@>@>@b@c@d@        ",
"                              e@f@              "};
