/* XPM */
static char * artist_xpm[] = {
"24 24 193 2",
"  	c None",
". 	c #1D1802",
"+ 	c #2C2502",
"@ 	c #2C2300",
"# 	c #221C00",
"$ 	c #211C00",
"% 	c #655A26",
"& 	c #D5B935",
"* 	c #F7D636",
"= 	c #F7D530",
"- 	c #F0CD23",
"; 	c #CCAC11",
"> 	c #4F4100",
", 	c #1A1500",
"' 	c #8E813D",
") 	c #F9DE5B",
"! 	c #F9E067",
"~ 	c #F9E069",
"{ 	c #F9DF60",
"] 	c #F8DB4E",
"^ 	c #F7D637",
"/ 	c #F6D11C",
"( 	c #846E00",
"_ 	c #1B1700",
": 	c #48411E",
"< 	c #F9E065",
"[ 	c #FAE581",
"} 	c #FBEA97",
"| 	c #FBEB9C",
"1 	c #FAE78B",
"2 	c #F9E270",
"3 	c #F8DC52",
"4 	c #F7D532",
"5 	c #F6CF12",
"6 	c #6A5700",
"7 	c #B6A13E",
"8 	c #F9E16E",
"9 	c #FBE88E",
"0 	c #FCEEAD",
"a 	c #FCF0B7",
"b 	c #FBEA9A",
"c 	c #FAE479",
"d 	c #F8DD59",
"e 	c #F4D124",
"f 	c #F2CC13",
"g 	c #D5B100",
"h 	c #221B00",
"i 	c #D9BD32",
"j 	c #F8DA4B",
"k 	c #F7DC5B",
"l 	c #FAE685",
"m 	c #FAE788",
"n 	c #FAE47C",
"o 	c #F8DA4A",
"p 	c #6A5C19",
"q 	c #816C07",
"r 	c #F5CB00",
"s 	c #302800",
"t 	c #211B00",
"u 	c #CCAD14",
"v 	c #60520E",
"w 	c #3B3213",
"x 	c #E4C42B",
"y 	c #F8DB4F",
"z 	c #F8D840",
"A 	c #F7D42B",
"B 	c #564813",
"C 	c #282109",
"D 	c #312800",
"E 	c #201B02",
"F 	c #413828",
"G 	c #837064",
"H 	c #3A311E",
"I 	c #453A12",
"J 	c #92790B",
"K 	c #B99B05",
"L 	c #D4B001",
"M 	c #3A310D",
"N 	c #3C3426",
"O 	c #8D7400",
"P 	c #1C1A16",
"Q 	c #D4B7A2",
"R 	c #D3B5A0",
"S 	c #D0B39E",
"T 	c #C4A895",
"U 	c #907C6E",
"V 	c #746350",
"W 	c #5D5038",
"X 	c #786755",
"Y 	c #BBA18F",
"Z 	c #201C0B",
"` 	c #231E1B",
" .	c #D6B8A3",
"..	c #F4D2BA",
"+.	c #E7C6B0",
"@.	c #211E1A",
"#.	c #6B5C53",
"$.	c #806E61",
"%.	c #0D1319",
"&.	c #5B524A",
"*.	c #F2D0B9",
"=.	c #9B8677",
"-.	c #161311",
";.	c #060F1A",
">.	c #2A5984",
",.	c #25547E",
"'.	c #0D1721",
").	c #5C5049",
"!.	c #B39A88",
"~.	c #8D786B",
"{.	c #3D342F",
"].	c #101417",
"^.	c #081825",
"/.	c #0C2336",
"(.	c #7BB4E7",
"_.	c #93C1EB",
":.	c #68A6DF",
"<.	c #20415F",
"[.	c #15181B",
"}.	c #707070",
"|.	c #C8C8C8",
"1.	c #141F27",
"2.	c #2F81CB",
"3.	c #07141F",
"4.	c #3C6F9D",
"5.	c #ABCFF0",
"6.	c #B8D7F2",
"7.	c #90C0EB",
"8.	c #27425B",
"9.	c #777A7C",
"0.	c #E9E9E9",
"a.	c #0D1F2F",
"b.	c #328ADA",
"c.	c #173E62",
"d.	c #07141E",
"e.	c #75ADE0",
"f.	c #B3D4F1",
"g.	c #C6DEF5",
"h.	c #B2D3F1",
"i.	c #96C3EC",
"j.	c #75B0E5",
"k.	c #182F45",
"l.	c #0B151F",
"m.	c #2465A0",
"n.	c #276CAA",
"o.	c #05101A",
"p.	c #081724",
"q.	c #79B2E7",
"r.	c #9CC7ED",
"s.	c #A4CBEF",
"t.	c #9BC6ED",
"u.	c #89BCEA",
"v.	c #71AEE5",
"w.	c #559EE0",
"x.	c #398EDB",
"y.	c #2B78BD",
"z.	c #06141F",
"A.	c #0A1D2E",
"B.	c #69A9E4",
"C.	c #7EB5E8",
"D.	c #82B8E9",
"E.	c #70ADE5",
"F.	c #5DA3E2",
"G.	c #4896DE",
"H.	c #2F82CD",
"I.	c #071320",
"J.	c #081826",
"K.	c #529CE0",
"L.	c #5DA2E2",
"M.	c #61A5E2",
"N.	c #539DE0",
"O.	c #4495DD",
"P.	c #286EAE",
"Q.	c #05111C",
"R.	c #07121B",
"S.	c #205789",
"T.	c #3C90DC",
"U.	c #3F91DC",
"V.	c #348BDA",
"W.	c #3289D9",
"X.	c #102D46",
"Y.	c #051119",
"Z.	c #102D47",
"`.	c #276CAB",
" +	c #2669A6",
".+	c #0C2337",
"++	c #07111B",
"@+	c #071521",
"#+	c #0A1B2B",
"$+	c #0B1E31",
"%+	c #0A1C2B",
"&+	c #081623",
"*+	c #06111C",
"                                                ",
"                  . + @ # $                     ",
"                % & * = - ; > ,                 ",
"              ' ) ! ~ { ] ^ / ( _               ",
"            : < [ } | 1 2 3 4 5 6               ",
"            7 8 9 0 a b c d e f g #             ",
"          h i j k l m n < o p q r s             ",
"          t u v w x ] y z A B C r D             ",
"            E F G H I J K L M N O $             ",
"            P Q R S T U V W X Y Z               ",
"            `  ...............+.@.              ",
"              #...............$.                ",
"              %.&.*.........=.-.                ",
"            ;.>.,.'.).!.~.{.].^.                ",
"            /.(._.:.<.[.}.|.1.2.3.              ",
"            4.5.6.5.7.8.9.0.a.b.c.              ",
"          d.e.f.g.h.i.j.k.l.m.b.n.o.            ",
"          p.q.r.s.t.u.v.w.x.b.b.y.z.            ",
"          A.B.C.D.C.E.F.G.b.b.b.H.I.            ",
"          J.K.L.M.L.N.O.b.b.b.b.P.Q.            ",
"          R.S.T.U.T.V.b.b.b.b.W.X.              ",
"            Y.Z.`.b.b.b.b.W. +.+                ",
"                ++@+#+$+%+&+*+                  ",
"                                                "};
