/* XPM */
static char * artist_album_xpm[] = {
"24 24 302 2",
"  	c None",
". 	c #52483D",
"+ 	c #382C20",
"@ 	c #20150C",
"# 	c #1D120A",
"$ 	c #281A0E",
"% 	c #43392D",
"& 	c #52483C",
"* 	c #433B32",
"= 	c #8F7F6E",
"- 	c #96816A",
"; 	c #58412B",
"> 	c #3D2816",
", 	c #362312",
"' 	c #332212",
") 	c #594633",
"! 	c #72604C",
"~ 	c #4B4033",
"{ 	c #16110B",
"] 	c #362F27",
"^ 	c #84725E",
"/ 	c #856F57",
"( 	c #89735A",
"_ 	c #563F29",
": 	c #3E2917",
"< 	c #362211",
"[ 	c #2C1D10",
"} 	c #302215",
"| 	c #493624",
"1 	c #533E29",
"2 	c #322518",
"3 	c #080603",
"4 	c #52463A",
"5 	c #7A644C",
"6 	c #89725A",
"7 	c #7D654B",
"8 	c #694F35",
"9 	c #442E1A",
"0 	c #322010",
"a 	c #352619",
"b 	c #594938",
"c 	c #63503D",
"d 	c #533F2C",
"e 	c #42301F",
"f 	c #1D140C",
"g 	c #000000",
"h 	c #483B2D",
"i 	c #775E44",
"j 	c #866C51",
"k 	c #91795E",
"l 	c #573F29",
"m 	c #362212",
"n 	c #312113",
"o 	c #635343",
"p 	c #9E8975",
"q 	c #A08972",
"r 	c #78624D",
"s 	c #4F3D2C",
"t 	c #312316",
"u 	c #433527",
"v 	c #392A1C",
"w 	c #735A40",
"x 	c #816B54",
"y 	c #654B32",
"z 	c #3A2616",
"A 	c #4C3A28",
"B 	c #564737",
"C 	c #AE9A87",
"D 	c #DFC7AD",
"E 	c #D0B598",
"F 	c #A68B70",
"G 	c #76614C",
"H 	c #594937",
"I 	c #977E65",
"J 	c #6A533D",
"K 	c #7C6145",
"L 	c #654C33",
"M 	c #372515",
"N 	c #513E2D",
"O 	c #423425",
"P 	c #816F5D",
"Q 	c #D3BCA3",
"R 	c #E9CDAF",
"S 	c #C3A78A",
"T 	c #89735C",
"U 	c #5A4A3A",
"V 	c #45382B",
"W 	c #8D7761",
"X 	c #604C38",
"Y 	c #61482E",
"Z 	c #4D3722",
"` 	c #392A1D",
" .	c #312C27",
"..	c #262727",
"+.	c #675E53",
"@.	c #A2907C",
"#.	c #97846F",
"$.	c #63574B",
"%.	c #3F3B37",
"&.	c #3A342E",
"*.	c #3A3024",
"=.	c #89725C",
"-.	c #5D4A38",
";.	c #4A3623",
">.	c #6A533C",
",.	c #8B735A",
"'.	c #5D544A",
").	c #474645",
"!.	c #766C61",
"~.	c #6B5D4E",
"{.	c #413932",
"].	c #4C453E",
"^.	c #4E463D",
"/.	c #483E35",
"(.	c #5A504D",
"_.	c #73685F",
":.	c #5D544E",
"<.	c #8D765D",
"[.	c #7E6750",
"}.	c #7E654C",
"|.	c #B69675",
"1.	c #DCBB98",
"2.	c #C3AC97",
"3.	c #B3A494",
"4.	c #C5B3A1",
"5.	c #D6BFA6",
"6.	c #806F5E",
"7.	c #53473C",
"8.	c #6B5E50",
"9.	c #675A4C",
"0.	c #5B4F46",
"a.	c #786B66",
"b.	c #94877A",
"c.	c #8E8176",
"d.	c #AD9F8C",
"e.	c #565243",
"f.	c #A18568",
"g.	c #BF9E7B",
"h.	c #EAC49B",
"i.	c #FAD4AE",
"j.	c #E8CCB0",
"k.	c #F1D8BF",
"l.	c #F6DEC4",
"m.	c #E4CAAE",
"n.	c #877461",
"o.	c #55483B",
"p.	c #67594B",
"q.	c #6B5D50",
"r.	c #695C52",
"s.	c #91817A",
"t.	c #AD9E8E",
"u.	c #BAA998",
"v.	c #B0A58B",
"w.	c #736F55",
"x.	c #524D3C",
"y.	c #B59776",
"z.	c #E7C097",
"A.	c #F5CDA4",
"B.	c #C6AA8D",
"C.	c #BFA890",
"D.	c #D9BFA3",
"E.	c #CBAF91",
"F.	c #87725B",
"G.	c #564738",
"H.	c #544639",
"I.	c #605347",
"J.	c #73675F",
"K.	c #9B8C85",
"L.	c #B2A597",
"M.	c #BEB099",
"N.	c #A6A07D",
"O.	c #A09675",
"P.	c #7C705F",
"Q.	c #6F5C47",
"R.	c #BD9C7A",
"S.	c #E2BA92",
"T.	c #BD9D7C",
"U.	c #8C765E",
"V.	c #927C65",
"W.	c #927960",
"X.	c #77624C",
"Y.	c #584838",
"Z.	c #483B2F",
"`.	c #554A40",
" +	c #7A726C",
".+	c #9B918B",
"++	c #AFA69C",
"@+	c #C1B9A1",
"#+	c #AFA586",
"$+	c #C6B59D",
"%+	c #C5B4A3",
"&+	c #978E83",
"*+	c #3D3327",
"=+	c #7C664F",
"-+	c #B59574",
";+	c #D3AD87",
">+	c #B79574",
",+	c #6F5B47",
"'+	c #4D3F30",
")+	c #46392C",
"!+	c #42362A",
"~+	c #42352B",
"{+	c #554B43",
"]+	c #736E6B",
"^+	c #6F6C69",
"/+	c #807D78",
"(+	c #CECABC",
"_+	c #D6C8B7",
":+	c #E2D7C7",
"<+	c #E2DFCE",
"[+	c #87877E",
"}+	c #3E3327",
"|+	c #6A5744",
"1+	c #9E8164",
"2+	c #B69473",
"3+	c #A08265",
"4+	c #8F745A",
"5+	c #806851",
"6+	c #63503E",
"7+	c #483B30",
"8+	c #504944",
"9+	c #605C5B",
"0+	c #2C2828",
"a+	c #3A3738",
"b+	c #C9C7C3",
"c+	c #D8D9CD",
"d+	c #CFD3C7",
"e+	c #CACFC4",
"f+	c #848781",
"g+	c #241D17",
"h+	c #4B3E2F",
"i+	c #6A5642",
"j+	c #76604A",
"k+	c #725C47",
"l+	c #614E3C",
"m+	c #46382C",
"n+	c #382F28",
"o+	c #534D48",
"p+	c #73716C",
"q+	c #504E4B",
"r+	c #636160",
"s+	c #E3DDDA",
"t+	c #DBD4CB",
"u+	c #CECBBC",
"v+	c #C6C3B0",
"w+	c #79776A",
"x+	c #020101",
"y+	c #100D0A",
"z+	c #1B1611",
"A+	c #221B15",
"B+	c #28211C",
"C+	c #2D2822",
"D+	c #3E3931",
"E+	c #615C4E",
"F+	c #918D7D",
"G+	c #D3CFC9",
"H+	c #E3E2DC",
"I+	c #F1E1D7",
"J+	c #EDDACC",
"K+	c #EAD6D2",
"L+	c #D6CBC8",
"M+	c #666363",
"N+	c #030202",
"O+	c #040303",
"P+	c #1D1917",
"Q+	c #423D34",
"R+	c #595544",
"S+	c #6E6852",
"T+	c #A09482",
"U+	c #CFCBBD",
"V+	c #C6C5B5",
"W+	c #E6D8D3",
"X+	c #ECD9C9",
"Y+	c #ECD9C7",
"Z+	c #A99A93",
"`+	c #3F3939",
" @	c #0F0E0C",
".@	c #2E2C22",
"+@	c #5D5943",
"@@	c #8E826B",
"#@	c #C3B3A4",
"$@	c #D4D4C5",
"%@	c #C2C2B1",
"&@	c #D9D4CC",
"*@	c #EAD5CF",
"=@	c #BDAD9F",
"-@	c #554D47",
";@	c #181813",
">@	c #37332A",
",@	c #7D7063",
"'@	c #C2B5A8",
")@	c #CFD4C5",
"!@	c #BBBDAF",
"~@	c #B2B0A2",
"{@	c #938988",
"]@	c #4E4744",
"^@	c #544B44",
"/@	c #58534D",
"(@	c #62645E",
"_@	c #575953",
":@	c #494842",
"<@	c #302C2D",
"                                                ",
"                                                ",
"            . + @ # $ % &                       ",
"        * = - ; > , ' ) ! ~ {                   ",
"      ] ^ / ( _ : < [ } | 1 2 3                 ",
"      4 5 6 7 8 9 0 a b c d e f g               ",
"      h i j k l m n o p q r s t                 ",
"    u v w x y z A B C D E F G H                 ",
"    I J K L M N O P Q R S T U V                 ",
"    W X Y Z `  ...+.@.#.$.%.&.*.                ",
"    =.-.;.>.,.'.).!.@.~.{.].^./.(._.:.          ",
"    <.[.}.|.1.2.3.4.5.6.7.8.9.0.a.b.c.d.e.      ",
"      f.g.h.i.j.k.l.m.n.o.p.q.r.s.t.u.v.w.x.    ",
"        y.z.A.B.C.D.E.F.G.H.I.J.K.L.M.N.O.P.    ",
"        Q.R.S.T.U.V.W.X.Y.Z.`. +.+++@+#+$+%+&+  ",
"        *+=+-+;+>+,+'+)+!+~+{+]+^+/+(+_+:+<+[+  ",
"          }+|+1+2+3+4+5+6+7+8+9+0+a+b+c+d+e+f+  ",
"            g+h+i+j+k+l+m+n+o+p+q+r+s+t+u+v+w+  ",
"              x+y+z+A+B+C+D+E+F+G+H+I+J+K+L+M+  ",
"                  N+O+P+Q+R+S+T+U+V+W+X+Y+Z+`+  ",
"                       @.@+@@@#@$@%@&@*@=@-@    ",
"                        ;@>@,@'@)@!@~@{@]@      ",
"                            ^@/@(@_@:@<@        ",
"                                                "};
