/* XPM */
static char * artist_album_xpm[] = {
"24 24 268 2",
"  	c None",
". 	c #251E00",
"+ 	c #2E2600",
"@ 	c #2A2200",
"# 	c #251F00",
"$ 	c #272106",
"% 	c #86762A",
"& 	c #E2C536",
"* 	c #F7D635",
"= 	c #F7D42C",
"- 	c #E9C51D",
"; 	c #AC9007",
"> 	c #231D00",
", 	c #252006",
"' 	c #B19E44",
") 	c #F9DE5F",
"! 	c #F9E16B",
"~ 	c #F9E16A",
"{ 	c #F9DE5D",
"] 	c #F8D947",
"^ 	c #DAB70E",
"/ 	c #302700",
"( 	c #595025",
"_ 	c #F9E069",
": 	c #FAE787",
"< 	c #FBEB9F",
"[ 	c #FBEB9D",
"} 	c #FAE685",
"| 	c #F9E066",
"1 	c #F8D944",
"2 	c #F6D222",
"3 	c #D1AE00",
"4 	c #BDA73E",
"5 	c #F9E26F",
"6 	c #FBE890",
"7 	c #FCEEAE",
"8 	c #FCEEAC",
"9 	c #FBE88D",
"0 	c #F6D742",
"a 	c #D6B411",
"b 	c #F5CC03",
"c 	c #332A00",
"d 	c #221C00",
"e 	c #D2B62E",
"f 	c #E5C736",
"g 	c #EACD42",
"h 	c #FAE47D",
"i 	c #F9E16D",
"j 	c #F8DC55",
"k 	c #E5C52E",
"l 	c #110F03",
"m 	c #F3C900",
"n 	c #6C5900",
"o 	c #7F6B0B",
"p 	c #342C0F",
"q 	c #372F15",
"r 	c #C2A30D",
"s 	c #F6D533",
"t 	c #F7D638",
"u 	c #F7D42D",
"v 	c #D5B310",
"w 	c #0C0A06",
"x 	c #B49500",
"y 	c #3A3000",
"z 	c #1B1606",
"A 	c #7E6D5C",
"B 	c #9A8575",
"C 	c #615340",
"D 	c #42391C",
"E 	c #4D4013",
"F 	c #504313",
"G 	c #443910",
"H 	c #514538",
"I 	c #241F0A",
"J 	c #241E00",
"K 	c #282320",
"L 	c #EACAB3",
"M 	c #E8C7B1",
"N 	c #E6C6AF",
"O 	c #E3C3AD",
"P 	c #E0C1AB",
"Q 	c #DABCA7",
"R 	c #D6B8A3",
"S 	c #D7B9A4",
"T 	c #53473F",
"U 	c #241F1C",
"V 	c #CEB19D",
"W 	c #F4D2BA",
"X 	c #342D29",
"Y 	c #979797",
"Z 	c #999999",
"` 	c #372F29",
" .	c #F3D1B9",
"..	c #9D8678",
"+.	c #1C1816",
"@.	c #919191",
"#.	c #6E6E6E",
"$.	c #606060",
"%.	c #5D5D5D",
"&.	c #646464",
"*.	c #6D6D6D",
"=.	c #7A7A7A",
"-.	c #A2A2A2",
";.	c #091723",
">.	c #101923",
",.	c #9A8577",
"'.	c #E9C8B1",
").	c #6F5F55",
"!.	c #0B1319",
"~.	c #8C8C8C",
"{.	c #676767",
"].	c #6C6C6C",
"^.	c #737373",
"/.	c #818181",
"(.	c #888888",
"_.	c #909090",
":.	c #A8A8A8",
"<.	c #081724",
"[.	c #62A0D9",
"}.	c #60A0DB",
"|.	c #204567",
"1.	c #10171E",
"2.	c #2F2A27",
"3.	c #2B2723",
"4.	c #615F5F",
"5.	c #14324E",
"6.	c #182836",
"7.	c #8A8A8A",
"8.	c #989898",
"9.	c #9E9E9E",
"0.	c #A5A5A5",
"a.	c #ACACAC",
"b.	c #B3B3B3",
"c.	c #B9B9B9",
"d.	c #C0C0C0",
"e.	c #CACACA",
"f.	c #275379",
"g.	c #A0C9EE",
"h.	c #A9CEEF",
"i.	c #99C5ED",
"j.	c #5280AB",
"k.	c #232A31",
"l.	c #FFFFFF",
"m.	c #66696A",
"n.	c #225C92",
"o.	c #245F96",
"p.	c #5B5F62",
"q.	c #9F9F9F",
"r.	c #A6A6A6",
"s.	c #ADADAD",
"t.	c #B4B4B4",
"u.	c #BBBBBB",
"v.	c #C1C1C1",
"w.	c #C8C8C8",
"x.	c #CFCFCF",
"y.	c #D6D6D6",
"z.	c #DCDCDC",
"A.	c #E5E5E5",
"B.	c #07141F",
"C.	c #679ED1",
"D.	c #B7D6F2",
"E.	c #CCE2F6",
"F.	c #AED1F0",
"G.	c #8FBFEB",
"H.	c #3B658D",
"I.	c #1C2329",
"J.	c #0C1823",
"K.	c #3187D5",
"L.	c #2E3944",
"M.	c #B5B5B5",
"N.	c #C2C2C2",
"O.	c #BDBDBD",
"P.	c #BCBCBC",
"Q.	c #DBDBDB",
"R.	c #E4E4E4",
"S.	c #EBEBEB",
"T.	c #F2F2F2",
"U.	c #F8F8F8",
"V.	c #081622",
"W.	c #7CB4E7",
"X.	c #A7CDEF",
"Y.	c #AFD1F0",
"Z.	c #A1C9EE",
"`.	c #88BBEA",
" +	c #6CABE4",
".+	c #3879B4",
"++	c #2E7DC5",
"@+	c #328ADA",
"#+	c #2B3946",
"$+	c #D1D1D1",
"%+	c #CCCCCC",
"&+	c #D5D5D5",
"*+	c #E0E0E0",
"=+	c #E2E2E2",
"-+	c #F9F9F9",
";+	c #8B8B8B",
">+	c #636363",
",+	c #0A1D2E",
"'+	c #6EACE5",
")+	c #86BAE9",
"!+	c #8BBDEA",
"~+	c #84B9E9",
"{+	c #72AFE6",
"]+	c #5CA2E2",
"^+	c #4394DD",
"/+	c #2C3C4B",
"(+	c #DFDFDF",
"_+	c #E6E6E6",
":+	c #E8E8E8",
"<+	c #767676",
"[+	c #858585",
"}+	c #AAAAAA",
"|+	c #0A1B2B",
"1+	c #58A0E1",
"2+	c #65A7E3",
"3+	c #68A9E4",
"4+	c #63A6E3",
"5+	c #569FE1",
"6+	c #4495DD",
"7+	c #2E3B47",
"8+	c #F4F4F4",
"9+	c #FBFBFB",
"0+	c #616161",
"a+	c #7C7C7C",
"b+	c #929292",
"c+	c #9C9C9C",
"d+	c #A7A7A7",
"e+	c #B2B2B2",
"f+	c #C4C4C4",
"g+	c #07131E",
"h+	c #2A6BA5",
"i+	c #4293DD",
"j+	c #4092DD",
"k+	c #378DDB",
"l+	c #286DAD",
"m+	c #282F36",
"n+	c #686868",
"o+	c #7E7E7E",
"p+	c #939393",
"q+	c #AFAFAF",
"r+	c #BEBEBE",
"s+	c #C9C9C9",
"t+	c #D4D4D4",
"u+	c #06121C",
"v+	c #163D61",
"w+	c #2669A6",
"x+	c #3186D4",
"y+	c #3085D2",
"z+	c #20588B",
"A+	c #212A33",
"B+	c #777777",
"C+	c #959595",
"D+	c #A0A0A0",
"E+	c #CBCBCB",
"F+	c #DEDEDE",
"G+	c #B6B6B6",
"H+	c #081521",
"I+	c #0B1D2F",
"J+	c #0D2439",
"K+	c #0B2032",
"L+	c #B7B7B7",
"M+	c #D7D7D7",
"N+	c #DDDDDD",
"O+	c #D0D0D0",
"P+	c #D8D8D8",
"Q+	c #D9D9D9",
"R+	c #B1B1B1",
"S+	c #B8B8B8",
"        . + @ #                                 ",
"    $ % & * = - ; >                             ",
"  , ' ) ! ~ { ] = ^ /                           ",
"  ( _ : < [ } | 1 2 3 >                         ",
"  4 5 6 7 8 9 ! 0 a b c                         ",
"d e f g h h i j k l m n                         ",
"  o p q r s t u v w x y                         ",
"  z A B C D E F G H I J                         ",
"  K L M N O P Q R S T                           ",
"  U V W W W W W W W X         Y Z               ",
"    `  .W W W W W ..+.  @.#.$.%.&.*.=.-.        ",
"    ;.>.,.W W '.).!.  ~.{.].^.=./.(._.Y :.      ",
"  <.[.}.|.1.2.3.4.5.6.=.7.@.8.9.0.a.b.c.d.e.    ",
"  f.g.h.i.j.k.l.m.n.o.p.q.r.s.t.u.v.w.x.y.z.A.  ",
"B.C.D.E.F.G.H.I.J.K.K.L.M.u.N.O.P.e.Q.R.S.T.U.w.",
"V.W.X.Y.Z.`. +.+++@+@+#+e.$+%+&+*+=+y.-+;+>+#.8.",
",+'+)+!+~+{+]+^+@+@+@+/+(+_+y.:+      <+=.[+_.}+",
"|+1+2+3+4+5+6+@+@+@+@+7+8+9+0+      a+b+c+d+e+f+",
"g+h+i+6+j+k+@+@+@+@+l+m+n+^.o+b+8.p+q+t.r+s+t+Q.",
"  u+v+w+x+@+@+@+y+z+A+B+7.C+D+}+M.d.E+y.F+F+F+G+",
"        H+I+J+K+H+    }+a.L+v.%+M+F+F+F+F+F+N+  ",
"                        O+P+F+F+F+F+F+F+F+(+    ",
"                          e.F+F+F+F+F+F+Q+      ",
"                              R+N.x.S+          "};
