/* XPM */
static char * blackwhite_xpm[] = {
"6 6 3 1",
" 	c None",
".	c #FFFFFF",
"+	c #000000",
".....+",
"....++",
"...+++",
"..++++",
".+++++",
"++++++"};
