/* XPM */
const char * closed_folder_unreadable_xpm[] = {
"16 16 109 2",
"  	c None",
". 	c #1F1F1E",
"+ 	c #000000",
"@ 	c #1D1D1D",
"# 	c #020201",
"$ 	c #FDECCD",
"% 	c #FCDB9D",
"& 	c #FCDB9E",
"* 	c #FCDA9D",
"= 	c #CBAF7E",
"- 	c #2B2B2B",
"; 	c #FCEBCD",
"> 	c #F8D69A",
", 	c #F6D499",
"' 	c #F4D297",
") 	c #F2D096",
"! 	c #685940",
"~ 	c #3B3224",
"{ 	c #3A3224",
"] 	c #3A3123",
"^ 	c #393023",
"/ 	c #1C1A16",
"( 	c #BA9B5F",
"_ 	c #C4AB76",
": 	c #9C885E",
"< 	c #B09A6A",
"[ 	c #C4AA76",
"} 	c #C2A875",
"| 	c #C0A673",
"1 	c #AB9467",
"2 	c #95815A",
"3 	c #BDA472",
"4 	c #BBA271",
"5 	c #8F774A",
"6 	c #FCF1DB",
"7 	c #FAE8C8",
"8 	c #B1A58E",
"9 	c #2C2821",
"0 	c #665B48",
"a 	c #CFB07E",
"b 	c #E9C68F",
"c 	c #CDAE7D",
"d 	c #60513A",
"e 	c #292319",
"f 	c #A48B64",
"g 	c #E5C28C",
"h 	c #292929",
"i 	c #56482C",
"j 	c #F9E8C8",
"k 	c #AB9269",
"l 	c #070604",
"m 	c #5D4F38",
"n 	c #B1956B",
"o 	c #5D4E38",
"p 	c #070504",
"q 	c #282218",
"r 	c #A48963",
"s 	c #E1BD88",
"t 	c #272727",
"u 	c #E6C99E",
"v 	c #E4C18B",
"w 	c #9A825D",
"x 	c #282118",
"y 	c #272117",
"z 	c #99805C",
"A 	c #262626",
"B 	c #F6DCAF",
"C 	c #E2BE89",
"D 	c #877151",
"E 	c #100E0A",
"F 	c #877252",
"G 	c #2F2F2F",
"H 	c #E4C393",
"I 	c #C8A879",
"J 	c #050403",
"K 	c #C3A374",
"L 	c #DCB882",
"M 	c #DBB781",
"N 	c #64543B",
"O 	c #262016",
"P 	c #060504",
"Q 	c #5A4B35",
"R 	c #BF9F6F",
"S 	c #D7B37D",
"T 	c #333331",
"U 	c #DCB985",
"V 	c #7F694A",
"W 	c #060503",
"X 	c #261F16",
"Y 	c #8F7652",
"Z 	c #D2AE77",
"` 	c #8D7550",
" .	c #241E14",
"..	c #786342",
"+.	c #C6A26C",
"@.	c #DDB983",
"#.	c #D5B17A",
"$.	c #A38658",
"%.	c #54452D",
"&.	c #866D47",
"*.	c #C4A068",
"=.	c #C29E66",
"-.	c #C09C63",
";.	c #806841",
">.	c #4F3F27",
",.	c #957849",
"'.	c #B69259",
").	c #0E0E0E",
"!.	c #828282",
"                                ",
"                                ",
"  . + + + @                     ",
"# $ % & * = -                   ",
"@ ; > , ' ) ! ~ { ] ] ^ /       ",
"@ ( _ _ : < [ } | 1 2 3 4 @     ",
"5 6 7 8 9 0 a b c d e f g h     ",
"i j j k e l m n o p q r s t     ",
"+ j u v w x p y p q z s s +     ",
"A B u C C D E + E F C s s A     ",
"G B H C I o J p J o K L M G     ",
"@ B s I o p y N O P Q R S @     ",
"T C U V W X Y Z `  .W ..+.T     ",
"@ @.#.$.%.&.*.=.-.;.>.,.'.@     ",
"  ).+ + + + + + + + + + + !.    ",
"                                "};
