/* XPM */
const char * closed_folder_readonly_xpm[] = {
"16 16 75 1",
" 	c None",
".	c #1F1F1E",
"+	c #000000",
"@	c #1D1D1D",
"#	c #020201",
"$	c #FDECCD",
"%	c #FCDB9D",
"&	c #FCDB9E",
"*	c #FCDA9D",
"=	c #CBAF7E",
"-	c #2B2B2B",
";	c #FCEBCD",
">	c #F8D69A",
",	c #F6D499",
"'	c #F4D297",
")	c #F2D096",
"!	c #685940",
"~	c #3B3224",
"{	c #3A3224",
"]	c #3A3123",
"^	c #393023",
"/	c #1C1A16",
"(	c #BA9B5F",
"_	c #C4AB76",
":	c #C4AA76",
"<	c #C2A875",
"[	c #C0A673",
"}	c #BDA472",
"|	c #BBA271",
"1	c #8F774A",
"2	c #FCF1DB",
"3	c #FAE8C8",
"4	c #F9E8C8",
"5	c #F8E2BC",
"6	c #E7C48D",
"7	c #E6C38C",
"8	c #E5C28C",
"9	c #292929",
"0	c #56482C",
"a	c #EDCA92",
"b	c #EBC890",
"c	c #E2BF89",
"d	c #E2BE89",
"e	c #E1BD88",
"f	c #272727",
"g	c #E6C99E",
"h	c #E4C18B",
"i	c #E3BF8A",
"j	c #E0BC87",
"k	c #E0BC86",
"l	c #262626",
"m	c #F6DCAF",
"n	c #2F2F2F",
"o	c #E4C393",
"p	c #DCB882",
"q	c #DBB781",
"r	c #D8B47E",
"s	c #D7B37D",
"t	c #333331",
"u	c #CCA871",
"v	c #CAA66F",
"w	c #DDB983",
"x	c #D5B17A",
"y	c #CAA66E",
"z	c #C8A46C",
"A	c #C6A26A",
"B	c #C4A068",
"C	c #C29E66",
"D	c #C09C63",
"E	c #BE9A61",
"F	c #BB975E",
"G	c #B9955B",
"H	c #B69259",
"I	c #0E0E0E",
"J	c #828282",
"                ",
"                ",
" .+++@          ",
"#$%&*=-         ",
"@;>,')!~{]]^/   ",
"@(____:<[}|}|@  ",
"12345++++67889  ",
"044a+bcdd+eeef  ",
"+4gh+ijjk+dee+  ",
"lmg++++++++eel  ",
"nmo++++++++pqn  ",
"@me++++++++rs@  ",
"tde++++++++uvt  ",
"@wxyzABCDEFGH@  ",
" I+++++++++++J  ",
"                "};
