/* XPM */
const char * closed_folder_xpm[] = {
"16 16 88 1",
" 	c None",
".	c #1F1F1E",
"+	c #000000",
"@	c #1D1D1D",
"#	c #020201",
"$	c #FDECCD",
"%	c #FCDB9D",
"&	c #FCDB9E",
"*	c #FCDA9D",
"=	c #CBAF7E",
"-	c #2B2B2B",
";	c #FCEBCD",
">	c #F8D69A",
",	c #F6D499",
"'	c #F4D297",
")	c #F2D096",
"!	c #685940",
"~	c #3B3224",
"{	c #3A3224",
"]	c #3A3123",
"^	c #393023",
"/	c #1C1A16",
"(	c #BA9B5F",
"_	c #C4AB76",
":	c #C4AA76",
"<	c #C2A875",
"[	c #C0A673",
"}	c #BDA472",
"|	c #BBA271",
"1	c #8F774A",
"2	c #FCF1DB",
"3	c #FAE8C8",
"4	c #F9E8C8",
"5	c #F8E2BC",
"6	c #F6DCAF",
"7	c #EAC78F",
"8	c #E9C68F",
"9	c #E8C58E",
"0	c #E7C48D",
"a	c #E6C38C",
"b	c #E5C28C",
"c	c #292929",
"d	c #56482C",
"e	c #EDCA92",
"f	c #ECC991",
"g	c #EBC890",
"h	c #E2BF89",
"i	c #E2BE89",
"j	c #E1BD88",
"k	c #272727",
"l	c #E6C99E",
"m	c #E4C18B",
"n	c #E3C08A",
"o	c #E3BF8A",
"p	c #E0BC87",
"q	c #E0BC86",
"r	c #262626",
"s	c #2F2F2F",
"t	c #E4C393",
"u	c #DDB983",
"v	c #DCB882",
"w	c #DBB781",
"x	c #DAB681",
"y	c #D9B580",
"z	c #D8B47E",
"A	c #D7B37D",
"B	c #333331",
"C	c #D6B27C",
"D	c #D5B17A",
"E	c #D3AF79",
"F	c #D2AE77",
"G	c #D1AD76",
"H	c #CFAB74",
"I	c #CEAA73",
"J	c #CCA871",
"K	c #CAA66F",
"L	c #CAA66E",
"M	c #C8A46C",
"N	c #C6A26A",
"O	c #C4A068",
"P	c #C29E66",
"Q	c #C09C63",
"R	c #BE9A61",
"S	c #BB975E",
"T	c #B9955B",
"U	c #B69259",
"V	c #0E0E0E",
"W	c #828282",
"                ",
"                ",
" .+++@          ",
"#$%&*=-         ",
"@;>,')!~{]]^/   ",
"@(____:<[}|}|@  ",
"1234567890abbc  ",
"d44efghiijjjjk  ",
"+4lmnoppqiijj+  ",
"r6liijijhiijjr  ",
"s6tiijjjppuvws  ",
"@6jiijuvwxyzA@  ",
"BijACDEFGHIJKB  ",
"@uDLMNOPQRSTU@  ",
" V+++++++++++W  ",
"                "};
