/* XPM */
const char * closed_folder_locked_xpm[] = {
"16 16 75 1",
" 	c None",
".	c #1F1F1E",
"+	c #000000",
"@	c #1D1D1D",
"#	c #020201",
"$	c #FDECCD",
"%	c #FCDB9D",
"&	c #FCDB9E",
"*	c #FCDA9D",
"=	c #CBAF7E",
"-	c #2B2B2B",
";	c #FCEBCD",
">	c #F8D69A",
",	c #F6D499",
"'	c #F4D297",
")	c #F2D096",
"!	c #626262",
"~	c #C86D6B",
"{	c #4B4B4B",
"]	c #3A3123",
"^	c #393023",
"/	c #1C1A16",
"(	c #BA9B5F",
"_	c #C4AB76",
":	c #DFA8A7",
"<	c #BBA271",
"[	c #BDA472",
"}	c #8F774A",
"|	c #FCF1DB",
"1	c #FAE8C8",
"2	c #F9E8C8",
"3	c #F8E2BC",
"4	c #F6DCAF",
"5	c #BA6261",
"6	c #E6C38C",
"7	c #E5C28C",
"8	c #292929",
"9	c #56482C",
"0	c #EDCA92",
"a	c #ECC991",
"b	c #5B5B5B",
"c	c #4D4D4D",
"d	c #414141",
"e	c #383838",
"f	c #262626",
"g	c #E1BD88",
"h	c #272727",
"i	c #E6C99E",
"j	c #E4C18B",
"k	c #E3C08A",
"l	c #E3BF8A",
"m	c #E0BC87",
"n	c #E0BC86",
"o	c #E2BE89",
"p	c #2F2F2F",
"q	c #E4C393",
"r	c #DCB882",
"s	c #DBB781",
"t	c #D8B47E",
"u	c #D7B37D",
"v	c #333331",
"w	c #D6B27C",
"x	c #D5B17A",
"y	c #CEAA73",
"z	c #CCA871",
"A	c #CAA66F",
"B	c #DDB983",
"C	c #CAA66E",
"D	c #C8A46C",
"E	c #C6A26A",
"F	c #BB975E",
"G	c #B9955B",
"H	c #B69259",
"I	c #0E0E0E",
"J	c #828282",
"                ",
"                ",
" .+++@          ",
"#$%&*=-         ",
"@;>,')!~~{]^/   ",
"@(____!:~{<[<@  ",
"}|1234!~5{6778  ",
"9220abcdef+ggh  ",
"+2ijkblmmn+gg+  ",
"f4ioobcdef+ggf  ",
"p4qooblmmn+rsp  ",
"@4goobcdef+tu@  ",
"voguwx!~5{yzAv  ",
"@BxCDE!55{FGH@  ",
" I+++++++++++J  ",
"                "};
