/* XPM */
static char * EasyTAG_xpm[] = {
"60 60 568 2",
"  	c None",
". 	c #FFDB49",
"+ 	c #FEDB49",
"@ 	c #FEDA49",
"# 	c #FEDC49",
"$ 	c #FEDC48",
"% 	c #FEDD48",
"& 	c #FFDC49",
"* 	c #FEDD49",
"= 	c #FEDE49",
"- 	c #FEE04A",
"; 	c #FEE24A",
"> 	c #FEE349",
", 	c #FEE449",
"' 	c #FEE649",
") 	c #FEE748",
"! 	c #FEE848",
"~ 	c #FEE948",
"{ 	c #FDEA47",
"] 	c #FDEB47",
"^ 	c #FDEC45",
"/ 	c #FDED45",
"( 	c #FDEE44",
"_ 	c #FDED43",
": 	c #FDEB43",
"< 	c #FEDD4A",
"[ 	c #FEDF4B",
"} 	c #FDE04C",
"| 	c #FDE34D",
"1 	c #FEE54D",
"2 	c #FDE64E",
"3 	c #FDE74E",
"4 	c #FDE94F",
"5 	c #FDEA4F",
"6 	c #FCEC4F",
"7 	c #FDED4F",
"8 	c #FDEF4F",
"9 	c #FCF04F",
"0 	c #FCF14F",
"a 	c #FEE44B",
"b 	c #FCF24D",
"c 	c #FCF14C",
"d 	c #FCF14B",
"e 	c #FCF04A",
"f 	c #FDF049",
"g 	c #FDF048",
"h 	c #FDEF48",
"i 	c #FDEF47",
"j 	c #FDEF46",
"k 	c #FDEE46",
"l 	c #FDEE45",
"m 	c #FDED42",
"n 	c #FFDC4A",
"o 	c #FEDD4B",
"p 	c #FDDF4C",
"q 	c #FDE14E",
"r 	c #FDE450",
"s 	c #FDE651",
"t 	c #FDE852",
"u 	c #FDEA53",
"v 	c #FCEC54",
"w 	c #FCED55",
"x 	c #FCEF56",
"y 	c #FCEA52",
"z 	c #FBF056",
"A 	c #FAF558",
"B 	c #FBF759",
"C 	c #FBF658",
"D 	c #FBF657",
"E 	c #FBF556",
"F 	c #FBF555",
"G 	c #FBF554",
"H 	c #FBF453",
"I 	c #FBF452",
"J 	c #FCF351",
"K 	c #FCF350",
"L 	c #FCF24F",
"M 	c #FEE24B",
"N 	c #FEE046",
"O 	c #F9FB62",
"P 	c #F9FA61",
"Q 	c #FAFA60",
"R 	c #FAF95F",
"S 	c #FAF95E",
"T 	c #FAF95D",
"U 	c #FAF85D",
"V 	c #FAF85C",
"W 	c #FBF258",
"X 	c #FBF156",
"Y 	c #FAF759",
"Z 	c #FEE64B",
"` 	c #FFDE4A",
" .	c #FEE843",
"..	c #FEE14E",
"+.	c #FAF65A",
"@.	c #FCED54",
"#.	c #FDEA4C",
"$.	c #FCF14D",
"%.	c #FEEC41",
"&.	c #FFDE48",
"*.	c #FCE451",
"=.	c #FAF85B",
"-.	c #FEDE4B",
";.	c #FDE851",
">.	c #FCEF4D",
",.	c #FDEB4C",
"'.	c #FEE544",
").	c #FCEC57",
"!.	c #FDE44F",
"~.	c #FEE24D",
"{.	c #FCF24E",
"].	c #FDE94C",
"^.	c #FEEB41",
"/.	c #FEDB48",
"(.	c #FAF55F",
"_.	c #F9FB63",
":.	c #F9FA62",
"<.	c #FAFA61",
"[.	c #FAF960",
"}.	c #FBEF56",
"|.	c #FAF75A",
"1.	c #FBF659",
"2.	c #FBF557",
"3.	c #FBF454",
"4.	c #FCF04B",
"5.	c #FFE345",
"6.	c #F9FB64",
"7.	c #FAF75B",
"8.	c #FEEA41",
"9.	c #FDE754",
"0.	c #FDE94B",
"a.	c #FEEC40",
"b.	c #FBF05C",
"c.	c #FDE650",
"d.	c #FCF156",
"e.	c #FDEC4C",
"f.	c #FDEA4B",
"g.	c #E0D743",
"h.	c #DACF41",
"i.	c #FCF049",
"j.	c #F4E746",
"k.	c #F9EB46",
"l.	c #EFE143",
"m.	c #C8BC37",
"n.	c #E3D63E",
"o.	c #BEB234",
"p.	c #D9CB3A",
"q.	c #B7AC31",
"r.	c #D6C839",
"s.	c #FEE045",
"t.	c #F9F963",
"u.	c #FAF85E",
"v.	c #FAF75C",
"w.	c #FEE34E",
"x.	c #D8D34A",
"y.	c #A6A238",
"z.	c #BDB73F",
"A.	c #ADA93A",
"B.	c #B0AB3A",
"C.	c #BFB93F",
"D.	c #9F9934",
"E.	c #CEC642",
"F.	c #D9D045",
"G.	c #BEB73C",
"H.	c #E5DC48",
"I.	c #ABA435",
"J.	c #BAA536",
"K.	c #CFB53C",
"L.	c #BAB138",
"M.	c #A79F32",
"N.	c #A79F31",
"O.	c #B0A733",
"P.	c #90882A",
"Q.	c #A59C2F",
"R.	c #A49B2E",
"S.	c #EADC42",
"T.	c #B5AA32",
"U.	c #9F962C",
"V.	c #A69C2E",
"W.	c #A99E2D",
"X.	c #ADA22F",
"Y.	c #FEEC42",
"Z.	c #FEE04D",
"`.	c #F9FB65",
" +	c #FCF055",
".+	c #9D9935",
"++	c #DDD74A",
"@+	c #C0BB40",
"#+	c #AFAA3A",
"$+	c #C3BD41",
"%+	c #BAB33C",
"&+	c #AAA437",
"*+	c #A9A336",
"=+	c #807B28",
"-+	c #E6DD48",
";+	c #AAA335",
">+	c #A99E33",
",+	c #AC9431",
"'+	c #D4C13F",
")+	c #898229",
"!+	c #B7AE36",
"~+	c #C1B738",
"{+	c #A49B2F",
"]+	c #9E952D",
"^+	c #C0B636",
"/+	c #B6AB33",
"(+	c #D6C93B",
"_+	c #FBEC45",
":+	c #BEB233",
"<+	c #E6D73E",
"[+	c #FEE444",
"}+	c #FDE350",
"|+	c #FEE14D",
"1+	c #FEE04C",
"2+	c #E2DD4E",
"3+	c #787529",
"4+	c #C2BD41",
"5+	c #928E31",
"6+	c #A5A137",
"7+	c #C8C242",
"8+	c #B9B33C",
"9+	c #C5BE3F",
"0+	c #CCC441",
"a+	c #B8B13A",
"b+	c #C5BD3E",
"c+	c #C6BE3D",
"d+	c #D3CA40",
"e+	c #EDD546",
"f+	c #E7C742",
"g+	c #F7E94A",
"h+	c #FDF04A",
"i+	c #FDEF49",
"j+	c #FDEE47",
"k+	c #FDED44",
"l+	c #FDE753",
"m+	c #FCF257",
"n+	c #FDEB52",
"o+	c #FAF456",
"p+	c #FCF352",
"q+	c #FCF250",
"r+	c #E8D144",
"s+	c #C1B839",
"t+	c #F4E745",
"u+	c #777021",
"v+	c #534E17",
"w+	c #5D581A",
"x+	c #575218",
"y+	c #3B3810",
"z+	c #FFE146",
"A+	c #FBF75A",
"B+	c #FDE64F",
"C+	c #FFDD4A",
"D+	c #FBF457",
"E+	c #D5CD45",
"F+	c #4F4C19",
"G+	c #54511B",
"H+	c #3C3913",
"I+	c #413F14",
"J+	c #4C4918",
"K+	c #141306",
"L+	c #FDE74B",
"M+	c #62541C",
"N+	c #141206",
"O+	c #DACF40",
"P+	c #514D17",
"Q+	c #877F26",
"R+	c #EADC40",
"S+	c #191807",
"T+	c #FCEC44",
"U+	c #FEDF4D",
"V+	c #EEEF5E",
"W+	c #E3E358",
"X+	c #D8D854",
"Y+	c #C8C74D",
"Z+	c #B8B747",
"`+	c #A6A53F",
" @	c #A9A83F",
".@	c #FBF458",
"+@	c #FDE850",
"@@	c #C8C141",
"#@	c #686522",
"$@	c #636020",
"%@	c #96902F",
"&@	c #FAEF4C",
"*@	c #F5E94A",
"=@	c #201C09",
"-@	c #9E952F",
";@	c #635E1D",
">@	c #E3D641",
",@	c #111005",
"'@	c #FAEB46",
")@	c #827A23",
"!@	c #F4E542",
"~@	c #FEE942",
"{@	c #878835",
"]@	c #5A5A23",
"^@	c #121207",
"/@	c #868634",
"(@	c #9A993B",
"_@	c #9C9C3B",
":@	c #323213",
"<@	c #F4F15A",
"[@	c #F6F359",
"}@	c #E3D048",
"|@	c #9F9233",
"1@	c #A7A33A",
"2@	c #B4B03E",
"3@	c #A4A038",
"4@	c #88842E",
"5@	c #757227",
"6@	c #C6C042",
"7@	c #676422",
"8@	c #504E1B",
"9@	c #716D25",
"0@	c #696622",
"a@	c #777326",
"b@	c #88832B",
"c@	c #847F29",
"d@	c #EFE549",
"e@	c #ACA434",
"f@	c #5D591C",
"g@	c #F7EB4A",
"h@	c #201E09",
"i@	c #E0D441",
"j@	c #C9BE39",
"k@	c #27250B",
"l@	c #C0B435",
"m@	c #5F591A",
"n@	c #3B3710",
"o@	c #474213",
"p@	c #B8AD31",
"q@	c #FEE445",
"r@	c #FBF05B",
"s@	c #F9FC64",
"t@	c #F9FC63",
"u@	c #E1E257",
"v@	c #292910",
"w@	c #868633",
"x@	c #CECE4E",
"y@	c #404018",
"z@	c #D5D54F",
"A@	c #51501E",
"B@	c #6A6927",
"C@	c #3D3C16",
"D@	c #A9A83D",
"E@	c #E3E051",
"F@	c #3D3C15",
"G@	c #BEBB43",
"H@	c #ADA93C",
"I@	c #494719",
"J@	c #E6E14F",
"K@	c #8B882F",
"L@	c #BBB63E",
"M@	c #6A6723",
"N@	c #FCF452",
"O@	c #F3EB4E",
"P@	c #87822B",
"Q@	c #797426",
"R@	c #545019",
"S@	c #353210",
"T@	c #605C1D",
"U@	c #2D2A0D",
"V@	c #6B651F",
"W@	c #E8DB42",
"X@	c #090903",
"Y@	c #F5E845",
"Z@	c #5B5518",
"`@	c #A99F2D",
" #	c #FEED42",
".#	c #FEDF47",
"+#	c #FDE24F",
"@#	c #F1F15D",
"##	c #0E0E05",
"$#	c #919138",
"%#	c #3B3B17",
"&#	c #C3C34A",
"*#	c #C8C74B",
"=#	c #9B9A3A",
"-#	c #666626",
";#	c #9E9C39",
">#	c #54531E",
",#	c #DDDA4E",
"'#	c #353412",
")#	c #A9A53B",
"!#	c #B8B540",
"~#	c #A19D37",
"{#	c #FBF656",
"]#	c #F6F053",
"^#	c #302F10",
"/#	c #EDE74F",
"(#	c #696623",
"_#	c #C2BC40",
":#	c #979230",
"<#	c #696521",
"[#	c #EFE449",
"}#	c #1D1C09",
"|#	c #F6EB49",
"1#	c #FDEA4A",
"2#	c #F5DD47",
"3#	c #171607",
"4#	c #E7DB43",
"5#	c #555018",
"6#	c #746E21",
"7#	c #FCED46",
"8#	c #E1D33D",
"9#	c #1F1D08",
"0#	c #918727",
"a#	c #FEEB42",
"b#	c #FAF660",
"c#	c #FAFB62",
"d#	c #0C0C05",
"e#	c #E9E95A",
"f#	c #8E8E36",
"g#	c #ACAC42",
"h#	c #AEAD42",
"i#	c #DDDC53",
"j#	c #DCDB53",
"k#	c #5A5921",
"l#	c #6F6E29",
"m#	c #424218",
"n#	c #E9E553",
"o#	c #DFDB50",
"p#	c #A5A33B",
"q#	c #938F33",
"r#	c #7E762A",
"s#	c #26250D",
"t#	c #DED94C",
"u#	c #979433",
"v#	c #807D2B",
"w#	c #373512",
"x#	c #FAF353",
"y#	c #A29D34",
"z#	c #504D19",
"A#	c #F9EF4E",
"B#	c #F9EF4D",
"C#	c #E7DE47",
"D#	c #827C28",
"E#	c #343210",
"F#	c #B1A935",
"G#	c #F8DF48",
"H#	c #96822B",
"I#	c #25230B",
"J#	c #373410",
"K#	c #7A7323",
"L#	c #F3E545",
"M#	c #6F691F",
"N#	c #423E12",
"O#	c #4F4A16",
"P#	c #5A5418",
"Q#	c #B6AA31",
"R#	c #B0A52F",
"S#	c #FEE744",
"T#	c #FCE754",
"U#	c #161609",
"V#	c #F4F45F",
"W#	c #DADA54",
"X#	c #D8D853",
"Y#	c #828231",
"Z#	c #BFBE48",
"`#	c #5F5E24",
" $	c #BAB945",
".$	c #D7D54F",
"+$	c #323212",
"@$	c #878530",
"#$	c #A6A33C",
"$$	c #58571F",
"%$	c #F3EC54",
"&$	c #F4D246",
"*$	c #454016",
"=$	c #DBD64B",
"-$	c #23220C",
";$	c #FBF252",
">$	c #57541C",
",$	c #4D4A18",
"'$	c #56531B",
")$	c #BEB73B",
"!$	c #938E2E",
"~$	c #817C27",
"{$	c #9C952F",
"]$	c #A19A31",
"^$	c #F6E348",
"/$	c #C8AC39",
"($	c #D9CC40",
"_$	c #E4D842",
":$	c #F2E545",
"<$	c #FFE346",
"[$	c #FEDB4A",
"}$	c #EDEF5E",
"|$	c #CBCB4F",
"1$	c #131307",
"2$	c #97973B",
"3$	c #A1A13E",
"4$	c #8E8E37",
"5$	c #333313",
"6$	c #ABAA40",
"7$	c #A1A03C",
"8$	c #414118",
"9$	c #646325",
"0$	c #595821",
"a$	c #575620",
"b$	c #4E4D1C",
"c$	c #C9C749",
"d$	c #6E6C27",
"e$	c #656323",
"f$	c #675B1E",
"g$	c #BFAE3C",
"h$	c #C5C143",
"i$	c #B5B03E",
"j$	c #3E3D15",
"k$	c #D7D148",
"l$	c #FCED4B",
"m$	c #FEEA4A",
"n$	c #FCED58",
"o$	c #C5C64E",
"p$	c #77782F",
"q$	c #95963A",
"r$	c #A4A440",
"s$	c #B4B445",
"t$	c #C7C74C",
"u$	c #CECD4E",
"v$	c #F4F35C",
"w$	c #F1F05A",
"x$	c #EFED58",
"y$	c #FEE54E",
"z$	c #FEE14C",
"A$	c #8B8830",
"B$	c #434117",
"C$	c #58561E",
"D$	c #969232",
"E$	c #FEE74A",
"F$	c #FBF75B",
"G$	c #FDE951",
"H$	c #E0DA4D",
"I$	c #EFE951",
"J$	c #FCF453",
"K$	c #FCF04E",
"L$	c #FCEE4C",
"M$	c #FDEB4B",
"N$	c #FFDD49",
"O$	c #FFE249",
"P$	c #FEE148",
"Q$	c #FEDF48",
"R$	c #FEDE48",
"S$	c #FAF961",
"T$	c #FDEC52",
"U$	c #FCF255",
"V$	c #FCEF53",
"W$	c #FCEE52",
"X$	c #FCEC51",
"Y$	c #FDEA50",
"Z$	c #FDE84F",
"`$	c #FEE74E",
" %	c #FEE34C",
".%	c #FEE14B",
"+%	c #FEDF4A",
"@%	c #FBF15B",
"#%	c #FAFA62",
"$%	c #FBF65E",
"%%	c #FBF45C",
"&%	c #FBF25A",
"*%	c #FCEF58",
"=%	c #FCED56",
"-%	c #FCEB54",
";%	c #FDE953",
">%	c #FDE751",
",%	c #FDE550",
"'%	c #FCE24E",
")%	c #FDDE4B",
"                                                                                                                        ",
"                                                                                                                        ",
"                                                                                                                        ",
"                                                                                                                        ",
"                                                                                                                        ",
"                                                                                                                        ",
"                                                                                                                        ",
"                                                                                                                        ",
"                                                                                                                        ",
"                                                                                                                        ",
"                                                                                                                        ",
"                                                                                                                        ",
"                                                                                                                        ",
"                                                                                                                        ",
"                                                                                                          . . .         ",
"                                                                          . . . . + + + @ . . . . . . . # $ % .         ",
"                                          . . . . . & . @ . . . . . . + . * = - ; > , ' ) ! ~ { ] ^ / ( _ _ : .         ",
"          + . . . + + + + . . . . . . . # < [ } | 1 2 3 4 5 6 7 8 9 0 - a b c c d e e f g h i j k l l ( _ _ m $ .       ",
"      . n o p q r s t u v w x y . z A B C D D E F F G H H I I J K K L M M b c c d e e f g h i j k l l ( _ _ m N .       ",
"    . o O O P Q Q R R S T U V W . X Y B C D D E F F G H H I I J K K L Z ` b c c d e e f g h i j k l l ( _ _ m  ..       ",
"    . ..O O P Q Q R R S T U V +.. @.Y B C D D E F F G H H I I J K K L #.. $.c c d e e f g h i j k l l ( _ _ m %.&..     ",
"    + *.O O P Q Q R R S T U V =.-.;.Y B C D D E F F G H H I I J K K L >.. ,.c c d e e f g h i j k l l ( _ _ m %.'..     ",
"    . ).O O P Q Q R R S T U V =.!.~.Y B C D D E F F G H H I I J K K L {.].$.c c d e e f g h i j k l l ( _ _ m %.^./..   ",
"    . (._._.:.<.<.[.R R S U U V }.w |.B 1.C D 2.E F F 3.H H I J J K L L {.b $.c d 4.e f f h i i k l l ( _ _ m %.%.5..   ",
"  . o 6._._.:.<.<.[.R R S U U V 7.7.|.B 1.C D 2.E F F 3.H H I J J K L L {.b $.c d 4.e f f h i i k l l ( _ _ m %.%.8..   ",
"  + 9.6._._.:.<.<.[.R R S U U V 7.7.|.B 1.C D 2.E F F 3.H H I J J K L L {.0.- c d 4.e f f h i i k l l ( _ _ m %.%.a.% . ",
"  . b.6._._.:.<.<.[.R R S U U V 7.+.c.d.1.C D 2.E F F 3.H H I J J K L L {.e.. f.g.h.e f i.j.k.l.m.n.o.p.q.r.m %.%.a.s.. ",
"  . t.6._._.:.<.<.[.[.R S u.U V v.7.[ w.1.C C 2.E x.y.z.A.B.C.D.E.J F.G.H.I.J.K.L.M.4.N.O.P.Q.R.S.T.U.V.W.X._ Y.Y.%.'.. ",
". Z.`.6._._.:.<.<.[.[.R S u.U V v.7.@..  +C C 2.E E .+++@+#+$+%+&+J *+=+-+;+>+,+'+)+4.!+~+{+]+^+/+(+T._+:+<+_ Y.Y.%.[+. ",
". }+`.6._._.:.<.<.[.[.R S u.U V v.7.|.|+1+C C 2.E 2+3+4+5+6+7+8+9+J 0+a+b+c+d+e+f+g+4.h+f i+h i j+k k l k+k+_ Y.Y.%.5.+ ",
". l+`.6._._.:.<.<.[.[.R S u.U V v.7.|.m+. n+C 2.E o+F 3.3.H H p+J J q+L L {.$.>.& r+s+h+f i+h t+u+v+w+x+y+k+_ Y.Y.%.z+. ",
". l+`.6._._.:.<.<.[.[.R S u.U V v.7.|.A+B+C+D+2.E E F 3.3.H H E+F+G+H+I+J+K+$.$.L+M+N+O+f i+h P+Q+k k R+S+T+_ Y.Y.%.$ . ",
". U+`.6._._.V+W+X+Y+Z+`+ @u.U V v.7.|.A+.@n +@2.E E F 3.3.H H @@#@J $@%@L J+&@$.*@=@-@;@f i+>@,@'@k k l )@!@_ Y.Y.~@.   ",
"  . t.6._._.{@]@^@/@(@_@:@u.U V <@[@|.A+1.}@|@1@2@3@4@5@6@7@8@9@0@J a@b@L c@d@$.e@f@g@h@i@i+j@k@j+k l@m@n@o@p@Y.Y.q@+   ",
"  . r@s@t@t@O u@v@Q w@x@y@S z@A@B@C@D@A+E@F@G@H@I@J@K@5@G L@M@N@O@J P@Q@L {.b $.R@S@T@U@V@f W@X@Y@k k l Z@`@_  #Y..#+   ",
"  + +#s@t@t@O @###$#%#&#*#S =#-#V ;#>#A+,#'#)#!#~#{#]#^#/#(#_#N@J J :#<#L {.b [#}#|#1#2#3#4#h 5#6#7#k 8#9#0#_  #a#@     ",
"    . b#s@s@_.c#d#e#f#g#h#i#j#-#k#l#m#n#o#p#q#r#s#t#E u#v#w#x#N@p+J y#z#A#B#C#D#E#F#G#H#I#J#K#L#M#N#O#P#Q#R#_  #S#.     ",
"    + T#s@s@_.c#U#V#W#X#Y#Z#`# $V .$+$@$#$$$%$&$*$=$E ]#-$5@H N@;$>$,$F+'$)$!$~${$]$^$/$($_$:$h i k k l k+k+_  #<$+     ",
"      [$:.s@}$|$1$2$3$4$5$6$7$8$9$0$a$b$c$d$e$f$g$h$i$F j$k$H N@p+J K K L {.{.$.c c l$. m$f h h i k k l k+k+_  #z++     ",
"      . n$s@o$p$q$r$s$t$u$v$S w$x$V =.A+A+B C y$z$A$B$C$D$3.H N@p+J K K L {.{.$.c c 4.. E$f h h i k k l k+k+_ Y..#+     ",
"      . U+s@_.c#c#<.<.Q R R S T U V =.F$A+B 1.G$C+D H$I$F 3.3.J$p+p+J K q+L {.K$>.L$M$N$O$E$' , > P$Q$R$% # + . . .     ",
"        . S$_.c#c#<.<.Q R R S T U V =.F$A+B 1.T$. U$V$W$X$Y$Z$`$1  %.%+%< N$. . . . . . . . . + . + @ . +               ",
"        . @%_.#%[.$%%%&%*%=%-%;%>%,%'%|+)%< + . . . . . . . + + + + . + .                                               ",
"        n C+n . . . . . . @ + + & . + . . .                                                                             ",
"          .                                                                                                             ",
"                                                                                                                        ",
"                                                                                                                        ",
"                                                                                                                        ",
"                                                                                                                        ",
"                                                                                                                        ",
"                                                                                                                        ",
"                                                                                                                        ",
"                                                                                                                        ",
"                                                                                                                        ",
"                                                                                                                        ",
"                                                                                                                        ",
"                                                                                                                        ",
"                                                                                                                        ",
"                                                                                                                        ",
"                                                                                                                        "};
