/* XPM */
static char * first_letter_uppercase_word_xpm[] = {
"20 20 2 1",
" 	c None",
".	c #000000",
"                    ",
"                    ",
"                    ",
"                    ",
"                    ",
"                    ",
"                    ",
"  ...         ...   ",
"   ..          ..   ",
"  . ..        . ..  ",
"  ....        ....  ",
"  .  .        .  .  ",
" .. ...      .. ... ",
"                    ",
"                    ",
"                    ",
"                    ",
"                    ",
"                    ",
"                    "};
