/* XPM */
static char * forbidden_xpm[] = {
"20 20 68 1",
" 	c None",
".	c #E79694",
"+	c #F7A6A5",
"@	c #EF6163",
"#	c #EF3031",
"$	c #EF1818",
"%	c #EF0C08",
"&	c #EF2829",
"*	c #E7595A",
"=	c #FFBABD",
"-	c #EF4D4A",
";	c #F73031",
">	c #F74D4A",
",	c #F74542",
"'	c #EF1010",
")	c #EF0000",
"!	c #F7A2A5",
"~	c #FF8A8C",
"{	c #FF9A9C",
"]	c #EF2C29",
"^	c #EF0400",
"/	c #EF3839",
"(	c #FFD7D6",
"_	c #F79694",
":	c #AD2021",
"<	c #7B3C39",
"[	c #BD2C08",
"}	c #FFA6A5",
"|	c #FF9E9C",
"1	c #F72021",
"2	c #C62421",
"3	c #BDBABD",
"4	c #F74139",
"5	c #F79A9C",
"6	c #E70808",
"7	c #F7494A",
"8	c #F78A8C",
"9	c #CE3031",
"0	c #F76563",
"a	c #F75552",
"b	c #EF3439",
"c	c #9C2021",
"d	c #9C2421",
"e	c #B52829",
"f	c #A53839",
"g	c #AD3C39",
"h	c #CE1010",
"i	c #8C3839",
"j	c #EF1410",
"k	c #A53C10",
"l	c #E70400",
"m	c #EF0808",
"n	c #944D4A",
"o	c #C63839",
"p	c #EFAEAD",
"q	c #CE0C08",
"r	c #D63800",
"s	c #D63839",
"t	c #DE5552",
"u	c #AD1C18",
"v	c #CE4142",
"w	c #DE595A",
"x	c #F73C39",
"y	c #BD1818",
"z	c #D60808",
"A	c #843431",
"B	c #843C39",
"C	c #AD5D5A",
"         ..         ",
"      +@#$%&*.      ",
"    =-;>,'))))*     ",
"   !#~{]^))))))*    ",
"  =/(_&:<   [)))*   ",
"  -}|)12     3)))*  ",
" +456)789     3)))  ",
" 0abcd)78[     [))e ",
" ]4%< f)78g     ))hi",
".j1)   f)78k    ))li",
".'m)    f)78[   ))li",
" &))n    f)78o p))qi",
" *))c     r)78st))u ",
" .)))p     v)78'))i ",
"  h)))w     v)x')y  ",
"   h)))wp  pw^))z<  ",
"    h))))))))))zA   ",
"     h))))))))yB    ",
"      Cehllqui      ",
"         ii         "};
