/* XPM */
const char * freedb_xpm[] = {
"16 16 67 1",
" 	c None",
".	c #C8D4E6",
"+	c #D0DAEA",
"@	c #829DC6",
"#	c #7492C0",
"$	c #7392C0",
"%	c #9BB1D1",
"&	c #D7DFEC",
"*	c #EDF1F7",
"=	c #AABDD9",
"-	c #FEFEFE",
";	c #FFFFFF",
">	c #F9FAFC",
",	c #456EAB",
"'	c #94ACCE",
")	c #6889BA",
"!	c #4E75AF",
"~	c #94ABCE",
"{	c #6284B8",
"]	c #587CB3",
"^	c #CDD8E8",
"/	c #B2C3DC",
"(	c #95ACCF",
"_	c #7694C1",
":	c #849FC7",
"<	c #A4B8D6",
"[	c #7493C0",
"}	c #C5D2E5",
"|	c #7593C0",
"1	c #859FC7",
"2	c #CFD9E9",
"3	c #99AFD1",
"4	c #B8C7DE",
"5	c #9AB0D1",
"6	c #CDD7E8",
"7	c #9FB4D3",
"8	c #B7C6DE",
"9	c #BECCE1",
"0	c #7795C1",
"a	c #7F9BC5",
"b	c #7190BE",
"c	c #A2B7D5",
"d	c #BBCAE0",
"e	c #9EB3D3",
"f	c #C0CDE2",
"g	c #B1C2DC",
"h	c #88A2C9",
"i	c #ADBFDA",
"j	c #C6D2E5",
"k	c #EFF2F7",
"l	c #F0F4F8",
"m	c #F2F5F9",
"n	c #EEF2F7",
"o	c #EDF1F6",
"p	c #F0F3F8",
"q	c #EAEFF5",
"r	c #28579E",
"s	c #24549C",
"t	c #29589E",
"u	c #28589E",
"v	c #27569D",
"w	c #DDE5EF",
"x	c #D6DFEC",
"y	c #D6DFED",
"z	c #D4DDEB",
"A	c #D3DCEB",
"B	c #E0E7F1",
"                ",
"                ",
"                ",
"                ",
"                ",
" .+++++++@#$#$#%",
"&*=-;;;;>,')!~{]",
"^/(_:_<[}|12345@",
"6789[0abc7defghi",
"jklmnopqarrstuvw",
" xyyyyyxzAAAAAB ",
"                ",
"                ",
"                ",
"                ",
"                "};
