/* XPM */
const char * gnudb_xpm[] = {
"16 16 72 1",
" 	c None",
".	c #F9FAFF",
"+	c #F4F5FF",
"@	c #F5F6FF",
"#	c #F6F7FF",
"$	c #F7F8FF",
"%	c #F8F9FF",
"&	c #F2F3FF",
"*	c #F3F4FF",
"=	c #C5CDE4",
"-	c #9EABCC",
";	c #A3B0D0",
">	c #DEE2F3",
",	c #7C8EB8",
"'	c #647AAA",
")	c #B2BCD9",
"!	c #7689B5",
"~	c #7285B2",
"{	c #C1C9E1",
"]	c #BFC7E0",
"^	c #A4B0D0",
"/	c #788BB6",
"(	c #687DAC",
"_	c #576FA2",
":	c #7B8DB8",
"<	c #B9C2DD",
"[	c #B1BBD8",
"}	c #C8CFE6",
"|	c #9BA9CB",
"1	c #ACB7D5",
"2	c #AEB9D6",
"3	c #697DAC",
"4	c #DFE3F4",
"5	c #BAC3DD",
"6	c #99A7C9",
"7	c #E8EBF9",
"8	c #8E9EC3",
"9	c #CFD5EA",
"0	c #8596BE",
"a	c #657AAA",
"b	c #B7C0DC",
"c	c #AFB9D6",
"d	c #B3BDD9",
"e	c #798CB6",
"f	c #8D9CC2",
"g	c #899AC0",
"h	c #7488B4",
"i	c #5D74A6",
"j	c #94A3C6",
"k	c #A8B4D2",
"l	c #D9DEF0",
"m	c #9EABCD",
"n	c #EAECFA",
"o	c #EBEDFB",
"p	c #D8DDEF",
"q	c #DDE1F2",
"r	c #DCE0F2",
"s	c #E6E9F8",
"t	c #DBE0F1",
"u	c #D6DBEE",
"v	c #EFF0FD",
"w	c #F0F1FE",
"x	c #B6BFDB",
"y	c #C3CBE2",
"z	c #F1F3FF",
"A	c #F1F2FF",
"B	c #EBECFF",
"C	c #ECEDFF",
"D	c #EDEEFF",
"E	c #EEEFFF",
"F	c #EFF0FF",
"G	c #F0F1FF",
"................",
"+@##$$%%........",
"&&&&&&&&&**++++@",
"&&&&&&&&&&&&&&&&",
"&&&&&&&&&&&&&&&&",
"&&&&&&&&&&&=-;&&",
">,')!~{)]^/(-_:<",
"[}|1[211<345-678",
"90a1bcd,efgh-ijk",
"lme4n7opqnprstuv",
"wxyz&&&&&&&&&&&&",
"&&&&&&&&&&&&&&&&",
"A&&&&&&&&&&&&&&&",
"BCCDEFFGAA&&&&&&",
"BBBBBBBBBBCDDEFG",
"BBBBBBBBBBBBBBBB"};
