/* XPM */
static char * invert_selection_xpm[] = {
"20 20 5 1",
" 	c None",
".	c #000000",
"+	c #FFFFFF",
"@	c #606060",
"#	c #00009C",
"                    ",
"                    ",
"  ................  ",
"  .++++++++++++++.  ",
"  .++++++++++++++.  ",
"  .@@@@@@@@@@@@@@.  ",
"  .++++++++++++++.  ",
"  .++++++++++++++.  ",
"  .@@@@@@@@@@@@@@.  ",
"  .++++++++++++++.  ",
"  .++++++++++++++.  ",
"  .@@@@@@@@@@@@@@.  ",
"  .##############.  ",
"  .##############.  ",
"  .@@@@@@@@@@@@@@.  ",
"  .##############.  ",
"  .##############.  ",
"  ................  ",
"                    ",
"                    "};
