/* XPM */
static char * mask_xpm[] = {
"20 20 100 2",
"  	c None",
". 	c #000000",
"+ 	c #B892F1",
"@ 	c #8559C9",
"# 	c #DCCB94",
"$ 	c #B48DEE",
"% 	c #8B60CD",
"& 	c #885CCA",
"* 	c #8E7D45",
"= 	c #B690F0",
"- 	c #B38CED",
"; 	c #AF88EA",
"> 	c #AB83E7",
", 	c #A77FE4",
"' 	c #A47BE1",
") 	c #A077DE",
"! 	c #9C73DB",
"~ 	c #996FD8",
"{ 	c #956BD5",
"] 	c #9166D2",
"^ 	c #8E62CF",
"/ 	c #8A5ECC",
"( 	c #B58EEF",
"_ 	c #B18AEC",
": 	c #AD86E9",
"< 	c #AA82E6",
"[ 	c #A67EE3",
"} 	c #A27AE0",
"| 	c #9F75DD",
"1 	c #9B71DA",
"2 	c #976DD7",
"3 	c #9469D4",
"4 	c #9065D1",
"5 	c #8C61CE",
"6 	c #B791F0",
"7 	c #B38DED",
"8 	c #B089EA",
"9 	c #AC84E8",
"0 	c #A880E5",
"a 	c #A57CE2",
"b 	c #A178DF",
"c 	c #9D74DC",
"d 	c #9A70D9",
"e 	c #966CD6",
"f 	c #9267D3",
"g 	c #9165D2",
"h 	c #040206",
"i 	c #B68FEF",
"j 	c #B28BEC",
"k 	c #AE87E9",
"l 	c #4A356B",
"m 	c #A076DE",
"n 	c #9C72DB",
"o 	c #986ED8",
"p 	c #946AD5",
"q 	c #4E3871",
"r 	c #8356C8",
"s 	c #B48EEE",
"t 	c #B18AEB",
"u 	c #AD85E8",
"v 	c #9E75DC",
"w 	c #9A71D9",
"x 	c #976CD7",
"y 	c #9368D4",
"z 	c #8154C6",
"A 	c #AB84E7",
"B 	c #A880E4",
"C 	c #9D73DB",
"D 	c #8356C7",
"E 	c #AE86E9",
"F 	c #A37AE0",
"G 	c #9F76DD",
"H 	c #9B72DA",
"I 	c #D4C38D",
"J 	c #8559C8",
"K 	c #AC85E8",
"L 	c #A981E5",
"M 	c #9E74DC",
"N 	c #9368D3",
"O 	c #0E0914",
"P 	c #261A38",
"Q 	c #875BCA",
"R 	c #8457C7",
"S 	c #956AD5",
"T 	c #8D62CF",
"U 	c #865AC9",
"V 	c #8255C6",
"W 	c #A67DE3",
"X 	c #A279E0",
"Y 	c #9E75DD",
"Z 	c #966BD6",
"` 	c #8E63D0",
" .	c #8B5FCD",
"..	c #8558C8",
"+.	c #A178DE",
"@.	c #9D73DC",
"#.	c #986ED7",
"$.	c #9C72DA",
"%.	c #8F64D0",
"&.	c #8457C8",
"                                        ",
"                                        ",
"  .                             .   .   ",
". + . .                     . . @ . # . ",
". + + $ . . . . . . . . . . % & . # * . ",
". + = - ; > , ' ) ! ~ { ] ^ / . # * .   ",
". + ( _ : < [ } | 1 2 3 4 5 . # * .     ",
". 6 7 8 9 0 a b c d e f g . # * . h     ",
". i j k l . l m n o p q . # * . r .     ",
". s t u l . l v w x y . # * . z z .     ",
"  . ; A B ' ) C ~ p . # * . D z .       ",
"  . E < [ F G H x . I * . J z z .       ",
"  . K L a b M d e N O P Q R z z .       ",
"    . , ' ) ! o S ] T / U V z .         ",
"    . W X Y l Z f `  .l ..z z .         ",
"      . +.@.#.. . . . @ D z .           ",
"        . $.#.Z %.% & &.V .             ",
"          . e N %.% & &..               ",
"            . ] ^ / U .                 ",
"              . . . .                   "};
