/* XPM */
const char * musicbrainz_xpm[] = {
"16 16 17 1",
" 	c None",
".	c #736CAE",
"+	c #1A1624",
"@	c #000000",
"#	c #474C49",
"$	c #29292E",
"%	c #6E6E77",
"&	c #CBD6CF",
"*	c #FDFFFF",
"=	c #9C9E93",
"-	c #BDBDBC",
";	c #616259",
">	c #FFFFFF",
",	c #4D4A64",
"'	c #FFC961",
")	c #AC833E",
"!	c #A1A9A4",
" .........+@#$. ",
".......$@+%&*@..",
".....$@$=****@..",
"....$#-******@..",
"....@-***&;@*@..",
"....@>*=$@+@*@..",
"....@>+@$,,@*@..",
"....@>@,+@@@*@..",
"....@>@@#&***@..",
"''''@>@$****&@''",
"')+@@>@+!**=$$''",
")+%--&@$@@@@$'''",
"@&****@'''''''''",
"@&***#+'''''''''",
")@$#@+''''''''''",
" '))''''''''''' "};
