/* XPM */
static char * parent_folder_xpm[] = {
"16 16 101 2",
"  	c None",
". 	c #1D1D1D",
"+ 	c #000000",
"@ 	c #FDECCD",
"# 	c #FCDB9D",
"$ 	c #FCDB9E",
"% 	c #FCDA9D",
"& 	c #CBAF7E",
"* 	c #2B2B2B",
"= 	c #FCEBCD",
"- 	c #F8D69A",
"; 	c #F6D499",
"> 	c #F4D297",
", 	c #F2D096",
"' 	c #685940",
") 	c #3B3224",
"! 	c #3A3224",
"~ 	c #3A3123",
"{ 	c #393023",
"] 	c #1C1A16",
"^ 	c #3A3A3A",
"/ 	c #F8E7C9",
"( 	c #F1CE94",
"_ 	c #EFCC93",
": 	c #EDCA92",
"< 	c #201B13",
"[ 	c #EAC78F",
"} 	c #E9C58E",
"| 	c #E7C48D",
"1 	c #E6C28C",
"2 	c #E5C18B",
"3 	c #E4C08A",
"4 	c #C6A778",
"5 	c #FAF1E0",
"6 	c #D0AF71",
"7 	c #BA9B5F",
"8 	c #2D261C",
"9 	c #C4AB76",
"0 	c #C4AA76",
"a 	c #C2A875",
"b 	c #C0A673",
"c 	c #BDA472",
"d 	c #BBA271",
"e 	c #46433E",
"f 	c #2F2C28",
"g 	c #656565",
"h 	c #F8EFDE",
"i 	c #B29357",
"j 	c #F5DBAE",
"k 	c #F5DBAD",
"l 	c #F4DAAD",
"m 	c #F3D9AC",
"n 	c #F2D8AB",
"o 	c #F2D7AB",
"p 	c #E1C79B",
"q 	c #EFE6D3",
"r 	c #E9C68F",
"s 	c #E8C58E",
"t 	c #E6C38C",
"u 	c #E5C28C",
"v 	c #8F7957",
"w 	c #DFCFB1",
"x 	c #D2C2A9",
"y 	c #E3BF8A",
"z 	c #E2BF89",
"A 	c #E2BE89",
"B 	c #E1BD88",
"C 	c #463B2A",
"D 	c #D4C2A2",
"E 	c #DBCAAF",
"F 	c #3B3225",
"G 	c #DFBB85",
"H 	c #DEBA85",
"I 	c #0E0E0E",
"J 	c #B3A07F",
"K 	c #F3E4CA",
"L 	c #D7B37D",
"M 	c #AE9165",
"N 	c #3F3F3C",
"O 	c #C0B19A",
"P 	c #EBD8B8",
"Q 	c #D6B27C",
"R 	c #564A36",
"S 	c #CAA66F",
"T 	c #8A724B",
"U 	c #737373",
"V 	c #1E1D1D",
"W 	c #F4F0E3",
"X 	c #D7BC8F",
"Y 	c #CAA66E",
"Z 	c #C8A46C",
"` 	c #C6A26A",
" .	c #C4A068",
"..	c #C29E66",
"+.	c #C09C63",
"@.	c #BE9A61",
"#.	c #BB975E",
"$.	c #B9955B",
"%.	c #B69259",
"&.	c #4F3F26",
"*.	c #909090",
"                                ",
"                                ",
"  . + + + .                     ",
"+ @ # $ % & *                   ",
". = - ; > , ' ) ! ~ ~ { ]       ",
"^ / ( _ : < [ } | 1 2 3 4 .     ",
"^ 5 6 7 < < 8 9 0 a b c d e f g ",
"* h i < < < 8 8 j k l m n o p ^ ",
"+ q < < < < < 8 8 r s | t u v g ",
"* w x 1 < < < y z A A B B B C   ",
"^ D E B < < < < 8 8 8 F G H I   ",
". J K G < < < < < < 8 8 L M ^   ",
"N O P L Q < < < < < < R S T U   ",
"V W X Y Z `  ...+.@.#.$.%.&.*.  ",
"  I + + + + + + + + + + + *     ",
"                                "};
