/* XPM */
const char * ram_disk_xpm[] = {
"16 16 10 1",
" 	c None",
".	c #000000",
"+	c #868686",
"@	c #999966",
"#	c #A0A0A4",
"$	c #B2B2B2",
"%	c #C0C0C0",
"&	c #CCCCCC",
"*	c #D7D7D7",
"=	c #F8F8F8",
"                ",
"                ",
"          ..    ",
"        .+@#.   ",
"      .+@$$$#.  ",
"    .+@%%$$$$#. ",
"  .+@&%%$$$$$#+.",
" +@*&&&%%%$$+@+.",
"+=**&&&%%%+@+.*.",
".%++*&&$+@+.*+. ",
" .+=*#+@+.*+. . ",
"  .+=@+.*+. .   ",
"   .%.*+. .     ",
"    .+. .       ",
"      .         ",
"                "};
