/* XPM */
static char * read_only_xpm[] = {
"19 19 116 2",
"  	c None",
". 	c #F7A6A5",
"+ 	c #EF6163",
"@ 	c #EF3031",
"# 	c #EF1818",
"$ 	c #EF0C08",
"% 	c #EF2829",
"& 	c #E7595A",
"* 	c #E79694",
"= 	c #000000",
"- 	c #FFBABD",
"; 	c #EF4D4A",
"> 	c #F73031",
", 	c #F74D4A",
"' 	c #F74542",
") 	c #EF1010",
"! 	c #EF0000",
"~ 	c #FFCFCE",
"{ 	c #F7A2A5",
"] 	c #FF8A8C",
"^ 	c #FF9A9C",
"/ 	c #EF2C29",
"( 	c #EF0400",
"_ 	c #FF6563",
": 	c #EF3839",
"< 	c #FFD7D6",
"[ 	c #F79694",
"} 	c #AD2021",
"| 	c #7B3C39",
"1 	c #6B595A",
"2 	c #736163",
"3 	c #944D4A",
"4 	c #DEDFDE",
"5 	c #BDBABD",
"6 	c #FFA6A5",
"7 	c #FF9E9C",
"8 	c #F72021",
"9 	c #C62421",
"0 	c #7B797B",
"a 	c #ADAAAD",
"b 	c #C6C3C6",
"c 	c #FFFF9C",
"d 	c #9C3031",
"e 	c #F74139",
"f 	c #F79A9C",
"g 	c #E70808",
"h 	c #F7494A",
"i 	c #F78A8C",
"j 	c #CE3031",
"k 	c #F7F794",
"l 	c #FFFFFF",
"m 	c #FFFF31",
"n 	c #8C8A8C",
"o 	c #AD5D5A",
"p 	c #F76563",
"q 	c #F75552",
"r 	c #EF3439",
"s 	c #9C2021",
"t 	c #9C2421",
"u 	c #840C08",
"v 	c #B5B26B",
"w 	c #E7E3E7",
"x 	c #F7F731",
"y 	c #FFCF00",
"z 	c #FF9A00",
"A 	c #B52829",
"B 	c #B5B6B5",
"C 	c #7B7D7B",
"D 	c #A53839",
"E 	c #AD3C39",
"F 	c #B5B221",
"G 	c #E7E329",
"H 	c #F7C700",
"I 	c #CE1010",
"J 	c #9C9A9C",
"K 	c #EF1410",
"L 	c #ADAEAD",
"M 	c #CECBCE",
"N 	c #630000",
"O 	c #A53C10",
"P 	c #B58E00",
"Q 	c #E78600",
"R 	c #E70400",
"S 	c #848684",
"T 	c #EF0808",
"U 	c #BD5552",
"V 	c #BD2C08",
"W 	c #B5B621",
"X 	c #BD5510",
"Y 	c #C63839",
"Z 	c #EFAEAD",
"` 	c #CE0C08",
" .	c #B59200",
"..	c #D63800",
"+.	c #D63839",
"@.	c #DE5552",
"#.	c #AD1C18",
"$.	c #E78A00",
"%.	c #CE4142",
"&.	c #8C3839",
"*.	c #F73C39",
"=.	c #BD1818",
"-.	c #6B6563",
";.	c #CE9A63",
">.	c #FFCF9C",
",.	c #DE595A",
"'.	c #D60808",
").	c #8C8E8C",
"!.	c #D6D7D6",
"~.	c #101010",
"{.	c #FFCF63",
"].	c #843431",
"^.	c #BDBEBD",
"/.	c #9C6531",
"(.	c #843C39",
"_.	c #B5B2B5",
"          . + @ # $ % & *   = =       ",
"      - ; > , ' ) ! ! ! ! = ~ ~ =     ",
"    { @ ] ^ / ( ! ! ! ! = ~ ^ ^ _ =   ",
"  - : < [ % } | 1 2 3 = 4 5 ^ _ _ =   ",
"  ; 6 7 ! 8 9 0 a b = c 5 5 5 d d =   ",
". e f g ! h i j b = k l m 5 n n = o   ",
"p q r s t ! h i u v w x m y z = ! A B ",
"/ e $ | C D ! h i E F G H z = ! ! I J ",
"K 8 ! 1 L M N ! h i O P Q =   ! ! R S ",
") T ! 2 b = v U ! h i V =     ! ! R 0 ",
"% ! ! 3 = k 4 W X ! h i Y   Z ! ! ` 0 ",
"& ! ! = c l x G  ...! h i +.@.! ! #.S ",
"* ! = c l m m H $.= %.! h i ) ! ! &.J ",
"  = c l m m y z =     %.! *.) ! =.-.B ",
"= ;.>.m m y z =     Z ,.( ! ! '.| ).!.",
"~.;.>.;.{.z = ! ! ! ! ! ! ! '.].0 ^.  ",
"~.;.;.;./.= ! ! ! ! ! ! ! =.(.0 B     ",
"= /./.= = o A I R R ` #.&.-.).^.      ",
"= = ~.      _.J S 0 0 S J B           "};
