/* XPM */
static char * scan_xpm[] = {
"20 20 21 1",
" 	c None",
".	c #008000",
"+	c #31BC31",
"@	c #98FF98",
"#	c #BBF7BB",
"$	c #015101",
"%	c #A7E5A7",
"&	c #C8F7C8",
"*	c #00E800",
"=	c #94D394",
"-	c #00FF00",
";	c #CEFFCE",
">	c #66C966",
",	c #D7EFD7",
"'	c #000000",
")	c #F5F5DC",
"!	c #BEBEAB",
"~	c #D8D8C2",
"{	c #818174",
"]	c #2BB52B",
"^	c #1FCD1F",
"          ....      ",
"         +.@@.      ",
"       ++#$@@.      ",
"     ++%#&.*@.      ",
"   ++%###&.*@.      ",
"  ++=###&&.-*.      ",
"  +;>%##&,.--$      ",
"  +;;>%#&,.--.'     ",
"  +;;>%#&,.--.'     ",
"  +;>=%#&,.--.)'    ",
"  ++=%##&,.--.)!'   ",
"  +=%###&,.--.))~'  ",
"   +%###&,.--.)){'  ",
"   +%###&,.--.)''   ",
"    +###&&.--.''    ",
"    +%###&.-*$      ",
"     ]%###.*@.      ",
"      +#%^$@@.      ",
"       ++ .@@.      ",
"          ....      "};
