/* XPM */
static char * scan_xpm[] = {
"24 24 238 2",
"  	c None",
". 	c #367A02",
"+ 	c #68B708",
"@ 	c #6DB405",
"# 	c #4A6E23",
"$ 	c #428C01",
"% 	c #96FF00",
"& 	c #A3FF00",
"* 	c #385A0C",
"= 	c #677148",
"- 	c #A2B76E",
"; 	c #9EB670",
"> 	c #99B571",
", 	c #93B372",
"' 	c #90B374",
") 	c #8CB276",
"! 	c #87B178",
"~ 	c #82B079",
"{ 	c #539020",
"] 	c #97FF00",
"^ 	c #A4FF00",
"/ 	c #55772A",
"( 	c #7A7A7A",
"_ 	c #5C5C5C",
": 	c #8B995F",
"< 	c #DCF995",
"[ 	c #D6F797",
"} 	c #CFF599",
"| 	c #C9F49B",
"1 	c #C4F39D",
"2 	c #BDF19F",
"3 	c #B7F0A1",
"4 	c #B1EFA4",
"5 	c #6AA73A",
"6 	c #A5FF00",
"7 	c #7C9E51",
"8 	c #D0D0D0",
"9 	c #A9A9A9",
"0 	c #9B9B9B",
"a 	c #D8F999",
"b 	c #D2F89C",
"c 	c #CAF59C",
"d 	c #C5F49E",
"e 	c #BFF3A1",
"f 	c #B9F2A3",
"g 	c #B2F0A5",
"h 	c #6CA73A",
"i 	c #98FF00",
"j 	c #A6FF00",
"k 	c #7D9F52",
"l 	c #D3D3D3",
"m 	c #ADADAD",
"n 	c #E9E9E9",
"o 	c #969696",
"p 	c #8A985F",
"q 	c #DBF894",
"r 	c #D3F99D",
"s 	c #CCF79E",
"t 	c #C7F6A0",
"u 	c #C0F4A2",
"v 	c #BBF4A5",
"w 	c #B4F2A7",
"x 	c #6CA83C",
"y 	c #99FF00",
"z 	c #A7FF00",
"A 	c #7EA053",
"B 	c #D6D6D6",
"C 	c #EFEFEF",
"D 	c #E8E8E8",
"E 	c #939393",
"F 	c #D7F898",
"G 	c #CDF89F",
"H 	c #C8F7A1",
"I 	c #C2F6A4",
"J 	c #BCF5A6",
"K 	c #B6F4A9",
"L 	c #6DA83D",
"M 	c #9AFF00",
"N 	c #A8FF00",
"O 	c #80A154",
"P 	c #DADADA",
"Q 	c #DDDDDD",
"R 	c #D1D1D1",
"S 	c #C9C9C9",
"T 	c #808080",
"U 	c #89975D",
"V 	c #DAF793",
"W 	c #CEF9A0",
"X 	c #C3F7A5",
"Y 	c #BDF6A7",
"Z 	c #B7F5AA",
"` 	c #6FA93E",
" .	c #9BFF00",
"..	c #A9FF00",
"+.	c #81A355",
"@.	c #CECECE",
"#.	c #BEBEBE",
"$.	c #C8C8C8",
"%.	c #C5C5C5",
"&.	c #A3A3A3",
"*.	c #414141",
"=.	c #C9F8A2",
"-.	c #BEF7A8",
";.	c #B9F7AC",
">.	c #70A93F",
",.	c #9CFF00",
"'.	c #82A456",
").	c #E1E1E1",
"!.	c #DEDEDE",
"~.	c #DBDBDB",
"{.	c #D9D9D9",
"].	c #BDBDBD",
"^.	c #424242",
"/.	c #88965C",
"(.	c #D9F692",
"_.	c #D1F79B",
":.	c #CAF9A3",
"<.	c #70AA41",
"[.	c #9DFF00",
"}.	c #AAFF00",
"|.	c #83A557",
"1.	c #E4E4E4",
"2.	c #DFDFDF",
"3.	c #DCDCDC",
"4.	c #C1C1C1",
"5.	c #444444",
"6.	c #D5F696",
"7.	c #C4F8A6",
"8.	c #71AA41",
"9.	c #ABFF00",
"0.	c #85A557",
"a.	c #E5E5E5",
"b.	c #E2E2E2",
"c.	c #C4C4C4",
"d.	c #87955C",
"e.	c #D8F591",
"f.	c #D4F595",
"g.	c #D0F69A",
"h.	c #C5F9A7",
"i.	c #C0F9AA",
"j.	c #BBF9AE",
"k.	c #72AA42",
"l.	c #9EFF00",
"m.	c #ACFF00",
"n.	c #86A759",
"o.	c #EBEBEB",
"p.	c #E3E3E3",
"q.	c #E0E0E0",
"r.	c #C6C6C6",
"s.	c #454545",
"t.	c #D7F490",
"u.	c #BCFAAF",
"v.	c #73AB43",
"w.	c #9FFF00",
"x.	c #ADFF00",
"y.	c #89AA5B",
"z.	c #F2F2F2",
"A.	c #ECECEC",
"B.	c #E6E6E6",
"C.	c #CACACA",
"D.	c #D3F494",
"E.	c #CBF69D",
"F.	c #73AA43",
"G.	c #A0FF00",
"H.	c #AEFF00",
"I.	c #89AB5C",
"J.	c #F9F9F9",
"K.	c #F7F7F7",
"L.	c #EEEEEE",
"M.	c #EAEAEA",
"N.	c #E7E7E7",
"O.	c #CDCDCD",
"P.	c #464646",
"Q.	c #BFF8A9",
"R.	c #73AA44",
"S.	c #A1FF00",
"T.	c #AFFF00",
"U.	c #F8F8F8",
"V.	c #FAFAFA",
"W.	c #F1F1F1",
"X.	c #CEF498",
"Y.	c #BAF8AD",
"Z.	c #73A943",
"`.	c #A2FF00",
" +	c #88A95A",
".+	c #FBFBFB",
"++	c #F3F3F3",
"@+	c #474747",
"#+	c #86945B",
"$+	c #D6F38F",
"%+	c #C6F59F",
"&+	c #B0FF00",
"*+	c #D2F393",
"=+	c #C1F5A3",
"-+	c #72A743",
";+	c #B1FF00",
">+	c #F6F6F6",
",+	c #86945A",
"'+	c #CDF397",
")+	c #72A744",
"!+	c #B2FF00",
"~+	c #87A758",
"{+	c #F5F5F5",
"]+	c #D5F28E",
"^+	c #C8F39A",
"/+	c #B8F6AB",
"(+	c #B3FF00",
"_+	c #86A757",
":+	c #F4F4F4",
"<+	c #D1F292",
"[+	c #72A644",
"}+	c #B4FF00",
"|+	c #EDEDED",
"1+	c #4B4F3A",
"2+	c #6C7653",
"3+	c #677353",
"4+	c #667355",
"5+	c #647256",
"6+	c #637257",
"7+	c #637359",
"8+	c #64775D",
"9+	c #667B62",
"0+	c #4D7D1F",
"a+	c #B5FF00",
"b+	c #537424",
"c+	c #797979",
"d+	c #777777",
"e+	c #7B7B7B",
"f+	c #848484",
"g+	c #7C7C7C",
"h+	c #3B3B3B",
"i+	c #427D06",
"j+	c #B6FF00",
"k+	c #385808",
"l+	c #326D01",
"m+	c #5C9314",
"n+	c #4C7C00",
"o+	c #476424",
"                      . + @ #                   ",
"                      $ % & *                   ",
"    = - ; > , ' ) ! ~ { ] ^ / ( _               ",
"    : < [ } | 1 2 3 4 5 ] 6 7 8 9 0             ",
"    : < a b c d e f g h i j k l m n o           ",
"    p q a r s t u v w x y z A B m C D E         ",
"    p q F r G H I J K L M N O P m Q R S T       ",
"    U V F r W H X Y Z `  ...+.Q @.#.$.%.&.*.    ",
"    U V [ b W =.X -.;.>.,...'.).!.~.{.B ].^.    ",
"    /.(.[ _.G :.X -.;.<.[.}.|.1.).2.3.{.4.5.    ",
"    /.(.6._.G :.7.-.;.8.[.9.0.D a.b.2.Q c.5.    ",
"    d.e.f.g.s =.h.i.j.k.l.m.n.o.D a.p.q.r.s.    ",
"    d.t.f.g.s H 7.i.u.v.w.x.y.z.A.n B.p.C.s.    ",
"    d.t.D.} E.H 7.i.j.F.G.H.I.J.K.L.M.N.O.P.    ",
"    d.t.D.} c t X Q.j.R.S.T.y.U.J.V.W.M.8 P.    ",
"    d.t.D.X.c t X -.Y.Z.`.T. +U.J.V..+++l @+    ",
"    #+$+D.X.| %+I -.Y.Z.& &+ +K.U.J.V..+a.@+    ",
"    #+$+*+X.| %+=+Y ;.-+^ ;+ +>+K.U.V..+W.@+    ",
"    ,+$+*+'+| d =+Y ;.)+6 !+~+{+>+U.J.V.C @+    ",
"    ,+]+*+'+^+d u J /+)+6 (+_+:+{+K.U.J.L.@+    ",
"    ,+]+<+'+^+1 u v Z [+j }+_+++{+>+K.U.|+@+    ",
"    1+2+3+4+5+6+7+8+9+0+z a+b+c+d+e+T f+g+h+    ",
"                      i+N j+k+                  ",
"                      l+m+n+o+                  "};
