/* XPM */
static char * sequence_track_xpm[] = {
"5 5 2 1",
" 	c None",
".	c #050570",
" . . ",
".....",
" . . ",
".....",
" . . "};
