/* XPM */
static const char const * invert_selection_xpm[] = {
"20 20 4 1",
" 	c None",
".	c #000000",
"+	c #8D8DEC",
"@	c #5D5DE4",
"                    ",
"                    ",
"  ................  ",
"  .              .  ",
"  .              .  ",
"  ................  ",
"  .              .  ",
"  .              .  ",
"  ................  ",
"  .              .  ",
"  .              .  ",
"  ................  ",
"  .++++++++++++++.  ",
"  .@@@@@@@@@@@@@@.  ",
"  ................  ",
"  .++++++++++++++.  ",
"  .@@@@@@@@@@@@@@.  ",
"  ................  ",
"                    ",
"                    "};
