/* XPM */
const char * opened_folder_xpm[] = {
"16 16 126 2",
"  	c None",
". 	c #1D1D1D",
"+ 	c #000000",
"@ 	c #FDECCD",
"# 	c #FCDB9D",
"$ 	c #FCDB9E",
"% 	c #FCDA9D",
"& 	c #CBAF7E",
"* 	c #2B2B2B",
"= 	c #FCEBCD",
"- 	c #F8D69A",
"; 	c #F6D499",
"> 	c #F4D297",
", 	c #F2D096",
"' 	c #685940",
") 	c #3B3224",
"! 	c #3A3224",
"~ 	c #3A3123",
"{ 	c #393023",
"] 	c #1C1A16",
"^ 	c #3A3A3A",
"/ 	c #F8E7C9",
"( 	c #F1CE94",
"_ 	c #EFCC93",
": 	c #EDCA92",
"< 	c #ECC991",
"[ 	c #EAC78F",
"} 	c #E9C58E",
"| 	c #E7C48D",
"1 	c #E6C28C",
"2 	c #E5C18B",
"3 	c #E4C08A",
"4 	c #C6A778",
"5 	c #FAF1E0",
"6 	c #D0AF71",
"7 	c #BA9B5F",
"8 	c #C4AB76",
"9 	c #C4AA76",
"0 	c #C2A875",
"a 	c #C0A673",
"b 	c #BDA472",
"c 	c #BBA271",
"d 	c #46433E",
"e 	c #2F2C28",
"f 	c #656565",
"g 	c #F8EFDE",
"h 	c #B29357",
"i 	c #FCF1DB",
"j 	c #FAE8C8",
"k 	c #F9E8C8",
"l 	c #F8E2BC",
"m 	c #F6DCAF",
"n 	c #F5DBAE",
"o 	c #F5DBAD",
"p 	c #F4DAAD",
"q 	c #F3D9AC",
"r 	c #F2D8AB",
"s 	c #F2D7AB",
"t 	c #E1C79B",
"u 	c #EFE6D3",
"v 	c #C7B491",
"w 	c #F1D2A0",
"x 	c #EECC93",
"y 	c #EBC890",
"z 	c #E9C68F",
"A 	c #E8C58E",
"B 	c #E6C38C",
"C 	c #E5C28C",
"D 	c #8F7957",
"E 	c #DFCFB1",
"F 	c #D2C2A9",
"G 	c #E4C18B",
"H 	c #E3C08A",
"I 	c #E3BF8A",
"J 	c #E2BF89",
"K 	c #E2BE89",
"L 	c #E1BD88",
"M 	c #463B2A",
"N 	c #D4C2A2",
"O 	c #DBCAAF",
"P 	c #E0BC87",
"Q 	c #E0BC86",
"R 	c #DFBB86",
"S 	c #DFBB85",
"T 	c #DEBA85",
"U 	c #0E0E0E",
"V 	c #B3A07F",
"W 	c #F3E4CA",
"X 	c #DDB984",
"Y 	c #DDB983",
"Z 	c #DCB882",
"` 	c #DBB781",
" .	c #DAB681",
"..	c #D9B580",
"+.	c #D8B47E",
"@.	c #D7B37D",
"#.	c #AE9165",
"$.	c #3F3F3C",
"%.	c #C0B19A",
"&.	c #EBD8B8",
"*.	c #D6B27C",
"=.	c #D5B17A",
"-.	c #D3AF79",
";.	c #D2AE77",
">.	c #D1AD76",
",.	c #CFAB74",
"'.	c #CEAA73",
").	c #CCA871",
"!.	c #CAA66F",
"~.	c #8A724B",
"{.	c #737373",
"].	c #1E1D1D",
"^.	c #F4F0E3",
"/.	c #D7BC8F",
"(.	c #CAA66E",
"_.	c #C8A46C",
":.	c #C6A26A",
"<.	c #C4A068",
"[.	c #C29E66",
"}.	c #C09C63",
"|.	c #BE9A61",
"1.	c #BB975E",
"2.	c #B9955B",
"3.	c #B69259",
"4.	c #4F3F26",
"5.	c #909090",
"                                ",
"                                ",
"  . + + + .                     ",
"+ @ # $ % & *                   ",
". = - ; > , ' ) ! ~ ~ { ]       ",
"^ / ( _ : < [ } | 1 2 3 4 .     ",
"^ 5 6 7 8 8 8 8 9 0 a b c d e f ",
"* g h i j k l m n o p q r s t ^ ",
"+ u v w x : < y [ z A | B C D f ",
"* E F 1 2 G H I J K K L L L M   ",
"^ N O L L L L L P P Q R S T U   ",
". V W S T X Y Z `  ...+.@.#.^   ",
"$.%.&.@.*.=.-.;.>.,.'.).!.~.{.  ",
"].^./.(._.:.<.[.}.|.1.2.3.4.5.  ",
"  U + + + + + + + + + + + *     ",
"                                "};
