/* XPM */
static char * red_lines_xpm[] = {
"20 20 2 1",
" 	c None",
".	c #FF0000",
"                    ",
"                    ",
"                    ",
"  ..........        ",
"  ................  ",
"                    ",
"  ................  ",
"                    ",
"                    ",
"                    ",
"  ............      ",
"  ................  ",
"                    ",
"  ......            ",
"                    ",
"  ..............    ",
"                    ",
"  ................  ",
"                    ",
"                    "};
