/* XPM */
static char * sound_xpm[] = {
"20 20 203 2",
"  	c None",
". 	c #707869",
"+ 	c #5E6959",
"@ 	c #474F41",
"# 	c #34372A",
"$ 	c #4F594B",
"% 	c #1D201B",
"& 	c #333631",
"* 	c #1A1B15",
"= 	c #747C73",
"- 	c #060606",
"; 	c #4A4948",
"> 	c #737E8F",
", 	c #7D8592",
"' 	c #9CA2AD",
") 	c #ADB4BD",
"! 	c #303A31",
"~ 	c #787B73",
"{ 	c #565E52",
"] 	c #3C3F37",
"^ 	c #4A515F",
"/ 	c #161E2C",
"( 	c #131C2C",
"_ 	c #293142",
": 	c #7F8794",
"< 	c #969DA8",
"[ 	c #545C50",
"} 	c #696B68",
"| 	c #2E2D2C",
"1 	c #70776F",
"2 	c #2A2F28",
"3 	c #575B52",
"4 	c #7E838E",
"5 	c #414752",
"6 	c #161B23",
"7 	c #151A22",
"8 	c #172030",
"9 	c #172135",
"0 	c #353E4F",
"a 	c #89919D",
"b 	c #797F8C",
"c 	c #252C22",
"d 	c #232620",
"e 	c #3C4350",
"f 	c #161920",
"g 	c #171B22",
"h 	c #171E2C",
"i 	c #1C283E",
"j 	c #1B263C",
"k 	c #858D99",
"l 	c #737C8D",
"m 	c #42463E",
"n 	c #010101",
"o 	c #020202",
"p 	c #535965",
"q 	c #10161F",
"r 	c #141920",
"s 	c #181B21",
"t 	c #171D28",
"u 	c #1C2538",
"v 	c #1B263D",
"w 	c #465267",
"x 	c #757F92",
"y 	c #A7ACA6",
"z 	c #434741",
"A 	c #676E79",
"B 	c #191F2A",
"C 	c #12171E",
"D 	c #191C22",
"E 	c #1C212A",
"F 	c #222A3A",
"G 	c #1C232F",
"H 	c #1D293E",
"I 	c #2D3C57",
"J 	c #778395",
"K 	c #343833",
"L 	c #242721",
"M 	c #2E3540",
"N 	c #10151E",
"O 	c #151A21",
"P 	c #181B22",
"Q 	c #1D232E",
"R 	c #3F4D65",
"S 	c #50617D",
"T 	c #2D3849",
"U 	c #1E2B42",
"V 	c #3A4A67",
"W 	c #7A8598",
"X 	c #1C1E1C",
"Y 	c #323431",
"Z 	c #6C7380",
"` 	c #111722",
" .	c #141921",
"..	c #181C22",
"+.	c #1A1F26",
"@.	c #48566B",
"#.	c #6F829E",
"$.	c #596D8D",
"%.	c #333F53",
"&.	c #233149",
"*.	c #4D6282",
"=.	c #677387",
"-.	c #4C4C48",
";.	c #434856",
">.	c #151B2A",
",.	c #1D222D",
"'.	c #1C222C",
").	c #2B3240",
"!.	c #8594A9",
"~.	c #6B809F",
"{.	c #475979",
"].	c #283345",
"^.	c #364561",
"/.	c #4E6588",
"(.	c #4A556A",
"_.	c #515B4C",
":.	c #242822",
"<.	c #3D3F38",
"[.	c #2E3749",
"}.	c #232E42",
"|.	c #283347",
"1.	c #253043",
"2.	c #3A4555",
"3.	c #7485A0",
"4.	c #44587B",
"5.	c #2C3951",
"6.	c #3B4451",
"7.	c #526483",
"8.	c #344054",
"9.	c #33415A",
"0.	c #4C5A72",
"a.	c #777C74",
"b.	c #71786D",
"c.	c #3B4238",
"d.	c #7C7C7D",
"e.	c #323E55",
"f.	c #2A374E",
"g.	c #2D3A51",
"h.	c #313F58",
"i.	c #425067",
"j.	c #3C4961",
"k.	c #1F293D",
"l.	c #3D4450",
"m.	c #748398",
"n.	c #546580",
"o.	c #1C232C",
"p.	c #2B374D",
"q.	c #515B6D",
"r.	c #333632",
"s.	c #171B16",
"t.	c #7E8898",
"u.	c #39455B",
"v.	c #324059",
"w.	c #3D4C65",
"x.	c #4D5C76",
"y.	c #738198",
"z.	c #7F8996",
"A.	c #7D8390",
"B.	c #9CA6B5",
"C.	c #71829C",
"D.	c #2E384C",
"E.	c #0C1016",
"F.	c #1D2432",
"G.	c #39465E",
"H.	c #3F4E67",
"I.	c #69768C",
"J.	c #8591A2",
"K.	c #A9B3C1",
"L.	c #C8CFDA",
"M.	c #BFC8D6",
"N.	c #7F8B9E",
"O.	c #39455A",
"P.	c #121825",
"Q.	c #080B12",
"R.	c #474C57",
"S.	c #4A5870",
"T.	c #44526A",
"U.	c #929DAC",
"V.	c #B4BBC6",
"W.	c #BFC5CE",
"X.	c #B8C0CD",
"Y.	c #373F4E",
"Z.	c #33373F",
"`.	c #616F85",
" +	c #5F6D83",
".+	c #9DA7B6",
"++	c #BBC1CC",
"@+	c #ADB5C0",
"#+	c #666F7E",
"$+	c #242A34",
"%+	c #222626",
"&+	c #777D88",
"*+	c #3F4859",
"=+	c #424A59",
"-+	c #3C424C",
";+	c #20252C",
">+	c #171A20",
",+	c #1D1F23",
"'+	c #5D5F61",
")+	c #505256",
"!+	c #48494B",
"~+	c #464647",
"{+	c #363637",
"        . + @ #                         ",
"        $ % & *                         ",
"        = -   - ;         > , ' )       ",
"        ! ~   { ]       ^ / ( _ : <     ",
"  [   } | 1   2 3   4 5 6 7 8 9 0 a b   ",
"  c d               e 6 f g h i j k l   ",
"  m n o           p q r s g t u v w x   ",
"y z             A B C g D E F G H I J   ",
"K L             M N O P Q R S T U V W   ",
"X Y           Z `  ...+.@.#.$.%.&.*.=.  ",
"        -.    ;.>.,.'.).!.~.{.].^./.(.  ",
"      _.:.<.  [.}.|.1.2.3.4.5.6.7.8.9.0.",
"  a.b.c.  d.  e.f.g.h.i.j.k.l.m.n.o.p.q.",
"  r.s.      t.u.v.w.x.y.z.A.B.C.D.E.F.  ",
"              G.H.I.J.K.L.M.N.O.P.Q.R.  ",
"              S.T.U.V.W.X.N.Y.Z.        ",
"              `. +.+++@+#+$+%+          ",
"              &+*+=+-+;+>+,+            ",
"                '+)+!+~+{+              ",
"                                        "};
